<svg width="269" height="203" viewBox="0 0 269 203" fill="none" xmlns="http://www.w3.org/2000/svg">
<rect width="268.26" height="202.564" fill="#F1F1F1"/>
<rect x="6.56958" y="29.5632" width="255.121" height="168.621" fill="white"/>
<rect x="27.3735" y="51.4626" width="211.323" height="122.633" rx="8" fill="#F1F1F1"/>
<rect x="244.172" y="13.1392" width="16.4241" height="4.37976" rx="2.18988" fill="#C4C4C4"/>
<rect x="43.2061" y="90.2698" width="78.8672" height="4.75104" rx="2.37552" fill="white"/>
<rect x="43.2061" y="137.78" width="78.8672" height="4.75104" rx="2.37552" fill="white"/>
<rect x="138.227" y="90.2698" width="78.8672" height="4.75104" rx="2.37552" fill="#B73484"/>
<rect x="43.2061" y="82.6682" width="78.8672" height="4.75104" rx="2.37552" fill="white"/>
<rect x="43.2061" y="130.178" width="78.8672" height="4.75104" rx="2.37552" fill="#FFB422"/>
<rect x="138.227" y="82.6682" width="78.8672" height="4.75104" rx="2.37552" fill="white"/>
<rect x="43.2061" y="97.8713" width="78.8672" height="4.75104" rx="2.37552" fill="white"/>
<rect x="43.2061" y="145.382" width="78.8672" height="4.75104" rx="2.37552" fill="#FFB422"/>
<rect x="138.227" y="97.8713" width="78.8672" height="4.75104" rx="2.37552" fill="white"/>
<rect x="43.2061" y="152.983" width="44.6598" height="4.75104" rx="2.37552" fill="white"/>
<rect x="138.227" y="105.473" width="44.6598" height="4.75104" rx="2.37552" fill="white"/>
<circle cx="9.30693" cy="14.7815" r="2.73735" fill="#C4C4C4"/>
<circle cx="16.9715" cy="14.7815" r="2.73735" fill="#C4C4C4"/>
<circle cx="24.6363" cy="14.7815" r="2.73735" fill="#C4C4C4"/>
</svg>
