<svg width="31" height="35" viewBox="0 0 31 35" fill="none" xmlns="http://www.w3.org/2000/svg">
<path fill-rule="evenodd" clip-rule="evenodd" d="M15.5 34.6249C24.0603 34.6249 30.9998 33.0918 30.9998 31.2002L31 24.3499C31 24.3499 30.9999 24.3499 30.9999 24.3499C30.9998 26.2414 24.0603 27.7749 15.5 27.7749C6.93957 27.7749 0 26.2414 0 24.3499H3.67256e-05C2.44836e-05 24.3499 1.22417e-05 24.3499 0 24.3499V24.3499V31.2002C0 33.0918 6.93956 34.6249 15.5 34.6249Z" fill="#C93B92"/>
<path fill-rule="evenodd" clip-rule="evenodd" d="M15.5 25.7201C24.0603 25.7201 30.9998 24.187 30.9998 22.2954L31 15.4451C31 15.4451 30.9999 15.4451 30.9999 15.4451C30.9998 17.3366 24.0603 18.8701 15.5 18.8701C6.93957 18.8701 0 17.3366 0 15.4451H3.67256e-05C2.44836e-05 15.4451 1.22417e-05 15.4451 0 15.4451V15.4451V22.2954C0 24.187 6.93956 25.7201 15.5 25.7201Z" fill="#C93B92"/>
<path d="M30.9999 22.2952C30.9999 24.1867 24.0604 25.7202 15.5 25.7202C6.93957 25.7202 0 24.1867 0 22.2952C3.87499 22.2952 6.93957 22.2952 15.5 22.2952C24.0604 22.2952 28.4166 22.2953 30.9999 22.2952Z" fill="#C84D9A"/>
<path d="M30.9999 4.485C30.9999 6.37658 24.0604 7.225 15.5 7.225C6.93957 7.225 0 6.37658 0 4.485C0 2.59342 6.93957 0.375 15.5 0.375C24.0604 0.375 30.9999 2.59342 30.9999 4.485Z" fill="#C84D9A"/>
<path d="M30.9999 4.48511C30.9999 6.37663 24.0604 7.91011 15.5 7.91011C6.93957 7.91011 0 6.37669 0 4.48517C3.87499 4.48511 6.93957 4.48517 15.5 4.48517C24.0604 4.48517 28.4166 4.48522 30.9999 4.48511Z" fill="#C84D9A"/>
<path fill-rule="evenodd" clip-rule="evenodd" d="M15.5 16.815C24.0603 16.815 30.9998 15.282 30.9998 13.3904L31 6.54004C31 6.54006 30.9999 6.54008 30.9999 6.54009C30.9998 8.43159 24.0603 9.96504 15.5 9.96504C6.93957 9.96504 0 8.43162 0 6.5401H3.67256e-05C2.44836e-05 6.54009 1.22417e-05 6.54008 0 6.54007V6.5401V13.3904C0 15.282 6.93956 16.815 15.5 16.815Z" fill="#C93B92"/>
<path d="M30.9999 13.3899C30.9999 15.2814 24.0604 16.8149 15.5 16.8149C6.93957 16.8149 0 15.2815 0 13.39C3.87499 13.3899 6.93957 13.39 15.5 13.39C24.0604 13.39 28.4166 13.39 30.9999 13.3899Z" fill="#C84D9A"/>
</svg>
