<svg width="212" height="145" viewBox="0 0 212 145" fill="none" xmlns="http://www.w3.org/2000/svg">
<g filter="url(#filter0_d_1_2829)">
<rect x="11" width="201" height="136.531" rx="20" fill="#F9F4F4"/>
</g>
<rect x="16" y="20" width="187" height="110" fill="white"/>
<rect x="27.4839" y="28.9824" width="76.4258" height="25.6125" rx="8" fill="#F9F4F4"/>
<rect x="111.402" y="28.9824" width="37.4636" height="25.6125" rx="8" fill="#F9F4F4"/>
<rect x="160.105" y="28.9824" width="37.4636" height="25.6125" rx="8" fill="#F9F4F4"/>
<rect x="166.177" y="34.354" width="0.305112" height="12.5104" rx="0.152556" fill="#EFF3FE"/>
<rect x="166.075" y="40.1279" width="0.508521" height="6.73635" rx="0.25426" fill="url(#paint0_linear_1_2829)"/>
<rect x="166.075" y="38.2034" width="0.508521" height="1.4435" rx="0.25426" fill="url(#paint1_linear_1_2829)"/>
<path d="M166.87 49.1107C166.87 49.236 166.856 49.3447 166.829 49.4367C166.802 49.528 166.766 49.6037 166.719 49.6637C166.672 49.7237 166.617 49.7683 166.553 49.7977C166.49 49.827 166.422 49.8417 166.349 49.8417C166.276 49.8417 166.207 49.827 166.144 49.7977C166.081 49.7683 166.027 49.7237 165.98 49.6637C165.933 49.6037 165.897 49.528 165.87 49.4367C165.843 49.3447 165.83 49.236 165.83 49.1107C165.83 48.9853 165.843 48.8767 165.87 48.7847C165.897 48.6927 165.933 48.6167 165.98 48.5567C166.027 48.496 166.081 48.451 166.144 48.4217C166.207 48.3923 166.276 48.3777 166.349 48.3777C166.422 48.3777 166.49 48.3923 166.553 48.4217C166.617 48.451 166.672 48.496 166.719 48.5567C166.766 48.6167 166.802 48.6927 166.829 48.7847C166.856 48.8767 166.87 48.9853 166.87 49.1107ZM166.685 49.1107C166.685 49.0013 166.676 48.9097 166.657 48.8357C166.639 48.761 166.614 48.701 166.583 48.6557C166.552 48.6103 166.517 48.578 166.476 48.5587C166.435 48.5387 166.393 48.5287 166.349 48.5287C166.305 48.5287 166.263 48.5387 166.222 48.5587C166.181 48.578 166.146 48.6103 166.115 48.6557C166.084 48.701 166.06 48.761 166.041 48.8357C166.023 48.9097 166.014 49.0013 166.014 49.1107C166.014 49.22 166.023 49.3117 166.041 49.3857C166.06 49.4597 166.084 49.5193 166.115 49.5647C166.146 49.61 166.181 49.6427 166.222 49.6627C166.263 49.682 166.305 49.6917 166.349 49.6917C166.393 49.6917 166.435 49.682 166.476 49.6627C166.517 49.6427 166.552 49.61 166.583 49.5647C166.614 49.5193 166.639 49.4597 166.657 49.3857C166.676 49.3117 166.685 49.22 166.685 49.1107ZM166.788 51.6907V51.8267H166.02V51.6907H166.327V50.7137C166.327 50.6843 166.328 50.6547 166.33 50.6247L166.075 50.8437C166.066 50.851 166.058 50.8557 166.049 50.8577C166.04 50.859 166.032 50.859 166.025 50.8577C166.018 50.8563 166.011 50.8537 166.004 50.8497C165.998 50.8457 165.993 50.8413 165.99 50.8367L165.934 50.7597L166.361 50.3907H166.506V51.6907H166.788Z" fill="#D7DBE6"/>
<rect x="168.211" y="34.354" width="0.305112" height="12.5104" rx="0.152556" fill="#EFF3FE"/>
<rect x="168.109" y="43.9775" width="0.508521" height="2.88701" rx="0.25426" fill="url(#paint2_linear_1_2829)"/>
<rect x="168.109" y="36.2788" width="0.508521" height="7.21752" rx="0.25426" fill="url(#paint3_linear_1_2829)"/>
<path d="M168.803 49.1107C168.803 49.236 168.789 49.3447 168.762 49.4367C168.735 49.528 168.698 49.6037 168.652 49.6637C168.605 49.7237 168.55 49.7683 168.486 49.7977C168.422 49.827 168.354 49.8417 168.282 49.8417C168.208 49.8417 168.14 49.827 168.077 49.7977C168.014 49.7683 167.959 49.7237 167.913 49.6637C167.866 49.6037 167.829 49.528 167.803 49.4367C167.776 49.3447 167.763 49.236 167.763 49.1107C167.763 48.9853 167.776 48.8767 167.803 48.7847C167.829 48.6927 167.866 48.6167 167.913 48.5567C167.959 48.496 168.014 48.451 168.077 48.4217C168.14 48.3923 168.208 48.3777 168.282 48.3777C168.354 48.3777 168.422 48.3923 168.486 48.4217C168.55 48.451 168.605 48.496 168.652 48.5567C168.698 48.6167 168.735 48.6927 168.762 48.7847C168.789 48.8767 168.803 48.9853 168.803 49.1107ZM168.618 49.1107C168.618 49.0013 168.608 48.9097 168.59 48.8357C168.572 48.761 168.547 48.701 168.516 48.6557C168.485 48.6103 168.449 48.578 168.409 48.5587C168.368 48.5387 168.326 48.5287 168.282 48.5287C168.238 48.5287 168.195 48.5387 168.155 48.5587C168.114 48.578 168.078 48.6103 168.048 48.6557C168.017 48.701 167.992 48.761 167.974 48.8357C167.956 48.9097 167.947 49.0013 167.947 49.1107C167.947 49.22 167.956 49.3117 167.974 49.3857C167.992 49.4597 168.017 49.5193 168.048 49.5647C168.078 49.61 168.114 49.6427 168.155 49.6627C168.195 49.682 168.238 49.6917 168.282 49.6917C168.326 49.6917 168.368 49.682 168.409 49.6627C168.449 49.6427 168.485 49.61 168.516 49.5647C168.547 49.5193 168.572 49.4597 168.59 49.3857C168.608 49.3117 168.618 49.22 168.618 49.1107ZM168.69 51.6577C168.709 51.6577 168.724 51.6633 168.736 51.6747C168.747 51.686 168.753 51.7007 168.753 51.7187V51.8267H167.797V51.7657C167.797 51.753 167.799 51.74 167.805 51.7267C167.81 51.7133 167.818 51.701 167.83 51.6897L168.289 51.2287C168.327 51.19 168.361 51.153 168.393 51.1177C168.424 51.0817 168.451 51.0457 168.473 51.0097C168.495 50.9737 168.512 50.9373 168.524 50.9007C168.536 50.8633 168.542 50.8237 168.542 50.7817C168.542 50.7397 168.535 50.703 168.522 50.6717C168.508 50.6397 168.49 50.6133 168.467 50.5927C168.444 50.572 168.417 50.5567 168.386 50.5467C168.354 50.536 168.321 50.5307 168.285 50.5307C168.248 50.5307 168.214 50.536 168.184 50.5467C168.153 50.5573 168.126 50.5723 168.102 50.5917C168.078 50.6103 168.059 50.6327 168.043 50.6587C168.027 50.6847 168.015 50.7133 168.009 50.7447C168.001 50.768 167.99 50.7837 167.976 50.7917C167.962 50.799 167.943 50.801 167.919 50.7977L167.826 50.7817C167.835 50.7163 167.853 50.6587 167.88 50.6087C167.907 50.558 167.941 50.5157 167.982 50.4817C168.023 50.4477 168.07 50.422 168.123 50.4047C168.175 50.3867 168.232 50.3777 168.294 50.3777C168.354 50.3777 168.411 50.3867 168.464 50.4047C168.516 50.4227 168.562 50.449 168.601 50.4837C168.639 50.5177 168.67 50.5593 168.692 50.6087C168.714 50.658 168.725 50.714 168.725 50.7767C168.725 50.83 168.717 50.8797 168.701 50.9257C168.685 50.971 168.663 51.0143 168.636 51.0557C168.608 51.097 168.577 51.1373 168.541 51.1767C168.505 51.216 168.468 51.2557 168.428 51.2957L168.05 51.6817C168.076 51.6743 168.103 51.6687 168.131 51.6647C168.158 51.66 168.184 51.6577 168.21 51.6577H168.69Z" fill="#D7DBE6"/>
<rect x="170.346" y="34.354" width="0.305112" height="12.5104" rx="0.152556" fill="#EFF3FE"/>
<rect x="170.245" y="41.0906" width="0.508521" height="5.77401" rx="0.25426" fill="url(#paint4_linear_1_2829)"/>
<rect x="170.245" y="36.7598" width="0.508521" height="3.84934" rx="0.25426" fill="url(#paint5_linear_1_2829)"/>
<path d="M170.938 49.1107C170.938 49.236 170.924 49.3447 170.897 49.4367C170.87 49.528 170.834 49.6037 170.787 49.6637C170.74 49.7237 170.685 49.7683 170.621 49.7977C170.558 49.827 170.49 49.8417 170.417 49.8417C170.344 49.8417 170.275 49.827 170.212 49.7977C170.149 49.7683 170.095 49.7237 170.048 49.6637C170.001 49.6037 169.965 49.528 169.938 49.4367C169.911 49.3447 169.898 49.236 169.898 49.1107C169.898 48.9853 169.911 48.8767 169.938 48.7847C169.965 48.6927 170.001 48.6167 170.048 48.5567C170.095 48.496 170.149 48.451 170.212 48.4217C170.275 48.3923 170.344 48.3777 170.417 48.3777C170.49 48.3777 170.558 48.3923 170.621 48.4217C170.685 48.451 170.74 48.496 170.787 48.5567C170.834 48.6167 170.87 48.6927 170.897 48.7847C170.924 48.8767 170.938 48.9853 170.938 49.1107ZM170.753 49.1107C170.753 49.0013 170.744 48.9097 170.725 48.8357C170.707 48.761 170.682 48.701 170.651 48.6557C170.62 48.6103 170.585 48.578 170.544 48.5587C170.503 48.5387 170.461 48.5287 170.417 48.5287C170.373 48.5287 170.331 48.5387 170.29 48.5587C170.249 48.578 170.214 48.6103 170.183 48.6557C170.152 48.701 170.128 48.761 170.109 48.8357C170.091 48.9097 170.082 49.0013 170.082 49.1107C170.082 49.22 170.091 49.3117 170.109 49.3857C170.128 49.4597 170.152 49.5193 170.183 49.5647C170.214 49.61 170.249 49.6427 170.29 49.6627C170.331 49.682 170.373 49.6917 170.417 49.6917C170.461 49.6917 170.503 49.682 170.544 49.6627C170.585 49.6427 170.62 49.61 170.651 49.5647C170.682 49.5193 170.707 49.4597 170.725 49.3857C170.744 49.3117 170.753 49.22 170.753 49.1107ZM169.968 50.7817C169.977 50.7163 169.995 50.6587 170.022 50.6087C170.049 50.558 170.082 50.5157 170.123 50.4817C170.164 50.4477 170.211 50.422 170.264 50.4047C170.317 50.3867 170.375 50.3777 170.436 50.3777C170.497 50.3777 170.553 50.3863 170.604 50.4037C170.655 50.421 170.699 50.4457 170.736 50.4777C170.773 50.5097 170.802 50.5483 170.823 50.5937C170.844 50.639 170.854 50.6893 170.854 50.7447C170.854 50.79 170.848 50.8307 170.836 50.8667C170.825 50.902 170.808 50.933 170.786 50.9597C170.765 50.9863 170.739 51.009 170.708 51.0277C170.677 51.0463 170.643 51.0617 170.605 51.0737C170.698 51.0977 170.768 51.139 170.815 51.1977C170.862 51.2557 170.886 51.3283 170.886 51.4157C170.886 51.4817 170.873 51.541 170.848 51.5937C170.823 51.6463 170.789 51.6913 170.746 51.7287C170.703 51.7653 170.652 51.7937 170.594 51.8137C170.537 51.833 170.475 51.8427 170.409 51.8427C170.333 51.8427 170.268 51.8333 170.214 51.8147C170.16 51.7953 170.114 51.769 170.077 51.7357C170.04 51.7023 170.009 51.663 169.985 51.6177C169.961 51.5717 169.941 51.522 169.924 51.4687L170.001 51.4367C170.021 51.428 170.04 51.4257 170.059 51.4297C170.078 51.4337 170.092 51.4447 170.101 51.4627C170.11 51.4813 170.12 51.5037 170.133 51.5297C170.146 51.5557 170.164 51.5807 170.187 51.6047C170.21 51.6287 170.238 51.649 170.273 51.6657C170.308 51.6823 170.353 51.6907 170.407 51.6907C170.457 51.6907 170.501 51.6827 170.538 51.6667C170.576 51.65 170.607 51.6287 170.632 51.6027C170.657 51.5767 170.676 51.5477 170.689 51.5157C170.702 51.4837 170.708 51.452 170.708 51.4207C170.708 51.382 170.703 51.3467 170.693 51.3147C170.683 51.2827 170.664 51.255 170.637 51.2317C170.61 51.2083 170.572 51.19 170.524 51.1767C170.477 51.1633 170.416 51.1567 170.341 51.1567V51.0277C170.402 51.027 170.454 51.0203 170.497 51.0077C170.54 50.995 170.575 50.9777 170.602 50.9557C170.629 50.9337 170.649 50.9073 170.661 50.8767C170.674 50.846 170.68 50.812 170.68 50.7747C170.68 50.7333 170.673 50.6973 170.66 50.6667C170.647 50.636 170.63 50.6107 170.607 50.5907C170.584 50.5707 170.557 50.5557 170.526 50.5457C170.495 50.5357 170.462 50.5307 170.426 50.5307C170.39 50.5307 170.356 50.536 170.325 50.5467C170.294 50.5573 170.267 50.5723 170.243 50.5917C170.22 50.6103 170.2 50.6327 170.184 50.6587C170.168 50.6847 170.157 50.7133 170.15 50.7447C170.141 50.768 170.13 50.7837 170.117 50.7917C170.104 50.799 170.086 50.801 170.061 50.7977L169.968 50.7817Z" fill="#D7DBE6"/>
<rect x="172.482" y="34.354" width="0.305112" height="12.5104" rx="0.152556" fill="#EFF3FE"/>
<rect x="172.381" y="41.0906" width="0.508521" height="5.77401" rx="0.25426" fill="url(#paint6_linear_1_2829)"/>
<rect x="172.381" y="39.6467" width="0.508521" height="0.962336" rx="0.25426" fill="url(#paint7_linear_1_2829)"/>
<path d="M173.074 49.1107C173.074 49.236 173.06 49.3447 173.033 49.4367C173.006 49.528 172.97 49.6037 172.923 49.6637C172.876 49.7237 172.821 49.7683 172.757 49.7977C172.694 49.827 172.626 49.8417 172.553 49.8417C172.48 49.8417 172.411 49.827 172.348 49.7977C172.285 49.7683 172.231 49.7237 172.184 49.6637C172.137 49.6037 172.101 49.528 172.074 49.4367C172.047 49.3447 172.034 49.236 172.034 49.1107C172.034 48.9853 172.047 48.8767 172.074 48.7847C172.101 48.6927 172.137 48.6167 172.184 48.5567C172.231 48.496 172.285 48.451 172.348 48.4217C172.411 48.3923 172.48 48.3777 172.553 48.3777C172.626 48.3777 172.694 48.3923 172.757 48.4217C172.821 48.451 172.876 48.496 172.923 48.5567C172.97 48.6167 173.006 48.6927 173.033 48.7847C173.06 48.8767 173.074 48.9853 173.074 49.1107ZM172.889 49.1107C172.889 49.0013 172.88 48.9097 172.861 48.8357C172.843 48.761 172.818 48.701 172.787 48.6557C172.756 48.6103 172.721 48.578 172.68 48.5587C172.639 48.5387 172.597 48.5287 172.553 48.5287C172.509 48.5287 172.467 48.5387 172.426 48.5587C172.385 48.578 172.35 48.6103 172.319 48.6557C172.288 48.701 172.264 48.761 172.245 48.8357C172.227 48.9097 172.218 49.0013 172.218 49.1107C172.218 49.22 172.227 49.3117 172.245 49.3857C172.264 49.4597 172.288 49.5193 172.319 49.5647C172.35 49.61 172.385 49.6427 172.426 49.6627C172.467 49.682 172.509 49.6917 172.553 49.6917C172.597 49.6917 172.639 49.682 172.68 49.6627C172.721 49.6427 172.756 49.61 172.787 49.5647C172.818 49.5193 172.843 49.4597 172.861 49.3857C172.88 49.3117 172.889 49.22 172.889 49.1107ZM172.704 51.3097V50.7187C172.704 50.7013 172.705 50.6823 172.706 50.6617C172.707 50.641 172.709 50.62 172.712 50.5987L172.19 51.3097H172.704ZM173.077 51.3097V51.4117C173.077 51.4223 173.074 51.4313 173.067 51.4387C173.061 51.446 173.051 51.4497 173.038 51.4497H172.86V51.8267H172.704V51.4497H172.068C172.055 51.4497 172.043 51.446 172.033 51.4387C172.024 51.4307 172.018 51.421 172.015 51.4097L171.997 51.3187L172.694 50.3937H172.86V51.3097H173.077Z" fill="#D7DBE6"/>
<rect x="174.618" y="34.354" width="0.305112" height="12.5104" rx="0.152556" fill="#EFF3FE"/>
<rect x="174.517" y="40.1279" width="0.508521" height="6.73635" rx="0.25426" fill="url(#paint8_linear_1_2829)"/>
<rect x="174.517" y="35.7974" width="0.508521" height="3.84934" rx="0.25426" fill="url(#paint9_linear_1_2829)"/>
<rect x="176.754" y="34.354" width="0.305112" height="12.5104" rx="0.152556" fill="#EFF3FE"/>
<rect x="176.652" y="41.5715" width="0.508521" height="5.29285" rx="0.25426" fill="url(#paint10_linear_1_2829)"/>
<rect x="176.652" y="38.2034" width="0.508521" height="2.88701" rx="0.25426" fill="url(#paint11_linear_1_2829)"/>
<path d="M177.346 49.1107C177.346 49.236 177.332 49.3447 177.305 49.4367C177.278 49.528 177.241 49.6037 177.195 49.6637C177.148 49.7237 177.093 49.7683 177.029 49.7977C176.965 49.827 176.897 49.8417 176.825 49.8417C176.751 49.8417 176.683 49.827 176.62 49.7977C176.557 49.7683 176.502 49.7237 176.456 49.6637C176.409 49.6037 176.372 49.528 176.346 49.4367C176.319 49.3447 176.306 49.236 176.306 49.1107C176.306 48.9853 176.319 48.8767 176.346 48.7847C176.372 48.6927 176.409 48.6167 176.456 48.5567C176.502 48.496 176.557 48.451 176.62 48.4217C176.683 48.3923 176.751 48.3777 176.825 48.3777C176.897 48.3777 176.965 48.3923 177.029 48.4217C177.093 48.451 177.148 48.496 177.195 48.5567C177.241 48.6167 177.278 48.6927 177.305 48.7847C177.332 48.8767 177.346 48.9853 177.346 49.1107ZM177.161 49.1107C177.161 49.0013 177.151 48.9097 177.133 48.8357C177.115 48.761 177.09 48.701 177.059 48.6557C177.028 48.6103 176.992 48.578 176.952 48.5587C176.911 48.5387 176.869 48.5287 176.825 48.5287C176.781 48.5287 176.738 48.5387 176.698 48.5587C176.657 48.578 176.621 48.6103 176.591 48.6557C176.56 48.701 176.535 48.761 176.517 48.8357C176.499 48.9097 176.49 49.0013 176.49 49.1107C176.49 49.22 176.499 49.3117 176.517 49.3857C176.535 49.4597 176.56 49.5193 176.591 49.5647C176.621 49.61 176.657 49.6427 176.698 49.6627C176.738 49.682 176.781 49.6917 176.825 49.6917C176.869 49.6917 176.911 49.682 176.952 49.6627C176.992 49.6427 177.028 49.61 177.059 49.5647C177.09 49.5193 177.115 49.4597 177.133 49.3857C177.151 49.3117 177.161 49.22 177.161 49.1107ZM176.824 51.6947C176.872 51.6947 176.915 51.687 176.954 51.6717C176.993 51.6563 177.026 51.635 177.054 51.6077C177.082 51.5803 177.103 51.548 177.118 51.5107C177.133 51.4733 177.141 51.4327 177.141 51.3887C177.141 51.342 177.133 51.3 177.119 51.2627C177.104 51.2247 177.083 51.1927 177.056 51.1667C177.029 51.14 176.997 51.1197 176.96 51.1057C176.922 51.0917 176.881 51.0847 176.837 51.0847C176.789 51.0847 176.745 51.093 176.707 51.1097C176.668 51.1257 176.635 51.1477 176.608 51.1757C176.581 51.203 176.56 51.235 176.546 51.2717C176.532 51.3077 176.525 51.3453 176.525 51.3847C176.525 51.4307 176.531 51.4727 176.545 51.5107C176.558 51.5487 176.577 51.5813 176.603 51.6087C176.629 51.636 176.66 51.6573 176.697 51.6727C176.734 51.6873 176.776 51.6947 176.824 51.6947ZM176.72 50.9307C176.707 50.9467 176.695 50.9623 176.683 50.9777C176.671 50.9923 176.66 51.007 176.65 51.0217C176.684 50.9983 176.721 50.9803 176.762 50.9677C176.802 50.955 176.847 50.9487 176.895 50.9487C176.953 50.9487 177.007 50.9583 177.059 50.9777C177.11 50.9963 177.155 51.024 177.193 51.0607C177.231 51.0967 177.262 51.1413 177.285 51.1947C177.307 51.2473 177.319 51.3077 177.319 51.3757C177.319 51.4417 177.307 51.503 177.283 51.5597C177.259 51.6163 177.225 51.6657 177.182 51.7077C177.139 51.7497 177.087 51.7827 177.027 51.8067C176.967 51.8307 176.9 51.8427 176.828 51.8427C176.756 51.8427 176.69 51.8313 176.632 51.8087C176.573 51.7853 176.523 51.7527 176.482 51.7107C176.441 51.668 176.409 51.6167 176.387 51.5567C176.365 51.496 176.354 51.4283 176.354 51.3537C176.354 51.291 176.367 51.2243 176.395 51.1537C176.423 51.0823 176.467 51.0063 176.528 50.9257L176.892 50.4367C176.901 50.4247 176.914 50.4147 176.93 50.4067C176.946 50.398 176.965 50.3937 176.987 50.3937H177.145L176.72 50.9307Z" fill="#D7DBE6"/>
<rect x="178.89" y="34.354" width="0.305112" height="12.5104" rx="0.152556" fill="#EFF3FE"/>
<rect x="178.788" y="38.6846" width="0.508521" height="8.17985" rx="0.25426" fill="url(#paint12_linear_1_2829)"/>
<rect x="178.788" y="36.2788" width="0.508521" height="1.92467" rx="0.25426" fill="url(#paint13_linear_1_2829)"/>
<path d="M179.481 49.1107C179.481 49.236 179.468 49.3447 179.44 49.4367C179.414 49.528 179.377 49.6037 179.33 49.6637C179.284 49.7237 179.228 49.7683 179.164 49.7977C179.101 49.827 179.033 49.8417 178.96 49.8417C178.887 49.8417 178.819 49.827 178.755 49.7977C178.693 49.7683 178.638 49.7237 178.591 49.6637C178.545 49.6037 178.508 49.528 178.481 49.4367C178.455 49.3447 178.441 49.236 178.441 49.1107C178.441 48.9853 178.455 48.8767 178.481 48.7847C178.508 48.6927 178.545 48.6167 178.591 48.5567C178.638 48.496 178.693 48.451 178.755 48.4217C178.819 48.3923 178.887 48.3777 178.96 48.3777C179.033 48.3777 179.101 48.3923 179.164 48.4217C179.228 48.451 179.284 48.496 179.33 48.5567C179.377 48.6167 179.414 48.6927 179.44 48.7847C179.468 48.8767 179.481 48.9853 179.481 49.1107ZM179.296 49.1107C179.296 49.0013 179.287 48.9097 179.268 48.8357C179.25 48.761 179.226 48.701 179.194 48.6557C179.164 48.6103 179.128 48.578 179.087 48.5587C179.047 48.5387 179.004 48.5287 178.96 48.5287C178.916 48.5287 178.874 48.5387 178.833 48.5587C178.793 48.578 178.757 48.6103 178.726 48.6557C178.696 48.701 178.671 48.761 178.652 48.8357C178.634 48.9097 178.625 49.0013 178.625 49.1107C178.625 49.22 178.634 49.3117 178.652 49.3857C178.671 49.4597 178.696 49.5193 178.726 49.5647C178.757 49.61 178.793 49.6427 178.833 49.6627C178.874 49.682 178.916 49.6917 178.96 49.6917C179.004 49.6917 179.047 49.682 179.087 49.6627C179.128 49.6427 179.164 49.61 179.194 49.5647C179.226 49.5193 179.25 49.4597 179.268 49.3857C179.287 49.3117 179.296 49.22 179.296 49.1107ZM179.462 50.3937V50.4737C179.462 50.4963 179.46 50.515 179.454 50.5297C179.45 50.5443 179.445 50.5567 179.44 50.5667L178.846 51.7637C178.838 51.781 178.826 51.796 178.81 51.8087C178.795 51.8207 178.775 51.8267 178.749 51.8267H178.621L179.223 50.6447C179.232 50.628 179.241 50.6127 179.25 50.5987C179.26 50.5847 179.27 50.5713 179.28 50.5587H178.532C178.521 50.5587 178.511 50.5543 178.502 50.5457C178.494 50.5363 178.489 50.526 178.489 50.5147V50.3937H179.462Z" fill="#D7DBE6"/>
<rect x="180.924" y="34.354" width="0.305112" height="12.5104" rx="0.152556" fill="#EFF3FE"/>
<rect x="180.822" y="41.0906" width="0.508521" height="5.77401" rx="0.25426" fill="url(#paint14_linear_1_2829)"/>
<rect x="180.822" y="38.6846" width="0.508521" height="1.92467" rx="0.25426" fill="url(#paint15_linear_1_2829)"/>
<path d="M181.516 49.1107C181.516 49.236 181.502 49.3447 181.475 49.4367C181.448 49.528 181.411 49.6037 181.365 49.6637C181.318 49.7237 181.263 49.7683 181.199 49.7977C181.135 49.827 181.067 49.8417 180.995 49.8417C180.921 49.8417 180.853 49.827 180.79 49.7977C180.727 49.7683 180.672 49.7237 180.626 49.6637C180.579 49.6037 180.542 49.528 180.516 49.4367C180.489 49.3447 180.476 49.236 180.476 49.1107C180.476 48.9853 180.489 48.8767 180.516 48.7847C180.542 48.6927 180.579 48.6167 180.626 48.5567C180.672 48.496 180.727 48.451 180.79 48.4217C180.853 48.3923 180.921 48.3777 180.995 48.3777C181.067 48.3777 181.135 48.3923 181.199 48.4217C181.263 48.451 181.318 48.496 181.365 48.5567C181.411 48.6167 181.448 48.6927 181.475 48.7847C181.502 48.8767 181.516 48.9853 181.516 49.1107ZM181.331 49.1107C181.331 49.0013 181.321 48.9097 181.303 48.8357C181.285 48.761 181.26 48.701 181.229 48.6557C181.198 48.6103 181.162 48.578 181.122 48.5587C181.081 48.5387 181.039 48.5287 180.995 48.5287C180.951 48.5287 180.908 48.5387 180.868 48.5587C180.827 48.578 180.791 48.6103 180.761 48.6557C180.73 48.701 180.705 48.761 180.687 48.8357C180.669 48.9097 180.66 49.0013 180.66 49.1107C180.66 49.22 180.669 49.3117 180.687 49.3857C180.705 49.4597 180.73 49.5193 180.761 49.5647C180.791 49.61 180.827 49.6427 180.868 49.6627C180.908 49.682 180.951 49.6917 180.995 49.6917C181.039 49.6917 181.081 49.682 181.122 49.6627C181.162 49.6427 181.198 49.61 181.229 49.5647C181.26 49.5193 181.285 49.4597 181.303 49.3857C181.321 49.3117 181.331 49.22 181.331 49.1107ZM180.996 51.7007C181.042 51.7007 181.084 51.6943 181.121 51.6817C181.158 51.6683 181.189 51.65 181.215 51.6267C181.241 51.6027 181.26 51.5743 181.274 51.5417C181.288 51.5083 181.295 51.4717 181.295 51.4317C181.295 51.3823 181.286 51.3403 181.27 51.3057C181.254 51.2703 181.232 51.2417 181.204 51.2197C181.176 51.1977 181.145 51.1817 181.109 51.1717C181.073 51.161 181.035 51.1557 180.996 51.1557C180.956 51.1557 180.919 51.161 180.883 51.1717C180.847 51.1817 180.815 51.1977 180.787 51.2197C180.759 51.2417 180.737 51.2703 180.721 51.3057C180.705 51.3403 180.697 51.3823 180.697 51.4317C180.697 51.4717 180.703 51.5083 180.717 51.5417C180.731 51.5743 180.75 51.6027 180.776 51.6267C180.802 51.65 180.833 51.6683 180.87 51.6817C180.907 51.6943 180.949 51.7007 180.996 51.7007ZM180.996 50.5157C180.953 50.5157 180.915 50.522 180.883 50.5347C180.851 50.5473 180.824 50.5647 180.802 50.5867C180.78 50.6087 180.764 50.6343 180.753 50.6637C180.742 50.693 180.737 50.7243 180.737 50.7577C180.737 50.7903 180.741 50.822 180.751 50.8527C180.76 50.8833 180.775 50.9107 180.796 50.9347C180.816 50.958 180.843 50.977 180.876 50.9917C180.909 51.0057 180.949 51.0127 180.996 51.0127C181.042 51.0127 181.082 51.0057 181.115 50.9917C181.148 50.977 181.175 50.958 181.196 50.9347C181.216 50.9107 181.231 50.8833 181.241 50.8527C181.25 50.822 181.255 50.7903 181.255 50.7577C181.255 50.7243 181.249 50.693 181.238 50.6637C181.227 50.6343 181.211 50.6087 181.189 50.5867C181.167 50.5647 181.14 50.5473 181.108 50.5347C181.076 50.522 181.038 50.5157 180.996 50.5157ZM181.201 51.0797C181.29 51.105 181.359 51.1473 181.407 51.2067C181.455 51.266 181.479 51.342 181.479 51.4347C181.479 51.4973 181.467 51.554 181.443 51.6047C181.419 51.6547 181.386 51.6973 181.344 51.7327C181.302 51.768 181.251 51.7953 181.192 51.8147C181.132 51.8333 181.067 51.8427 180.996 51.8427C180.924 51.8427 180.859 51.8333 180.8 51.8147C180.74 51.7953 180.689 51.768 180.647 51.7327C180.604 51.6973 180.571 51.6547 180.548 51.6047C180.524 51.554 180.513 51.4973 180.513 51.4347C180.513 51.342 180.537 51.266 180.585 51.2067C180.633 51.1473 180.701 51.105 180.791 51.0797C180.715 51.0517 180.658 51.01 180.62 50.9547C180.582 50.8987 180.563 50.832 180.563 50.7547C180.563 50.702 180.573 50.6527 180.594 50.6067C180.614 50.5607 180.644 50.5207 180.682 50.4867C180.72 50.4527 180.765 50.426 180.818 50.4067C180.871 50.3873 180.93 50.3777 180.996 50.3777C181.06 50.3777 181.119 50.3873 181.173 50.4067C181.226 50.426 181.272 50.4527 181.31 50.4867C181.348 50.5207 181.377 50.5607 181.398 50.6067C181.418 50.6527 181.429 50.702 181.429 50.7547C181.429 50.832 181.409 50.8987 181.371 50.9547C181.333 51.01 181.276 51.0517 181.201 51.0797Z" fill="#D7DBE6"/>
<rect x="183.06" y="34.354" width="0.305112" height="12.5104" rx="0.152556" fill="#EFF3FE"/>
<rect x="182.958" y="45.4207" width="0.508521" height="1.4435" rx="0.25426" fill="url(#paint16_linear_1_2829)"/>
<rect x="182.958" y="37.7222" width="0.508521" height="7.21752" rx="0.25426" fill="url(#paint17_linear_1_2829)"/>
<path d="M183.651 49.1107C183.651 49.236 183.638 49.3447 183.61 49.4367C183.584 49.528 183.547 49.6037 183.5 49.6637C183.454 49.7237 183.398 49.7683 183.334 49.7977C183.271 49.827 183.203 49.8417 183.13 49.8417C183.057 49.8417 182.989 49.827 182.925 49.7977C182.863 49.7683 182.808 49.7237 182.761 49.6637C182.715 49.6037 182.678 49.528 182.651 49.4367C182.625 49.3447 182.611 49.236 182.611 49.1107C182.611 48.9853 182.625 48.8767 182.651 48.7847C182.678 48.6927 182.715 48.6167 182.761 48.5567C182.808 48.496 182.863 48.451 182.925 48.4217C182.989 48.3923 183.057 48.3777 183.13 48.3777C183.203 48.3777 183.271 48.3923 183.334 48.4217C183.398 48.451 183.454 48.496 183.5 48.5567C183.547 48.6167 183.584 48.6927 183.61 48.7847C183.638 48.8767 183.651 48.9853 183.651 49.1107ZM183.466 49.1107C183.466 49.0013 183.457 48.9097 183.438 48.8357C183.42 48.761 183.396 48.701 183.364 48.6557C183.334 48.6103 183.298 48.578 183.257 48.5587C183.217 48.5387 183.174 48.5287 183.13 48.5287C183.086 48.5287 183.044 48.5387 183.003 48.5587C182.963 48.578 182.927 48.6103 182.896 48.6557C182.866 48.701 182.841 48.761 182.822 48.8357C182.804 48.9097 182.795 49.0013 182.795 49.1107C182.795 49.22 182.804 49.3117 182.822 49.3857C182.841 49.4597 182.866 49.5193 182.896 49.5647C182.927 49.61 182.963 49.6427 183.003 49.6627C183.044 49.682 183.086 49.6917 183.13 49.6917C183.174 49.6917 183.217 49.682 183.257 49.6627C183.298 49.6427 183.334 49.61 183.364 49.5647C183.396 49.5193 183.42 49.4597 183.438 49.3857C183.457 49.3117 183.466 49.22 183.466 49.1107ZM182.834 50.8147C182.834 50.86 182.841 50.9007 182.853 50.9367C182.867 50.972 182.885 51.002 182.909 51.0267C182.934 51.0513 182.964 51.07 182.998 51.0827C183.034 51.0953 183.073 51.1017 183.116 51.1017C183.164 51.1017 183.207 51.094 183.243 51.0787C183.281 51.0627 183.312 51.0417 183.337 51.0157C183.363 50.9897 183.382 50.9597 183.395 50.9257C183.409 50.8917 183.415 50.8563 183.415 50.8197C183.415 50.775 183.408 50.7347 183.393 50.6987C183.379 50.662 183.36 50.631 183.334 50.6057C183.309 50.5803 183.279 50.561 183.243 50.5477C183.209 50.5337 183.17 50.5267 183.128 50.5267C183.084 50.5267 183.044 50.534 183.008 50.5487C182.972 50.5627 182.941 50.5823 182.915 50.6077C182.889 50.633 182.869 50.6633 182.855 50.6987C182.841 50.734 182.834 50.7727 182.834 50.8147ZM183.25 51.2557C183.265 51.2363 183.279 51.218 183.291 51.2007C183.304 51.1833 183.316 51.166 183.327 51.1487C183.291 51.178 183.249 51.2003 183.203 51.2157C183.157 51.231 183.109 51.2387 183.057 51.2387C183.003 51.2387 182.952 51.2297 182.903 51.2117C182.855 51.1937 182.813 51.1673 182.776 51.1327C182.74 51.0973 182.71 51.0543 182.688 51.0037C182.667 50.9523 182.656 50.8937 182.656 50.8277C182.656 50.765 182.668 50.7063 182.691 50.6517C182.715 50.597 182.747 50.5493 182.789 50.5087C182.831 50.468 182.881 50.436 182.939 50.4127C182.997 50.3893 183.061 50.3777 183.13 50.3777C183.199 50.3777 183.261 50.389 183.317 50.4117C183.373 50.4343 183.421 50.466 183.461 50.5067C183.501 50.5473 183.532 50.596 183.553 50.6527C183.575 50.7093 183.586 50.772 183.586 50.8407C183.586 50.882 183.582 50.9213 183.574 50.9587C183.567 50.9953 183.556 51.0317 183.541 51.0677C183.527 51.103 183.51 51.1383 183.489 51.1737C183.469 51.2083 183.445 51.244 183.419 51.2807L183.07 51.7847C183.062 51.7973 183.049 51.8077 183.033 51.8157C183.017 51.823 182.999 51.8267 182.978 51.8267H182.814L183.25 51.2557Z" fill="#D7DBE6"/>
<rect x="185.094" y="34.354" width="0.305112" height="12.5104" rx="0.152556" fill="#EFF3FE"/>
<rect x="184.992" y="42.0527" width="0.508521" height="4.81168" rx="0.25426" fill="url(#paint18_linear_1_2829)"/>
<rect x="184.992" y="36.7598" width="0.508521" height="4.81168" rx="0.25426" fill="url(#paint19_linear_1_2829)"/>
<path d="M185.705 49.6907V49.8267H184.937V49.6907H185.244V48.7137C185.244 48.6843 185.245 48.6547 185.247 48.6247L184.992 48.8437C184.983 48.851 184.975 48.8557 184.966 48.8577C184.957 48.859 184.949 48.859 184.942 48.8577C184.935 48.8563 184.928 48.8537 184.921 48.8497C184.915 48.8457 184.91 48.8413 184.907 48.8367L184.851 48.7597L185.278 48.3907H185.423V49.6907H185.705ZM185.787 51.1107C185.787 51.236 185.773 51.3447 185.746 51.4367C185.719 51.528 185.683 51.6037 185.636 51.6637C185.589 51.7237 185.534 51.7683 185.47 51.7977C185.407 51.827 185.339 51.8417 185.266 51.8417C185.193 51.8417 185.124 51.827 185.061 51.7977C184.998 51.7683 184.944 51.7237 184.897 51.6637C184.85 51.6037 184.814 51.528 184.787 51.4367C184.76 51.3447 184.747 51.236 184.747 51.1107C184.747 50.9853 184.76 50.8767 184.787 50.7847C184.814 50.6927 184.85 50.6167 184.897 50.5567C184.944 50.496 184.998 50.451 185.061 50.4217C185.124 50.3923 185.193 50.3777 185.266 50.3777C185.339 50.3777 185.407 50.3923 185.47 50.4217C185.534 50.451 185.589 50.496 185.636 50.5567C185.683 50.6167 185.719 50.6927 185.746 50.7847C185.773 50.8767 185.787 50.9853 185.787 51.1107ZM185.602 51.1107C185.602 51.0013 185.593 50.9097 185.574 50.8357C185.556 50.761 185.531 50.701 185.5 50.6557C185.469 50.6103 185.434 50.578 185.393 50.5587C185.352 50.5387 185.31 50.5287 185.266 50.5287C185.222 50.5287 185.18 50.5387 185.139 50.5587C185.098 50.578 185.063 50.6103 185.032 50.6557C185.001 50.701 184.977 50.761 184.958 50.8357C184.94 50.9097 184.931 51.0013 184.931 51.1107C184.931 51.22 184.94 51.3117 184.958 51.3857C184.977 51.4597 185.001 51.5193 185.032 51.5647C185.063 51.61 185.098 51.6427 185.139 51.6627C185.18 51.682 185.222 51.6917 185.266 51.6917C185.31 51.6917 185.352 51.682 185.393 51.6627C185.434 51.6427 185.469 51.61 185.5 51.5647C185.531 51.5193 185.556 51.4597 185.574 51.3857C185.593 51.3117 185.602 51.22 185.602 51.1107Z" fill="#D7DBE6"/>
<rect x="186.924" y="34.354" width="0.305112" height="12.5104" rx="0.152556" fill="#EFF3FE"/>
<rect x="186.822" y="43.0151" width="0.508521" height="3.84934" rx="0.25426" fill="url(#paint20_linear_1_2829)"/>
<rect x="186.822" y="38.6846" width="0.508521" height="3.84934" rx="0.25426" fill="url(#paint21_linear_1_2829)"/>
<path d="M187.637 49.6907V49.8267H186.869V49.6907H187.176V48.7137C187.176 48.6843 187.177 48.6547 187.179 48.6247L186.924 48.8437C186.915 48.851 186.907 48.8557 186.898 48.8577C186.889 48.859 186.881 48.859 186.874 48.8577C186.867 48.8563 186.86 48.8537 186.853 48.8497C186.847 48.8457 186.842 48.8413 186.839 48.8367L186.783 48.7597L187.21 48.3907H187.355V49.6907H187.637ZM187.637 51.6907V51.8267H186.869V51.6907H187.176V50.7137C187.176 50.6843 187.177 50.6547 187.179 50.6247L186.924 50.8437C186.915 50.851 186.907 50.8557 186.898 50.8577C186.889 50.859 186.881 50.859 186.874 50.8577C186.867 50.8563 186.86 50.8537 186.853 50.8497C186.847 50.8457 186.842 50.8413 186.839 50.8367L186.783 50.7597L187.21 50.3907H187.355V51.6907H187.637Z" fill="#D7DBE6"/>
<rect x="188.857" y="34.354" width="0.305112" height="12.5104" rx="0.152556" fill="#EFF3FE"/>
<rect x="188.755" y="43.0151" width="0.508521" height="3.84934" rx="0.25426" fill="url(#paint22_linear_1_2829)"/>
<rect x="188.755" y="34.8352" width="0.508521" height="7.69868" rx="0.25426" fill="url(#paint23_linear_1_2829)"/>
<path d="M189.468 49.6907V49.8267H188.7V49.6907H189.007V48.7137C189.007 48.6843 189.008 48.6547 189.01 48.6247L188.755 48.8437C188.747 48.851 188.738 48.8557 188.729 48.8577C188.721 48.859 188.713 48.859 188.705 48.8577C188.698 48.8563 188.691 48.8537 188.684 48.8497C188.678 48.8457 188.674 48.8413 188.67 48.8367L188.614 48.7597L189.041 48.3907H189.186V49.6907H189.468ZM189.437 51.6577C189.457 51.6577 189.472 51.6633 189.483 51.6747C189.495 51.686 189.5 51.7007 189.5 51.7187V51.8267H188.544V51.7657C188.544 51.753 188.547 51.74 188.552 51.7267C188.558 51.7133 188.566 51.701 188.577 51.6897L189.036 51.2287C189.074 51.19 189.109 51.153 189.14 51.1177C189.172 51.0817 189.198 51.0457 189.22 51.0097C189.242 50.9737 189.259 50.9373 189.271 50.9007C189.283 50.8633 189.289 50.8237 189.289 50.7817C189.289 50.7397 189.283 50.703 189.269 50.6717C189.256 50.6397 189.238 50.6133 189.214 50.5927C189.192 50.572 189.165 50.5567 189.133 50.5467C189.102 50.536 189.068 50.5307 189.032 50.5307C188.996 50.5307 188.962 50.536 188.931 50.5467C188.901 50.5573 188.873 50.5723 188.849 50.5917C188.826 50.6103 188.806 50.6327 188.79 50.6587C188.774 50.6847 188.763 50.7133 188.756 50.7447C188.748 50.768 188.737 50.7837 188.723 50.7917C188.71 50.799 188.691 50.801 188.666 50.7977L188.573 50.7817C188.583 50.7163 188.601 50.6587 188.627 50.6087C188.655 50.558 188.689 50.5157 188.729 50.4817C188.771 50.4477 188.818 50.422 188.87 50.4047C188.923 50.3867 188.98 50.3777 189.041 50.3777C189.102 50.3777 189.159 50.3867 189.211 50.4047C189.264 50.4227 189.31 50.449 189.348 50.4837C189.387 50.5177 189.417 50.5593 189.439 50.6087C189.461 50.658 189.472 50.714 189.472 50.7767C189.472 50.83 189.464 50.8797 189.448 50.9257C189.432 50.971 189.411 51.0143 189.383 51.0557C189.356 51.097 189.324 51.1373 189.288 51.1767C189.253 51.216 189.215 51.2557 189.175 51.2957L188.797 51.6817C188.824 51.6743 188.851 51.6687 188.878 51.6647C188.906 51.66 188.932 51.6577 188.957 51.6577H189.437Z" fill="#D7DBE6"/>
<rect x="27.4839" y="68.0752" width="61.4403" height="59.9871" rx="8" fill="#F9F4F4"/>
<rect x="97.1665" y="68.0752" width="100.402" height="33.7006" rx="8" fill="#F9F4F4"/>
<rect x="97.1665" y="105.146" width="100.402" height="22.9164" rx="8" fill="#F9F4F4"/>
<rect x="193.951" y="8.85596" width="12.3061" height="2.95201" rx="1.47601" fill="#C4C4C4"/>
<ellipse cx="17.9734" cy="9.96293" rx="2.05102" ry="1.84501" fill="#C4C4C4"/>
<ellipse cx="23.7165" cy="9.96293" rx="2.05102" ry="1.84501" fill="#C4C4C4"/>
<ellipse cx="29.4592" cy="9.96293" rx="2.05102" ry="1.84501" fill="#C4C4C4"/>
<defs>
<filter id="filter0_d_1_2829" x="0" y="0" width="212" height="144.531" filterUnits="userSpaceOnUse" color-interpolation-filters="sRGB">
<feFlood flood-opacity="0" result="BackgroundImageFix"/>
<feColorMatrix in="SourceAlpha" type="matrix" values="0 0 0 0 0 0 0 0 0 0 0 0 0 0 0 0 0 0 127 0" result="hardAlpha"/>
<feOffset dx="-7" dy="4"/>
<feGaussianBlur stdDeviation="2"/>
<feComposite in2="hardAlpha" operator="out"/>
<feColorMatrix type="matrix" values="0 0 0 0 0 0 0 0 0 0 0 0 0 0 0 0 0 0 0.25 0"/>
<feBlend mode="normal" in2="BackgroundImageFix" result="effect1_dropShadow_1_2829"/>
<feBlend mode="normal" in="SourceGraphic" in2="effect1_dropShadow_1_2829" result="shape"/>
</filter>
<linearGradient id="paint0_linear_1_2829" x1="166.329" y1="40.1279" x2="166.329" y2="46.8643" gradientUnits="userSpaceOnUse">
<stop stop-color="#EED5DB"/>
<stop offset="1" stop-color="#F1D1E6"/>
</linearGradient>
<linearGradient id="paint1_linear_1_2829" x1="166.329" y1="38.2034" x2="166.329" y2="39.6469" gradientUnits="userSpaceOnUse">
<stop stop-color="#F6E5EB"/>
<stop offset="1" stop-color="#D6CED0"/>
</linearGradient>
<linearGradient id="paint2_linear_1_2829" x1="168.364" y1="43.9775" x2="168.364" y2="46.8645" gradientUnits="userSpaceOnUse">
<stop stop-color="#EED5DB"/>
<stop offset="1" stop-color="#F1D1E6"/>
</linearGradient>
<linearGradient id="paint3_linear_1_2829" x1="168.364" y1="36.2788" x2="168.364" y2="43.4963" gradientUnits="userSpaceOnUse">
<stop stop-color="#F6E5EB"/>
<stop offset="1" stop-color="#D6CED0"/>
</linearGradient>
<linearGradient id="paint4_linear_1_2829" x1="170.499" y1="41.0906" x2="170.499" y2="46.8646" gradientUnits="userSpaceOnUse">
<stop stop-color="#EED5DB"/>
<stop offset="1" stop-color="#F1D1E6"/>
</linearGradient>
<linearGradient id="paint5_linear_1_2829" x1="170.499" y1="36.7598" x2="170.499" y2="40.6091" gradientUnits="userSpaceOnUse">
<stop stop-color="#F6E5EB"/>
<stop offset="1" stop-color="#D6CED0"/>
</linearGradient>
<linearGradient id="paint6_linear_1_2829" x1="172.635" y1="41.0906" x2="172.635" y2="46.8646" gradientUnits="userSpaceOnUse">
<stop stop-color="#EED5DB"/>
<stop offset="1" stop-color="#F1D1E6"/>
</linearGradient>
<linearGradient id="paint7_linear_1_2829" x1="172.635" y1="39.6467" x2="172.635" y2="40.6091" gradientUnits="userSpaceOnUse">
<stop stop-color="#F6E5EB"/>
<stop offset="1" stop-color="#D6CED0"/>
</linearGradient>
<linearGradient id="paint8_linear_1_2829" x1="174.771" y1="40.1279" x2="174.771" y2="46.8643" gradientUnits="userSpaceOnUse">
<stop stop-color="#EED5DB"/>
<stop offset="1" stop-color="#F1D1E6"/>
</linearGradient>
<linearGradient id="paint9_linear_1_2829" x1="174.771" y1="35.7974" x2="174.771" y2="39.6467" gradientUnits="userSpaceOnUse">
<stop stop-color="#F6E5EB"/>
<stop offset="1" stop-color="#D6CED0"/>
</linearGradient>
<linearGradient id="paint10_linear_1_2829" x1="176.907" y1="41.5715" x2="176.907" y2="46.8644" gradientUnits="userSpaceOnUse">
<stop stop-color="#EED5DB"/>
<stop offset="1" stop-color="#F1D1E6"/>
</linearGradient>
<linearGradient id="paint11_linear_1_2829" x1="176.907" y1="38.2034" x2="176.907" y2="41.0904" gradientUnits="userSpaceOnUse">
<stop stop-color="#F6E5EB"/>
<stop offset="1" stop-color="#D6CED0"/>
</linearGradient>
<linearGradient id="paint12_linear_1_2829" x1="179.042" y1="38.6846" x2="179.042" y2="46.8644" gradientUnits="userSpaceOnUse">
<stop stop-color="#EED5DB"/>
<stop offset="1" stop-color="#F1D1E6"/>
</linearGradient>
<linearGradient id="paint13_linear_1_2829" x1="179.042" y1="36.2788" x2="179.042" y2="38.2035" gradientUnits="userSpaceOnUse">
<stop stop-color="#F6E5EB"/>
<stop offset="1" stop-color="#D6CED0"/>
</linearGradient>
<linearGradient id="paint14_linear_1_2829" x1="181.077" y1="41.0906" x2="181.077" y2="46.8646" gradientUnits="userSpaceOnUse">
<stop stop-color="#EED5DB"/>
<stop offset="1" stop-color="#F1D1E6"/>
</linearGradient>
<linearGradient id="paint15_linear_1_2829" x1="181.077" y1="38.6846" x2="181.077" y2="40.6092" gradientUnits="userSpaceOnUse">
<stop stop-color="#F6E5EB"/>
<stop offset="1" stop-color="#D6CED0"/>
</linearGradient>
<linearGradient id="paint16_linear_1_2829" x1="183.212" y1="45.4207" x2="183.212" y2="46.8642" gradientUnits="userSpaceOnUse">
<stop stop-color="#EED5DB"/>
<stop offset="1" stop-color="#F1D1E6"/>
</linearGradient>
<linearGradient id="paint17_linear_1_2829" x1="183.212" y1="37.7222" x2="183.212" y2="44.9397" gradientUnits="userSpaceOnUse">
<stop stop-color="#F6E5EB"/>
<stop offset="1" stop-color="#D6CED0"/>
</linearGradient>
<linearGradient id="paint18_linear_1_2829" x1="185.246" y1="42.0527" x2="185.246" y2="46.8644" gradientUnits="userSpaceOnUse">
<stop stop-color="#EED5DB"/>
<stop offset="1" stop-color="#F1D1E6"/>
</linearGradient>
<linearGradient id="paint19_linear_1_2829" x1="185.246" y1="36.7598" x2="185.246" y2="41.5714" gradientUnits="userSpaceOnUse">
<stop stop-color="#F6E5EB"/>
<stop offset="1" stop-color="#D6CED0"/>
</linearGradient>
<linearGradient id="paint20_linear_1_2829" x1="187.077" y1="43.0151" x2="187.077" y2="46.8645" gradientUnits="userSpaceOnUse">
<stop stop-color="#EED5DB"/>
<stop offset="1" stop-color="#F1D1E6"/>
</linearGradient>
<linearGradient id="paint21_linear_1_2829" x1="187.077" y1="38.6846" x2="187.077" y2="42.5339" gradientUnits="userSpaceOnUse">
<stop stop-color="#F6E5EB"/>
<stop offset="1" stop-color="#D6CED0"/>
</linearGradient>
<linearGradient id="paint22_linear_1_2829" x1="189.01" y1="43.0151" x2="189.01" y2="46.8645" gradientUnits="userSpaceOnUse">
<stop stop-color="#EED5DB"/>
<stop offset="1" stop-color="#F1D1E6"/>
</linearGradient>
<linearGradient id="paint23_linear_1_2829" x1="189.01" y1="34.8352" x2="189.01" y2="42.5339" gradientUnits="userSpaceOnUse">
<stop stop-color="#F6E5EB"/>
<stop offset="1" stop-color="#D6CED0"/>
</linearGradient>
</defs>
</svg>
