<svg width="270" height="203" viewBox="0 0 270 203" fill="none" xmlns="http://www.w3.org/2000/svg">
<rect x="0.800293" width="268.26" height="202.564" fill="#F1F1F1"/>
<rect x="7.37012" y="29.563" width="255.121" height="168.621" fill="white"/>
<rect x="162.8" y="52" width="83" height="6" rx="3" fill="#F1F1F1"/>
<rect x="30.8003" y="125" width="45" height="48" rx="5" transform="rotate(-90 30.8003 125)" fill="#BE3788"/>
<rect x="30.8003" y="176" width="45" height="48" rx="5" transform="rotate(-90 30.8003 176)" fill="#F1F1F1"/>
<rect x="86.8003" y="125" width="45" height="47" rx="5" transform="rotate(-90 86.8003 125)" fill="#F1F1F1"/>
<rect x="86.8003" y="176" width="45" height="47" rx="5" transform="rotate(-90 86.8003 176)" fill="#F1F1F1"/>
<rect x="141.8" y="125" width="45" height="47" rx="5" transform="rotate(-90 141.8 125)" fill="#F1F1F1"/>
<rect x="141.8" y="176" width="45" height="47" rx="5" transform="rotate(-90 141.8 176)" fill="#F1F1F1"/>
<rect x="196.8" y="125" width="45" height="48" rx="5" transform="rotate(-90 196.8 125)" fill="#F1F1F1"/>
<rect x="244.972" y="13.1392" width="16.4241" height="4.37976" rx="2.18988" fill="#C4C4C4"/>
<rect x="30.8003" y="48" width="47.0824" height="4.37976" rx="2.18988" fill="#F1F1F1"/>
<rect x="30.8003" y="55.6641" width="47.0824" height="4.37976" rx="2.18988" fill="#F1F1F1"/>
<rect x="30.8003" y="63.3291" width="26.2786" height="4.37976" rx="2.18988" fill="#F1F1F1"/>
<circle cx="10.1075" cy="14.7813" r="2.73735" fill="#C4C4C4"/>
<circle cx="17.7715" cy="14.7813" r="2.73735" fill="#C4C4C4"/>
<circle cx="25.4366" cy="14.7813" r="2.73735" fill="#C4C4C4"/>
</svg>
