<svg width="210" height="186" viewBox="0 0 210 186" fill="none" xmlns="http://www.w3.org/2000/svg">
<g filter="url(#filter0_d_73_2469)">
<rect x="16" y="11" width="168" height="144" rx="15" fill="white"/>
</g>
<rect x="34" y="34" width="130.298" height="19.7089" rx="4" fill="#B73484"/>
<rect x="34" y="79" width="130.298" height="19.7089" rx="4" fill="#B73484"/>
<rect x="34" y="122" width="130.298" height="19.7089" rx="4" fill="#B73484"/>
<path d="M34.924 30C34.8213 30 34.742 29.9743 34.686 29.923C34.6347 29.867 34.609 29.7877 34.609 29.685V25.38C34.609 25.2773 34.6347 25.2003 34.686 25.149C34.742 25.093 34.8213 25.065 34.924 25.065H36.275C37.073 25.065 37.689 25.275 38.123 25.695C38.557 26.115 38.774 26.7263 38.774 27.529C38.774 27.9303 38.718 28.285 38.606 28.593C38.4987 28.8963 38.3377 29.153 38.123 29.363C37.9083 29.573 37.647 29.7317 37.339 29.839C37.031 29.9463 36.6763 30 36.275 30H34.924ZM35.183 29.51H36.233C36.5597 29.51 36.842 29.468 37.08 29.384C37.3227 29.3 37.5233 29.1763 37.682 29.013C37.8453 28.8497 37.9667 28.6443 38.046 28.397C38.1253 28.145 38.165 27.8557 38.165 27.529C38.165 26.871 38.004 26.3787 37.682 26.052C37.36 25.7207 36.877 25.555 36.233 25.555H35.183V29.51ZM40.7983 30.063C40.565 30.063 40.355 30.0187 40.1683 29.93C39.9863 29.8367 39.8416 29.7107 39.7343 29.552C39.627 29.3933 39.5733 29.216 39.5733 29.02C39.5733 28.768 39.6363 28.5697 39.7623 28.425C39.893 28.2803 40.1053 28.1777 40.3993 28.117C40.698 28.0563 41.104 28.026 41.6173 28.026H41.9323V28.397H41.6243C41.2463 28.397 40.9476 28.4157 40.7283 28.453C40.5136 28.4857 40.362 28.544 40.2733 28.628C40.1893 28.712 40.1473 28.831 40.1473 28.985C40.1473 29.1763 40.2126 29.3327 40.3433 29.454C40.4786 29.5753 40.6606 29.636 40.8893 29.636C41.076 29.636 41.2393 29.5917 41.3793 29.503C41.524 29.4143 41.636 29.293 41.7153 29.139C41.7993 28.985 41.8413 28.8077 41.8413 28.607V27.809C41.8413 27.5197 41.783 27.312 41.6663 27.186C41.5496 27.0553 41.3583 26.99 41.0923 26.99C40.929 26.99 40.7656 27.011 40.6023 27.053C40.439 27.095 40.2663 27.1627 40.0843 27.256C40.019 27.2887 39.963 27.3003 39.9163 27.291C39.8696 27.277 39.8323 27.2513 39.8043 27.214C39.7763 27.1767 39.76 27.1347 39.7553 27.088C39.7506 27.0367 39.76 26.9877 39.7833 26.941C39.8113 26.8943 39.8533 26.857 39.9093 26.829C40.1146 26.7263 40.3176 26.6517 40.5183 26.605C40.719 26.5583 40.9103 26.535 41.0923 26.535C41.3863 26.535 41.629 26.584 41.8203 26.682C42.0116 26.7753 42.154 26.92 42.2473 27.116C42.3406 27.3073 42.3873 27.5547 42.3873 27.858V29.755C42.3873 29.8483 42.364 29.9207 42.3173 29.972C42.2753 30.0233 42.2123 30.049 42.1283 30.049C42.0396 30.049 41.972 30.0233 41.9253 29.972C41.8786 29.9207 41.8553 29.8483 41.8553 29.755V29.209H41.9183C41.881 29.3863 41.8086 29.538 41.7013 29.664C41.5986 29.79 41.4703 29.888 41.3163 29.958C41.1623 30.028 40.9896 30.063 40.7983 30.063ZM44.8042 30.063C44.5382 30.063 44.3142 30.0163 44.1322 29.923C43.9549 29.825 43.8219 29.685 43.7332 29.503C43.6446 29.3163 43.6002 29.09 43.6002 28.824V27.039H43.1312C43.0519 27.039 42.9912 27.0203 42.9492 26.983C42.9072 26.941 42.8862 26.885 42.8862 26.815C42.8862 26.745 42.9072 26.6913 42.9492 26.654C42.9912 26.6167 43.0519 26.598 43.1312 26.598H43.6002V25.793C43.6002 25.6997 43.6259 25.6297 43.6772 25.583C43.7286 25.5317 43.7986 25.506 43.8872 25.506C43.9759 25.506 44.0436 25.5317 44.0902 25.583C44.1416 25.6297 44.1672 25.6997 44.1672 25.793V26.598H45.0492C45.1286 26.598 45.1892 26.6167 45.2312 26.654C45.2732 26.6913 45.2942 26.745 45.2942 26.815C45.2942 26.885 45.2732 26.941 45.2312 26.983C45.1892 27.0203 45.1286 27.039 45.0492 27.039H44.1672V28.768C44.1672 29.034 44.2232 29.237 44.3352 29.377C44.4472 29.5123 44.6292 29.58 44.8812 29.58C44.9699 29.58 45.0446 29.5707 45.1052 29.552C45.1706 29.5333 45.2242 29.524 45.2662 29.524C45.3082 29.5193 45.3432 29.5333 45.3712 29.566C45.3992 29.5987 45.4132 29.6547 45.4132 29.734C45.4132 29.79 45.4016 29.8413 45.3782 29.888C45.3596 29.9347 45.3246 29.9673 45.2732 29.986C45.2172 30.0047 45.1426 30.021 45.0492 30.035C44.9606 30.0537 44.8789 30.063 44.8042 30.063ZM46.9575 30.063C46.7242 30.063 46.5142 30.0187 46.3275 29.93C46.1455 29.8367 46.0008 29.7107 45.8935 29.552C45.7862 29.3933 45.7325 29.216 45.7325 29.02C45.7325 28.768 45.7955 28.5697 45.9215 28.425C46.0522 28.2803 46.2645 28.1777 46.5585 28.117C46.8572 28.0563 47.2632 28.026 47.7765 28.026H48.0915V28.397H47.7835C47.4055 28.397 47.1068 28.4157 46.8875 28.453C46.6728 28.4857 46.5212 28.544 46.4325 28.628C46.3485 28.712 46.3065 28.831 46.3065 28.985C46.3065 29.1763 46.3718 29.3327 46.5025 29.454C46.6378 29.5753 46.8198 29.636 47.0485 29.636C47.2352 29.636 47.3985 29.5917 47.5385 29.503C47.6832 29.4143 47.7952 29.293 47.8745 29.139C47.9585 28.985 48.0005 28.8077 48.0005 28.607V27.809C48.0005 27.5197 47.9422 27.312 47.8255 27.186C47.7088 27.0553 47.5175 26.99 47.2515 26.99C47.0882 26.99 46.9248 27.011 46.7615 27.053C46.5982 27.095 46.4255 27.1627 46.2435 27.256C46.1782 27.2887 46.1222 27.3003 46.0755 27.291C46.0288 27.277 45.9915 27.2513 45.9635 27.214C45.9355 27.1767 45.9192 27.1347 45.9145 27.088C45.9098 27.0367 45.9192 26.9877 45.9425 26.941C45.9705 26.8943 46.0125 26.857 46.0685 26.829C46.2738 26.7263 46.4768 26.6517 46.6775 26.605C46.8782 26.5583 47.0695 26.535 47.2515 26.535C47.5455 26.535 47.7882 26.584 47.9795 26.682C48.1708 26.7753 48.3132 26.92 48.4065 27.116C48.4998 27.3073 48.5465 27.5547 48.5465 27.858V29.755C48.5465 29.8483 48.5232 29.9207 48.4765 29.972C48.4345 30.0233 48.3715 30.049 48.2875 30.049C48.1988 30.049 48.1312 30.0233 48.0845 29.972C48.0378 29.9207 48.0145 29.8483 48.0145 29.755V29.209H48.0775C48.0402 29.3863 47.9678 29.538 47.8605 29.664C47.7578 29.79 47.6295 29.888 47.4755 29.958C47.3215 30.028 47.1488 30.063 46.9575 30.063ZM51.3204 30.063C51.0124 30.063 50.7464 29.9837 50.5224 29.825C50.3031 29.6663 50.1561 29.454 50.0814 29.188L50.1584 29.111V29.755C50.1584 29.8483 50.1327 29.9207 50.0814 29.972C50.0347 30.0233 49.9671 30.049 49.8784 30.049C49.7851 30.049 49.7151 30.0233 49.6684 29.972C49.6217 29.9207 49.5984 29.8483 49.5984 29.755V25.303C49.5984 25.2097 49.6217 25.1397 49.6684 25.093C49.7151 25.0417 49.7851 25.016 49.8784 25.016C49.9671 25.016 50.0371 25.0417 50.0884 25.093C50.1397 25.1397 50.1654 25.2097 50.1654 25.303V27.389H50.0814C50.1607 27.1277 50.3101 26.92 50.5294 26.766C50.7487 26.612 51.0124 26.535 51.3204 26.535C51.6284 26.535 51.8944 26.6073 52.1184 26.752C52.3424 26.892 52.5151 27.095 52.6364 27.361C52.7624 27.6223 52.8254 27.935 52.8254 28.299C52.8254 28.6583 52.7624 28.971 52.6364 29.237C52.5151 29.4983 52.3401 29.7013 52.1114 29.846C51.8874 29.9907 51.6237 30.063 51.3204 30.063ZM51.2014 29.608C51.4161 29.608 51.6004 29.5567 51.7544 29.454C51.9131 29.3513 52.0344 29.202 52.1184 29.006C52.2071 28.81 52.2514 28.5743 52.2514 28.299C52.2514 27.8743 52.1557 27.55 51.9644 27.326C51.7777 27.102 51.5234 26.99 51.2014 26.99C50.9914 26.99 50.8071 27.0413 50.6484 27.144C50.4897 27.242 50.3661 27.389 50.2774 27.585C50.1934 27.7763 50.1514 28.0143 50.1514 28.299C50.1514 28.719 50.2471 29.0433 50.4384 29.272C50.6297 29.496 50.8841 29.608 51.2014 29.608ZM54.7505 30.063C54.5171 30.063 54.3071 30.0187 54.1205 29.93C53.9385 29.8367 53.7938 29.7107 53.6865 29.552C53.5791 29.3933 53.5255 29.216 53.5255 29.02C53.5255 28.768 53.5885 28.5697 53.7145 28.425C53.8451 28.2803 54.0575 28.1777 54.3515 28.117C54.6501 28.0563 55.0561 28.026 55.5695 28.026H55.8845V28.397H55.5765C55.1985 28.397 54.8998 28.4157 54.6805 28.453C54.4658 28.4857 54.3141 28.544 54.2255 28.628C54.1415 28.712 54.0995 28.831 54.0995 28.985C54.0995 29.1763 54.1648 29.3327 54.2955 29.454C54.4308 29.5753 54.6128 29.636 54.8415 29.636C55.0281 29.636 55.1915 29.5917 55.3315 29.503C55.4761 29.4143 55.5881 29.293 55.6675 29.139C55.7515 28.985 55.7935 28.8077 55.7935 28.607V27.809C55.7935 27.5197 55.7351 27.312 55.6185 27.186C55.5018 27.0553 55.3105 26.99 55.0445 26.99C54.8811 26.99 54.7178 27.011 54.5545 27.053C54.3911 27.095 54.2185 27.1627 54.0365 27.256C53.9711 27.2887 53.9151 27.3003 53.8685 27.291C53.8218 27.277 53.7845 27.2513 53.7565 27.214C53.7285 27.1767 53.7121 27.1347 53.7075 27.088C53.7028 27.0367 53.7121 26.9877 53.7355 26.941C53.7635 26.8943 53.8055 26.857 53.8615 26.829C54.0668 26.7263 54.2698 26.6517 54.4705 26.605C54.6711 26.5583 54.8625 26.535 55.0445 26.535C55.3385 26.535 55.5811 26.584 55.7725 26.682C55.9638 26.7753 56.1061 26.92 56.1995 27.116C56.2928 27.3073 56.3395 27.5547 56.3395 27.858V29.755C56.3395 29.8483 56.3161 29.9207 56.2695 29.972C56.2275 30.0233 56.1645 30.049 56.0805 30.049C55.9918 30.049 55.9241 30.0233 55.8775 29.972C55.8308 29.9207 55.8075 29.8483 55.8075 29.755V29.209H55.8705C55.8331 29.3863 55.7608 29.538 55.6535 29.664C55.5508 29.79 55.4225 29.888 55.2685 29.958C55.1145 30.028 54.9418 30.063 54.7505 30.063ZM58.5394 30.063C58.3294 30.063 58.117 30.0373 57.9024 29.986C57.6924 29.9347 57.4964 29.846 57.3144 29.72C57.2677 29.6873 57.235 29.65 57.2164 29.608C57.1977 29.5613 57.1907 29.517 57.1954 29.475C57.2047 29.4283 57.2234 29.3887 57.2514 29.356C57.284 29.3233 57.3214 29.3047 57.3634 29.3C57.41 29.2907 57.4614 29.3 57.5174 29.328C57.6994 29.44 57.8744 29.5193 58.0424 29.566C58.215 29.608 58.3854 29.629 58.5534 29.629C58.8194 29.629 59.02 29.58 59.1554 29.482C59.2907 29.384 59.3584 29.251 59.3584 29.083C59.3584 28.9523 59.314 28.8497 59.2254 28.775C59.1367 28.6957 58.9967 28.635 58.8054 28.593L58.1684 28.453C57.8744 28.3923 57.655 28.2873 57.5104 28.138C57.3704 27.9887 57.3004 27.795 57.3004 27.557C57.3004 27.347 57.354 27.1673 57.4614 27.018C57.5734 26.864 57.7297 26.745 57.9304 26.661C58.131 26.577 58.3644 26.535 58.6304 26.535C58.8357 26.535 59.0294 26.563 59.2114 26.619C59.398 26.6703 59.566 26.7543 59.7154 26.871C59.762 26.9037 59.7924 26.9433 59.8064 26.99C59.825 27.032 59.8274 27.0763 59.8134 27.123C59.804 27.165 59.783 27.2023 59.7504 27.235C59.7177 27.263 59.678 27.2793 59.6314 27.284C59.5847 27.2887 59.5357 27.2747 59.4844 27.242C59.3444 27.1487 59.202 27.081 59.0574 27.039C58.9127 26.9923 58.7704 26.969 58.6304 26.969C58.369 26.969 58.1707 27.0203 58.0354 27.123C57.9 27.2257 57.8324 27.361 57.8324 27.529C57.8324 27.6597 57.8744 27.767 57.9584 27.851C58.0424 27.935 58.173 27.9957 58.3504 28.033L58.9874 28.166C59.2907 28.2313 59.517 28.3363 59.6664 28.481C59.8204 28.621 59.8974 28.8123 59.8974 29.055C59.8974 29.363 59.7737 29.608 59.5264 29.79C59.279 29.972 58.95 30.063 58.5394 30.063ZM62.2945 30.063C61.9352 30.063 61.6248 29.993 61.3635 29.853C61.1068 29.7083 60.9062 29.5053 60.7615 29.244C60.6215 28.9827 60.5515 28.67 60.5515 28.306C60.5515 27.9513 60.6215 27.6433 60.7615 27.382C60.9015 27.116 61.0928 26.9083 61.3355 26.759C61.5828 26.6097 61.8675 26.535 62.1895 26.535C62.4182 26.535 62.6235 26.5747 62.8055 26.654C62.9875 26.7287 63.1415 26.8383 63.2675 26.983C63.3982 27.1277 63.4962 27.3027 63.5615 27.508C63.6315 27.7133 63.6665 27.9443 63.6665 28.201C63.6665 28.2757 63.6455 28.3317 63.6035 28.369C63.5615 28.4017 63.5008 28.418 63.4215 28.418H60.9855V28.047H63.2885L63.1765 28.138C63.1765 27.886 63.1392 27.6737 63.0645 27.501C62.9898 27.3237 62.8802 27.1883 62.7355 27.095C62.5955 27.0017 62.4182 26.955 62.2035 26.955C61.9655 26.955 61.7625 27.011 61.5945 27.123C61.4312 27.2303 61.3075 27.382 61.2235 27.578C61.1395 27.7693 61.0975 27.9933 61.0975 28.25V28.292C61.0975 28.7213 61.2002 29.048 61.4055 29.272C61.6155 29.496 61.9118 29.608 62.2945 29.608C62.4532 29.608 62.6095 29.587 62.7635 29.545C62.9222 29.503 63.0762 29.433 63.2255 29.335C63.2908 29.293 63.3492 29.2743 63.4005 29.279C63.4565 29.279 63.5008 29.2953 63.5335 29.328C63.5662 29.356 63.5872 29.3933 63.5965 29.44C63.6105 29.482 63.6058 29.5287 63.5825 29.58C63.5638 29.6313 63.5242 29.6757 63.4635 29.713C63.3095 29.825 63.1275 29.9113 62.9175 29.972C62.7075 30.0327 62.4998 30.063 62.2945 30.063Z" fill="black"/>
<path d="M36.205 71.063C35.9857 71.063 35.771 71.0443 35.561 71.007C35.351 70.9697 35.155 70.916 34.973 70.846C34.7957 70.776 34.6347 70.6873 34.49 70.58C34.434 70.538 34.3943 70.4913 34.371 70.44C34.3523 70.384 34.3477 70.3303 34.357 70.279C34.371 70.223 34.3943 70.1763 34.427 70.139C34.4643 70.1017 34.5087 70.0807 34.56 70.076C34.6113 70.0713 34.6673 70.0877 34.728 70.125C34.938 70.2743 35.162 70.384 35.4 70.454C35.638 70.5193 35.9063 70.552 36.205 70.552C36.625 70.552 36.9353 70.475 37.136 70.321C37.3413 70.1623 37.444 69.9547 37.444 69.698C37.444 69.488 37.3693 69.3247 37.22 69.208C37.0753 69.0867 36.8303 68.991 36.485 68.921L35.757 68.774C35.3183 68.6807 34.9893 68.529 34.77 68.319C34.5553 68.1043 34.448 67.8197 34.448 67.465C34.448 67.2457 34.4923 67.0473 34.581 66.87C34.6697 66.688 34.7933 66.534 34.952 66.408C35.1107 66.2773 35.2997 66.177 35.519 66.107C35.7383 66.037 35.981 66.002 36.247 66.002C36.541 66.002 36.814 66.044 37.066 66.128C37.3227 66.2073 37.5537 66.3287 37.759 66.492C37.8103 66.534 37.8453 66.583 37.864 66.639C37.8827 66.6903 37.885 66.7417 37.871 66.793C37.857 66.8397 37.8313 66.8793 37.794 66.912C37.7613 66.9447 37.717 66.9633 37.661 66.968C37.6097 66.9727 37.5513 66.954 37.486 66.912C37.2993 66.772 37.1057 66.6717 36.905 66.611C36.7043 66.5457 36.4827 66.513 36.24 66.513C35.9927 66.513 35.778 66.5503 35.596 66.625C35.4187 66.6997 35.2787 66.8093 35.176 66.954C35.078 67.094 35.029 67.2573 35.029 67.444C35.029 67.668 35.0967 67.8453 35.232 67.976C35.372 68.1067 35.5983 68.2023 35.911 68.263L36.639 68.417C37.1103 68.515 37.458 68.6643 37.682 68.865C37.9107 69.061 38.025 69.3293 38.025 69.67C38.025 69.8753 37.983 70.0643 37.899 70.237C37.815 70.4097 37.6937 70.559 37.535 70.685C37.3763 70.8063 37.185 70.8997 36.961 70.965C36.737 71.0303 36.485 71.063 36.205 71.063ZM40.2806 71.063C39.94 71.063 39.646 70.9883 39.3986 70.839C39.1513 70.6897 38.96 70.482 38.8246 70.216C38.694 69.9453 38.6286 69.6327 38.6286 69.278C38.6286 69.0073 38.666 68.7647 38.7406 68.55C38.8153 68.3353 38.925 68.1533 39.0696 68.004C39.2143 67.85 39.387 67.7333 39.5876 67.654C39.793 67.5747 40.024 67.535 40.2806 67.535C40.4486 67.535 40.6236 67.5607 40.8056 67.612C40.9876 67.6633 41.1533 67.752 41.3026 67.878C41.3493 67.9107 41.3796 67.9503 41.3936 67.997C41.4076 68.0437 41.4076 68.0903 41.3936 68.137C41.3796 68.179 41.3563 68.2163 41.3236 68.249C41.291 68.277 41.249 68.2933 41.1976 68.298C41.151 68.3027 41.102 68.2863 41.0506 68.249C40.9293 68.1557 40.8056 68.0903 40.6796 68.053C40.5536 68.0157 40.4323 67.997 40.3156 67.997C40.1336 67.997 39.975 68.0273 39.8396 68.088C39.7043 68.144 39.59 68.2257 39.4966 68.333C39.4033 68.4403 39.331 68.5733 39.2796 68.732C39.233 68.8907 39.2096 69.075 39.2096 69.285C39.2096 69.691 39.3053 70.013 39.4966 70.251C39.688 70.4843 39.961 70.601 40.3156 70.601C40.4323 70.601 40.5513 70.5823 40.6726 70.545C40.7986 70.5077 40.9246 70.4423 41.0506 70.349C41.102 70.3117 41.151 70.2953 41.1976 70.3C41.2443 70.3047 41.284 70.3233 41.3166 70.356C41.3493 70.384 41.3703 70.4213 41.3796 70.468C41.3936 70.5147 41.3936 70.5613 41.3796 70.608C41.3656 70.65 41.3353 70.6873 41.2886 70.72C41.1393 70.8413 40.976 70.93 40.7986 70.986C40.6213 71.0373 40.4486 71.063 40.2806 71.063ZM42.3589 71.049C42.2655 71.049 42.1955 71.0233 42.1489 70.972C42.1022 70.9207 42.0789 70.8483 42.0789 70.755V66.303C42.0789 66.2097 42.1022 66.1397 42.1489 66.093C42.1955 66.0417 42.2655 66.016 42.3589 66.016C42.4475 66.016 42.5175 66.0417 42.5689 66.093C42.6202 66.1397 42.6459 66.2097 42.6459 66.303V68.354H42.5549C42.6529 68.0833 42.8115 67.8803 43.0309 67.745C43.2549 67.605 43.5115 67.535 43.8009 67.535C44.0715 67.535 44.2955 67.584 44.4729 67.682C44.6549 67.78 44.7902 67.9293 44.8789 68.13C44.9675 68.326 45.0119 68.5757 45.0119 68.879V70.755C45.0119 70.8483 44.9862 70.9207 44.9349 70.972C44.8882 71.0233 44.8205 71.049 44.7319 71.049C44.6385 71.049 44.5662 71.0233 44.5149 70.972C44.4682 70.9207 44.4449 70.8483 44.4449 70.755V68.914C44.4449 68.5967 44.3819 68.3657 44.2559 68.221C44.1345 68.0717 43.9385 67.997 43.6679 67.997C43.3552 67.997 43.1055 68.095 42.9189 68.291C42.7369 68.4823 42.6459 68.739 42.6459 69.061V70.755C42.6459 70.951 42.5502 71.049 42.3589 71.049ZM47.5904 71.063C47.2311 71.063 46.9207 70.993 46.6594 70.853C46.4027 70.7083 46.2021 70.5053 46.0574 70.244C45.9174 69.9827 45.8474 69.67 45.8474 69.306C45.8474 68.9513 45.9174 68.6433 46.0574 68.382C46.1974 68.116 46.3887 67.9083 46.6314 67.759C46.8787 67.6097 47.1634 67.535 47.4854 67.535C47.7141 67.535 47.9194 67.5747 48.1014 67.654C48.2834 67.7287 48.4374 67.8383 48.5634 67.983C48.6941 68.1277 48.7921 68.3027 48.8574 68.508C48.9274 68.7133 48.9624 68.9443 48.9624 69.201C48.9624 69.2757 48.9414 69.3317 48.8994 69.369C48.8574 69.4017 48.7967 69.418 48.7174 69.418H46.2814V69.047H48.5844L48.4724 69.138C48.4724 68.886 48.4351 68.6737 48.3604 68.501C48.2857 68.3237 48.1761 68.1883 48.0314 68.095C47.8914 68.0017 47.7141 67.955 47.4994 67.955C47.2614 67.955 47.0584 68.011 46.8904 68.123C46.7271 68.2303 46.6034 68.382 46.5194 68.578C46.4354 68.7693 46.3934 68.9933 46.3934 69.25V69.292C46.3934 69.7213 46.4961 70.048 46.7014 70.272C46.9114 70.496 47.2077 70.608 47.5904 70.608C47.7491 70.608 47.9054 70.587 48.0594 70.545C48.2181 70.503 48.3721 70.433 48.5214 70.335C48.5867 70.293 48.6451 70.2743 48.6964 70.279C48.7524 70.279 48.7967 70.2953 48.8294 70.328C48.8621 70.356 48.8831 70.3933 48.8924 70.44C48.9064 70.482 48.9017 70.5287 48.8784 70.58C48.8597 70.6313 48.8201 70.6757 48.7594 70.713C48.6054 70.825 48.4234 70.9113 48.2134 70.972C48.0034 71.0327 47.7957 71.063 47.5904 71.063ZM50.077 71.049C49.9836 71.049 49.9136 71.0233 49.867 70.972C49.8203 70.9207 49.797 70.8483 49.797 70.755V67.836C49.797 67.7427 49.8203 67.6727 49.867 67.626C49.9136 67.5747 49.9813 67.549 50.07 67.549C50.1586 67.549 50.2263 67.5747 50.273 67.626C50.3243 67.6727 50.35 67.7427 50.35 67.836V68.452L50.273 68.354C50.3616 68.0927 50.504 67.892 50.7 67.752C50.9006 67.6073 51.1386 67.535 51.414 67.535C51.7033 67.535 51.9366 67.605 52.114 67.745C52.296 67.8803 52.4173 68.0927 52.478 68.382H52.373C52.457 68.1207 52.6063 67.9153 52.821 67.766C53.0403 67.612 53.2946 67.535 53.584 67.535C53.8406 67.535 54.0506 67.584 54.214 67.682C54.382 67.78 54.508 67.9293 54.592 68.13C54.676 68.326 54.718 68.5757 54.718 68.879V70.755C54.718 70.8483 54.6923 70.9207 54.641 70.972C54.5943 71.0233 54.5243 71.049 54.431 71.049C54.3423 71.049 54.2723 71.0233 54.221 70.972C54.1743 70.9207 54.151 70.8483 54.151 70.755V68.907C54.151 68.5943 54.0973 68.3657 53.99 68.221C53.8826 68.0717 53.7006 67.997 53.444 67.997C53.164 67.997 52.9423 68.095 52.779 68.291C52.6203 68.4823 52.541 68.7437 52.541 69.075V70.755C52.541 70.8483 52.5153 70.9207 52.464 70.972C52.4173 71.0233 52.3473 71.049 52.254 71.049C52.1653 71.049 52.0953 71.0233 52.044 70.972C51.9973 70.9207 51.974 70.8483 51.974 70.755V68.907C51.974 68.5943 51.918 68.3657 51.806 68.221C51.6986 68.0717 51.519 67.997 51.267 67.997C50.987 67.997 50.7653 68.095 50.602 68.291C50.4433 68.4823 50.364 68.7437 50.364 69.075V70.755C50.364 70.951 50.2683 71.049 50.077 71.049ZM56.8491 71.063C56.6158 71.063 56.4058 71.0187 56.2191 70.93C56.0371 70.8367 55.8924 70.7107 55.7851 70.552C55.6778 70.3933 55.6241 70.216 55.6241 70.02C55.6241 69.768 55.6871 69.5697 55.8131 69.425C55.9438 69.2803 56.1561 69.1777 56.4501 69.117C56.7488 69.0563 57.1548 69.026 57.6681 69.026H57.9831V69.397H57.6751C57.2971 69.397 56.9984 69.4157 56.7791 69.453C56.5644 69.4857 56.4128 69.544 56.3241 69.628C56.2401 69.712 56.1981 69.831 56.1981 69.985C56.1981 70.1763 56.2634 70.3327 56.3941 70.454C56.5294 70.5753 56.7114 70.636 56.9401 70.636C57.1268 70.636 57.2901 70.5917 57.4301 70.503C57.5748 70.4143 57.6868 70.293 57.7661 70.139C57.8501 69.985 57.8921 69.8077 57.8921 69.607V68.809C57.8921 68.5197 57.8338 68.312 57.7171 68.186C57.6004 68.0553 57.4091 67.99 57.1431 67.99C56.9798 67.99 56.8164 68.011 56.6531 68.053C56.4898 68.095 56.3171 68.1627 56.1351 68.256C56.0698 68.2887 56.0138 68.3003 55.9671 68.291C55.9204 68.277 55.8831 68.2513 55.8551 68.214C55.8271 68.1767 55.8108 68.1347 55.8061 68.088C55.8014 68.0367 55.8108 67.9877 55.8341 67.941C55.8621 67.8943 55.9041 67.857 55.9601 67.829C56.1654 67.7263 56.3684 67.6517 56.5691 67.605C56.7698 67.5583 56.9611 67.535 57.1431 67.535C57.4371 67.535 57.6798 67.584 57.8711 67.682C58.0624 67.7753 58.2048 67.92 58.2981 68.116C58.3914 68.3073 58.4381 68.5547 58.4381 68.858V70.755C58.4381 70.8483 58.4148 70.9207 58.3681 70.972C58.3261 71.0233 58.2631 71.049 58.1791 71.049C58.0904 71.049 58.0228 71.0233 57.9761 70.972C57.9294 70.9207 57.9061 70.8483 57.9061 70.755V70.209H57.9691C57.9318 70.3863 57.8594 70.538 57.7521 70.664C57.6494 70.79 57.5211 70.888 57.3671 70.958C57.2131 71.028 57.0404 71.063 56.8491 71.063Z" fill="black"/>
<path d="M36.205 114.063C35.9857 114.063 35.771 114.044 35.561 114.007C35.351 113.97 35.155 113.916 34.973 113.846C34.7957 113.776 34.6347 113.687 34.49 113.58C34.434 113.538 34.3943 113.491 34.371 113.44C34.3523 113.384 34.3477 113.33 34.357 113.279C34.371 113.223 34.3943 113.176 34.427 113.139C34.4643 113.102 34.5087 113.081 34.56 113.076C34.6113 113.071 34.6673 113.088 34.728 113.125C34.938 113.274 35.162 113.384 35.4 113.454C35.638 113.519 35.9063 113.552 36.205 113.552C36.625 113.552 36.9353 113.475 37.136 113.321C37.3413 113.162 37.444 112.955 37.444 112.698C37.444 112.488 37.3693 112.325 37.22 112.208C37.0753 112.087 36.8303 111.991 36.485 111.921L35.757 111.774C35.3183 111.681 34.9893 111.529 34.77 111.319C34.5553 111.104 34.448 110.82 34.448 110.465C34.448 110.246 34.4923 110.047 34.581 109.87C34.6697 109.688 34.7933 109.534 34.952 109.408C35.1107 109.277 35.2997 109.177 35.519 109.107C35.7383 109.037 35.981 109.002 36.247 109.002C36.541 109.002 36.814 109.044 37.066 109.128C37.3227 109.207 37.5537 109.329 37.759 109.492C37.8103 109.534 37.8453 109.583 37.864 109.639C37.8827 109.69 37.885 109.742 37.871 109.793C37.857 109.84 37.8313 109.879 37.794 109.912C37.7613 109.945 37.717 109.963 37.661 109.968C37.6097 109.973 37.5513 109.954 37.486 109.912C37.2993 109.772 37.1057 109.672 36.905 109.611C36.7043 109.546 36.4827 109.513 36.24 109.513C35.9927 109.513 35.778 109.55 35.596 109.625C35.4187 109.7 35.2787 109.809 35.176 109.954C35.078 110.094 35.029 110.257 35.029 110.444C35.029 110.668 35.0967 110.845 35.232 110.976C35.372 111.107 35.5983 111.202 35.911 111.263L36.639 111.417C37.1103 111.515 37.458 111.664 37.682 111.865C37.9107 112.061 38.025 112.329 38.025 112.67C38.025 112.875 37.983 113.064 37.899 113.237C37.815 113.41 37.6937 113.559 37.535 113.685C37.3763 113.806 37.185 113.9 36.961 113.965C36.737 114.03 36.485 114.063 36.205 114.063ZM40.3716 114.063C40.0123 114.063 39.702 113.993 39.4406 113.853C39.184 113.708 38.9833 113.505 38.8386 113.244C38.6986 112.983 38.6286 112.67 38.6286 112.306C38.6286 111.951 38.6986 111.643 38.8386 111.382C38.9786 111.116 39.17 110.908 39.4126 110.759C39.66 110.61 39.9446 110.535 40.2666 110.535C40.4953 110.535 40.7006 110.575 40.8826 110.654C41.0646 110.729 41.2186 110.838 41.3446 110.983C41.4753 111.128 41.5733 111.303 41.6386 111.508C41.7086 111.713 41.7436 111.944 41.7436 112.201C41.7436 112.276 41.7226 112.332 41.6806 112.369C41.6386 112.402 41.578 112.418 41.4986 112.418H39.0626V112.047H41.3656L41.2536 112.138C41.2536 111.886 41.2163 111.674 41.1416 111.501C41.067 111.324 40.9573 111.188 40.8126 111.095C40.6726 111.002 40.4953 110.955 40.2806 110.955C40.0426 110.955 39.8396 111.011 39.6716 111.123C39.5083 111.23 39.3846 111.382 39.3006 111.578C39.2166 111.769 39.1746 111.993 39.1746 112.25V112.292C39.1746 112.721 39.2773 113.048 39.4826 113.272C39.6926 113.496 39.989 113.608 40.3716 113.608C40.5303 113.608 40.6866 113.587 40.8406 113.545C40.9993 113.503 41.1533 113.433 41.3026 113.335C41.368 113.293 41.4263 113.274 41.4776 113.279C41.5336 113.279 41.578 113.295 41.6106 113.328C41.6433 113.356 41.6643 113.393 41.6736 113.44C41.6876 113.482 41.683 113.529 41.6596 113.58C41.641 113.631 41.6013 113.676 41.5406 113.713C41.3866 113.825 41.2046 113.911 40.9946 113.972C40.7846 114.033 40.577 114.063 40.3716 114.063ZM44.0972 114.063C43.7379 114.063 43.4276 113.993 43.1662 113.853C42.9096 113.708 42.7089 113.505 42.5642 113.244C42.4242 112.983 42.3542 112.67 42.3542 112.306C42.3542 111.951 42.4242 111.643 42.5642 111.382C42.7042 111.116 42.8956 110.908 43.1382 110.759C43.3856 110.61 43.6702 110.535 43.9922 110.535C44.2209 110.535 44.4262 110.575 44.6082 110.654C44.7902 110.729 44.9442 110.838 45.0702 110.983C45.2009 111.128 45.2989 111.303 45.3642 111.508C45.4342 111.713 45.4692 111.944 45.4692 112.201C45.4692 112.276 45.4482 112.332 45.4062 112.369C45.3642 112.402 45.3036 112.418 45.2242 112.418H42.7882V112.047H45.0912L44.9792 112.138C44.9792 111.886 44.9419 111.674 44.8672 111.501C44.7926 111.324 44.6829 111.188 44.5382 111.095C44.3982 111.002 44.2209 110.955 44.0062 110.955C43.7682 110.955 43.5652 111.011 43.3972 111.123C43.2339 111.23 43.1102 111.382 43.0262 111.578C42.9422 111.769 42.9002 111.993 42.9002 112.25V112.292C42.9002 112.721 43.0029 113.048 43.2082 113.272C43.4182 113.496 43.7146 113.608 44.0972 113.608C44.2559 113.608 44.4122 113.587 44.5662 113.545C44.7249 113.503 44.8789 113.433 45.0282 113.335C45.0936 113.293 45.1519 113.274 45.2032 113.279C45.2592 113.279 45.3036 113.295 45.3362 113.328C45.3689 113.356 45.3899 113.393 45.3992 113.44C45.4132 113.482 45.4086 113.529 45.3852 113.58C45.3666 113.631 45.3269 113.676 45.2662 113.713C45.1122 113.825 44.9302 113.911 44.7202 113.972C44.5102 114.033 44.3026 114.063 44.0972 114.063ZM49.6695 114.049C49.5808 114.049 49.5108 114.023 49.4595 113.972C49.4082 113.916 49.3825 113.841 49.3825 113.748V109.562H47.8075C47.7235 109.562 47.6582 109.539 47.6115 109.492C47.5648 109.445 47.5415 109.385 47.5415 109.31C47.5415 109.231 47.5648 109.17 47.6115 109.128C47.6582 109.086 47.7235 109.065 47.8075 109.065H51.5385C51.6225 109.065 51.6878 109.086 51.7345 109.128C51.7812 109.17 51.8045 109.231 51.8045 109.31C51.8045 109.389 51.7812 109.452 51.7345 109.499C51.6878 109.541 51.6225 109.562 51.5385 109.562H49.9635V113.748C49.9635 113.841 49.9378 113.916 49.8865 113.972C49.8398 114.023 49.7675 114.049 49.6695 114.049ZM52.8432 114.063C52.6099 114.063 52.3999 114.019 52.2132 113.93C52.0312 113.837 51.8866 113.711 51.7792 113.552C51.6719 113.393 51.6182 113.216 51.6182 113.02C51.6182 112.768 51.6812 112.57 51.8072 112.425C51.9379 112.28 52.1502 112.178 52.4442 112.117C52.7429 112.056 53.1489 112.026 53.6622 112.026H53.9772V112.397H53.6692C53.2912 112.397 52.9926 112.416 52.7732 112.453C52.5586 112.486 52.4069 112.544 52.3182 112.628C52.2342 112.712 52.1922 112.831 52.1922 112.985C52.1922 113.176 52.2576 113.333 52.3882 113.454C52.5236 113.575 52.7056 113.636 52.9342 113.636C53.1209 113.636 53.2842 113.592 53.4242 113.503C53.5689 113.414 53.6809 113.293 53.7602 113.139C53.8442 112.985 53.8862 112.808 53.8862 112.607V111.809C53.8862 111.52 53.8279 111.312 53.7112 111.186C53.5946 111.055 53.4032 110.99 53.1372 110.99C52.9739 110.99 52.8106 111.011 52.6472 111.053C52.4839 111.095 52.3112 111.163 52.1292 111.256C52.0639 111.289 52.0079 111.3 51.9612 111.291C51.9146 111.277 51.8772 111.251 51.8492 111.214C51.8212 111.177 51.8049 111.135 51.8002 111.088C51.7956 111.037 51.8049 110.988 51.8282 110.941C51.8562 110.894 51.8982 110.857 51.9542 110.829C52.1596 110.726 52.3626 110.652 52.5632 110.605C52.7639 110.558 52.9552 110.535 53.1372 110.535C53.4312 110.535 53.6739 110.584 53.8652 110.682C54.0566 110.775 54.1989 110.92 54.2922 111.116C54.3856 111.307 54.4322 111.555 54.4322 111.858V113.755C54.4322 113.848 54.4089 113.921 54.3622 113.972C54.3202 114.023 54.2572 114.049 54.1732 114.049C54.0846 114.049 54.0169 114.023 53.9702 113.972C53.9236 113.921 53.9002 113.848 53.9002 113.755V113.209H53.9632C53.9259 113.386 53.8536 113.538 53.7462 113.664C53.6436 113.79 53.5152 113.888 53.3612 113.958C53.2072 114.028 53.0346 114.063 52.8432 114.063ZM57.2061 114.063C56.8981 114.063 56.6321 113.984 56.4081 113.825C56.1888 113.666 56.0418 113.454 55.9671 113.188L56.0441 113.111V113.755C56.0441 113.848 56.0185 113.921 55.9671 113.972C55.9205 114.023 55.8528 114.049 55.7641 114.049C55.6708 114.049 55.6008 114.023 55.5541 113.972C55.5075 113.921 55.4841 113.848 55.4841 113.755V109.303C55.4841 109.21 55.5075 109.14 55.5541 109.093C55.6008 109.042 55.6708 109.016 55.7641 109.016C55.8528 109.016 55.9228 109.042 55.9741 109.093C56.0255 109.14 56.0511 109.21 56.0511 109.303V111.389H55.9671C56.0465 111.128 56.1958 110.92 56.4151 110.766C56.6345 110.612 56.8981 110.535 57.2061 110.535C57.5141 110.535 57.7801 110.607 58.0041 110.752C58.2281 110.892 58.4008 111.095 58.5221 111.361C58.6481 111.622 58.7111 111.935 58.7111 112.299C58.7111 112.658 58.6481 112.971 58.5221 113.237C58.4008 113.498 58.2258 113.701 57.9971 113.846C57.7731 113.991 57.5095 114.063 57.2061 114.063ZM57.0871 113.608C57.3018 113.608 57.4861 113.557 57.6401 113.454C57.7988 113.351 57.9201 113.202 58.0041 113.006C58.0928 112.81 58.1371 112.574 58.1371 112.299C58.1371 111.874 58.0415 111.55 57.8501 111.326C57.6635 111.102 57.4091 110.99 57.0871 110.99C56.8771 110.99 56.6928 111.041 56.5341 111.144C56.3755 111.242 56.2518 111.389 56.1631 111.585C56.0791 111.776 56.0371 112.014 56.0371 112.299C56.0371 112.719 56.1328 113.043 56.3241 113.272C56.5155 113.496 56.7698 113.608 57.0871 113.608ZM60.6012 114.063C60.2652 114.063 60.0085 113.96 59.8312 113.755C59.6539 113.55 59.5652 113.256 59.5652 112.873V109.303C59.5652 109.21 59.5885 109.14 59.6352 109.093C59.6819 109.042 59.7519 109.016 59.8452 109.016C59.9339 109.016 60.0039 109.042 60.0552 109.093C60.1065 109.14 60.1322 109.21 60.1322 109.303V112.831C60.1322 113.083 60.1812 113.272 60.2792 113.398C60.3819 113.519 60.5312 113.58 60.7272 113.58C60.7692 113.58 60.8065 113.578 60.8392 113.573C60.8719 113.568 60.9045 113.566 60.9372 113.566C60.9885 113.561 61.0235 113.573 61.0422 113.601C61.0655 113.629 61.0772 113.685 61.0772 113.769C61.0772 113.853 61.0585 113.916 61.0212 113.958C60.9839 114 60.9232 114.028 60.8392 114.042C60.8019 114.047 60.7622 114.051 60.7202 114.056C60.6782 114.061 60.6385 114.063 60.6012 114.063ZM63.1353 114.063C62.776 114.063 62.4656 113.993 62.2043 113.853C61.9476 113.708 61.747 113.505 61.6023 113.244C61.4623 112.983 61.3923 112.67 61.3923 112.306C61.3923 111.951 61.4623 111.643 61.6023 111.382C61.7423 111.116 61.9336 110.908 62.1763 110.759C62.4236 110.61 62.7083 110.535 63.0303 110.535C63.259 110.535 63.4643 110.575 63.6463 110.654C63.8283 110.729 63.9823 110.838 64.1083 110.983C64.239 111.128 64.337 111.303 64.4023 111.508C64.4723 111.713 64.5073 111.944 64.5073 112.201C64.5073 112.276 64.4863 112.332 64.4443 112.369C64.4023 112.402 64.3416 112.418 64.2623 112.418H61.8263V112.047H64.1293L64.0173 112.138C64.0173 111.886 63.98 111.674 63.9053 111.501C63.8306 111.324 63.721 111.188 63.5763 111.095C63.4363 111.002 63.259 110.955 63.0443 110.955C62.8063 110.955 62.6033 111.011 62.4353 111.123C62.272 111.23 62.1483 111.382 62.0643 111.578C61.9803 111.769 61.9383 111.993 61.9383 112.25V112.292C61.9383 112.721 62.041 113.048 62.2463 113.272C62.4563 113.496 62.7526 113.608 63.1353 113.608C63.294 113.608 63.4503 113.587 63.6043 113.545C63.763 113.503 63.917 113.433 64.0663 113.335C64.1316 113.293 64.19 113.274 64.2413 113.279C64.2973 113.279 64.3416 113.295 64.3743 113.328C64.407 113.356 64.428 113.393 64.4373 113.44C64.4513 113.482 64.4466 113.529 64.4233 113.58C64.4046 113.631 64.365 113.676 64.3043 113.713C64.1503 113.825 63.9683 113.911 63.7583 113.972C63.5483 114.033 63.3406 114.063 63.1353 114.063ZM68.8056 114.063C68.5863 114.063 68.3716 114.044 68.1616 114.007C67.9516 113.97 67.7556 113.916 67.5736 113.846C67.3963 113.776 67.2353 113.687 67.0906 113.58C67.0346 113.538 66.9949 113.491 66.9716 113.44C66.9529 113.384 66.9483 113.33 66.9576 113.279C66.9716 113.223 66.9949 113.176 67.0276 113.139C67.0649 113.102 67.1093 113.081 67.1606 113.076C67.2119 113.071 67.2679 113.088 67.3286 113.125C67.5386 113.274 67.7626 113.384 68.0006 113.454C68.2386 113.519 68.5069 113.552 68.8056 113.552C69.2256 113.552 69.5359 113.475 69.7366 113.321C69.9419 113.162 70.0446 112.955 70.0446 112.698C70.0446 112.488 69.9699 112.325 69.8206 112.208C69.6759 112.087 69.4309 111.991 69.0856 111.921L68.3576 111.774C67.9189 111.681 67.5899 111.529 67.3706 111.319C67.1559 111.104 67.0486 110.82 67.0486 110.465C67.0486 110.246 67.0929 110.047 67.1816 109.87C67.2703 109.688 67.3939 109.534 67.5526 109.408C67.7113 109.277 67.9003 109.177 68.1196 109.107C68.3389 109.037 68.5816 109.002 68.8476 109.002C69.1416 109.002 69.4146 109.044 69.6666 109.128C69.9233 109.207 70.1543 109.329 70.3596 109.492C70.4109 109.534 70.4459 109.583 70.4646 109.639C70.4833 109.69 70.4856 109.742 70.4716 109.793C70.4576 109.84 70.4319 109.879 70.3946 109.912C70.3619 109.945 70.3176 109.963 70.2616 109.968C70.2103 109.973 70.1519 109.954 70.0866 109.912C69.8999 109.772 69.7063 109.672 69.5056 109.611C69.3049 109.546 69.0833 109.513 68.8406 109.513C68.5933 109.513 68.3786 109.55 68.1966 109.625C68.0193 109.7 67.8793 109.809 67.7766 109.954C67.6786 110.094 67.6296 110.257 67.6296 110.444C67.6296 110.668 67.6973 110.845 67.8326 110.976C67.9726 111.107 68.1989 111.202 68.5116 111.263L69.2396 111.417C69.7109 111.515 70.0586 111.664 70.2826 111.865C70.5113 112.061 70.6256 112.329 70.6256 112.67C70.6256 112.875 70.5836 113.064 70.4996 113.237C70.4156 113.41 70.2943 113.559 70.1356 113.685C69.9769 113.806 69.7856 113.9 69.5616 113.965C69.3376 114.03 69.0856 114.063 68.8056 114.063ZM72.8812 114.063C72.5406 114.063 72.2466 113.988 71.9992 113.839C71.7519 113.69 71.5606 113.482 71.4252 113.216C71.2946 112.945 71.2292 112.633 71.2292 112.278C71.2292 112.007 71.2666 111.765 71.3412 111.55C71.4159 111.335 71.5256 111.153 71.6702 111.004C71.8149 110.85 71.9876 110.733 72.1882 110.654C72.3936 110.575 72.6246 110.535 72.8812 110.535C73.0492 110.535 73.2242 110.561 73.4062 110.612C73.5882 110.663 73.7539 110.752 73.9032 110.878C73.9499 110.911 73.9802 110.95 73.9942 110.997C74.0082 111.044 74.0082 111.09 73.9942 111.137C73.9802 111.179 73.9569 111.216 73.9242 111.249C73.8916 111.277 73.8496 111.293 73.7982 111.298C73.7516 111.303 73.7026 111.286 73.6512 111.249C73.5299 111.156 73.4062 111.09 73.2802 111.053C73.1542 111.016 73.0329 110.997 72.9162 110.997C72.7342 110.997 72.5756 111.027 72.4402 111.088C72.3049 111.144 72.1906 111.226 72.0972 111.333C72.0039 111.44 71.9316 111.573 71.8802 111.732C71.8336 111.891 71.8102 112.075 71.8102 112.285C71.8102 112.691 71.9059 113.013 72.0972 113.251C72.2886 113.484 72.5616 113.601 72.9162 113.601C73.0329 113.601 73.1519 113.582 73.2732 113.545C73.3992 113.508 73.5252 113.442 73.6512 113.349C73.7026 113.312 73.7516 113.295 73.7982 113.3C73.8449 113.305 73.8846 113.323 73.9172 113.356C73.9499 113.384 73.9709 113.421 73.9802 113.468C73.9942 113.515 73.9942 113.561 73.9802 113.608C73.9662 113.65 73.9359 113.687 73.8892 113.72C73.7399 113.841 73.5766 113.93 73.3992 113.986C73.2219 114.037 73.0492 114.063 72.8812 114.063ZM74.9595 114.049C74.8661 114.049 74.7961 114.023 74.7495 113.972C74.7028 113.921 74.6795 113.848 74.6795 113.755V109.303C74.6795 109.21 74.7028 109.14 74.7495 109.093C74.7961 109.042 74.8661 109.016 74.9595 109.016C75.0481 109.016 75.1181 109.042 75.1695 109.093C75.2208 109.14 75.2465 109.21 75.2465 109.303V111.354H75.1555C75.2535 111.083 75.4121 110.88 75.6315 110.745C75.8555 110.605 76.1121 110.535 76.4015 110.535C76.6721 110.535 76.8961 110.584 77.0735 110.682C77.2555 110.78 77.3908 110.929 77.4795 111.13C77.5681 111.326 77.6125 111.576 77.6125 111.879V113.755C77.6125 113.848 77.5868 113.921 77.5355 113.972C77.4888 114.023 77.4211 114.049 77.3325 114.049C77.2391 114.049 77.1668 114.023 77.1155 113.972C77.0688 113.921 77.0455 113.848 77.0455 113.755V111.914C77.0455 111.597 76.9825 111.366 76.8565 111.221C76.7351 111.072 76.5391 110.997 76.2685 110.997C75.9558 110.997 75.7061 111.095 75.5195 111.291C75.3375 111.482 75.2465 111.739 75.2465 112.061V113.755C75.2465 113.951 75.1508 114.049 74.9595 114.049ZM80.191 114.063C79.8316 114.063 79.5213 113.993 79.26 113.853C79.0033 113.708 78.8026 113.505 78.658 113.244C78.518 112.983 78.448 112.67 78.448 112.306C78.448 111.951 78.518 111.643 78.658 111.382C78.798 111.116 78.9893 110.908 79.232 110.759C79.4793 110.61 79.764 110.535 80.086 110.535C80.3146 110.535 80.52 110.575 80.702 110.654C80.884 110.729 81.038 110.838 81.164 110.983C81.2946 111.128 81.3926 111.303 81.458 111.508C81.528 111.713 81.563 111.944 81.563 112.201C81.563 112.276 81.542 112.332 81.5 112.369C81.458 112.402 81.3973 112.418 81.318 112.418H78.882V112.047H81.185L81.073 112.138C81.073 111.886 81.0356 111.674 80.961 111.501C80.8863 111.324 80.7766 111.188 80.632 111.095C80.492 111.002 80.3146 110.955 80.1 110.955C79.862 110.955 79.659 111.011 79.491 111.123C79.3276 111.23 79.204 111.382 79.12 111.578C79.036 111.769 78.994 111.993 78.994 112.25V112.292C78.994 112.721 79.0966 113.048 79.302 113.272C79.512 113.496 79.8083 113.608 80.191 113.608C80.3496 113.608 80.506 113.587 80.66 113.545C80.8186 113.503 80.9726 113.433 81.122 113.335C81.1873 113.293 81.2456 113.274 81.297 113.279C81.353 113.279 81.3973 113.295 81.43 113.328C81.4626 113.356 81.4836 113.393 81.493 113.44C81.507 113.482 81.5023 113.529 81.479 113.58C81.4603 113.631 81.4206 113.676 81.36 113.713C81.206 113.825 81.024 113.911 80.814 113.972C80.604 114.033 80.3963 114.063 80.191 114.063ZM82.6776 114.049C82.5842 114.049 82.5142 114.023 82.4676 113.972C82.4209 113.921 82.3976 113.848 82.3976 113.755V110.836C82.3976 110.743 82.4209 110.673 82.4676 110.626C82.5142 110.575 82.5819 110.549 82.6706 110.549C82.7592 110.549 82.8269 110.575 82.8736 110.626C82.9249 110.673 82.9506 110.743 82.9506 110.836V111.452L82.8736 111.354C82.9622 111.093 83.1046 110.892 83.3006 110.752C83.5012 110.607 83.7392 110.535 84.0146 110.535C84.3039 110.535 84.5372 110.605 84.7146 110.745C84.8966 110.88 85.0179 111.093 85.0786 111.382H84.9736C85.0576 111.121 85.2069 110.915 85.4216 110.766C85.6409 110.612 85.8952 110.535 86.1846 110.535C86.4412 110.535 86.6512 110.584 86.8146 110.682C86.9826 110.78 87.1086 110.929 87.1926 111.13C87.2766 111.326 87.3186 111.576 87.3186 111.879V113.755C87.3186 113.848 87.2929 113.921 87.2416 113.972C87.1949 114.023 87.1249 114.049 87.0316 114.049C86.9429 114.049 86.8729 114.023 86.8216 113.972C86.7749 113.921 86.7516 113.848 86.7516 113.755V111.907C86.7516 111.594 86.6979 111.366 86.5906 111.221C86.4832 111.072 86.3012 110.997 86.0446 110.997C85.7646 110.997 85.5429 111.095 85.3796 111.291C85.2209 111.482 85.1416 111.744 85.1416 112.075V113.755C85.1416 113.848 85.1159 113.921 85.0646 113.972C85.0179 114.023 84.9479 114.049 84.8546 114.049C84.7659 114.049 84.6959 114.023 84.6446 113.972C84.5979 113.921 84.5746 113.848 84.5746 113.755V111.907C84.5746 111.594 84.5186 111.366 84.4066 111.221C84.2992 111.072 84.1196 110.997 83.8676 110.997C83.5876 110.997 83.3659 111.095 83.2026 111.291C83.0439 111.482 82.9646 111.744 82.9646 112.075V113.755C82.9646 113.951 82.8689 114.049 82.6776 114.049ZM89.4497 114.063C89.2163 114.063 89.0063 114.019 88.8197 113.93C88.6377 113.837 88.493 113.711 88.3857 113.552C88.2783 113.393 88.2247 113.216 88.2247 113.02C88.2247 112.768 88.2877 112.57 88.4137 112.425C88.5443 112.28 88.7567 112.178 89.0507 112.117C89.3493 112.056 89.7553 112.026 90.2687 112.026H90.5837V112.397H90.2757C89.8977 112.397 89.599 112.416 89.3797 112.453C89.165 112.486 89.0133 112.544 88.9247 112.628C88.8407 112.712 88.7987 112.831 88.7987 112.985C88.7987 113.176 88.864 113.333 88.9947 113.454C89.13 113.575 89.312 113.636 89.5407 113.636C89.7273 113.636 89.8907 113.592 90.0307 113.503C90.1753 113.414 90.2873 113.293 90.3667 113.139C90.4507 112.985 90.4927 112.808 90.4927 112.607V111.809C90.4927 111.52 90.4343 111.312 90.3177 111.186C90.201 111.055 90.0097 110.99 89.7437 110.99C89.5803 110.99 89.417 111.011 89.2537 111.053C89.0903 111.095 88.9177 111.163 88.7357 111.256C88.6703 111.289 88.6143 111.3 88.5677 111.291C88.521 111.277 88.4837 111.251 88.4557 111.214C88.4277 111.177 88.4113 111.135 88.4067 111.088C88.402 111.037 88.4113 110.988 88.4347 110.941C88.4627 110.894 88.5047 110.857 88.5607 110.829C88.766 110.726 88.969 110.652 89.1697 110.605C89.3703 110.558 89.5617 110.535 89.7437 110.535C90.0377 110.535 90.2803 110.584 90.4717 110.682C90.663 110.775 90.8053 110.92 90.8987 111.116C90.992 111.307 91.0387 111.555 91.0387 111.858V113.755C91.0387 113.848 91.0153 113.921 90.9687 113.972C90.9267 114.023 90.8637 114.049 90.7797 114.049C90.691 114.049 90.6233 114.023 90.5767 113.972C90.53 113.921 90.5067 113.848 90.5067 113.755V113.209H90.5697C90.5323 113.386 90.46 113.538 90.3527 113.664C90.25 113.79 90.1217 113.888 89.9677 113.958C89.8137 114.028 89.641 114.063 89.4497 114.063Z" fill="black"/>
<path d="M45.28 46.32C45.1933 46.2733 45.1433 46.2067 45.13 46.12C45.1233 46.0333 45.15 45.94 45.21 45.84L45.91 44.74L46.02 44.9L44.71 44.95C44.59 44.95 44.4933 44.9267 44.42 44.88C44.3533 44.8267 44.32 44.75 44.32 44.65C44.32 44.5567 44.3533 44.4867 44.42 44.44C44.4933 44.3867 44.59 44.3633 44.71 44.37L46.02 44.42L45.91 44.57L45.22 43.46C45.1533 43.36 45.1267 43.2667 45.14 43.18C45.1533 43.0933 45.2 43.0267 45.28 42.98C45.36 42.9333 45.44 42.93 45.52 42.97C45.6067 43.01 45.6767 43.0833 45.73 43.19L46.3 44.29H46.2L46.77 43.19C46.83 43.0833 46.9 43.01 46.98 42.97C47.0667 42.93 47.15 42.9333 47.23 42.98C47.31 43.0333 47.3533 43.1033 47.36 43.19C47.3733 43.2767 47.3467 43.37 47.28 43.47L46.59 44.57L46.48 44.42L47.79 44.37C47.91 44.3633 48.0033 44.3867 48.07 44.44C48.1433 44.4867 48.18 44.5567 48.18 44.65C48.18 44.75 48.1433 44.8267 48.07 44.88C48.0033 44.9267 47.91 44.95 47.79 44.95L46.48 44.9L46.59 44.74L47.28 45.84C47.3467 45.94 47.3733 46.0333 47.36 46.12C47.3533 46.2 47.31 46.2633 47.23 46.31C47.1433 46.3633 47.0567 46.37 46.97 46.33C46.89 46.29 46.8233 46.22 46.77 46.12L46.2 45.02H46.3L45.72 46.12C45.6667 46.2267 45.6 46.3 45.52 46.34C45.44 46.38 45.36 46.3733 45.28 46.32Z" fill="#F5F3FC"/>
<path d="M45.28 91.32C45.1933 91.2733 45.1433 91.2067 45.13 91.12C45.1233 91.0333 45.15 90.94 45.21 90.84L45.91 89.74L46.02 89.9L44.71 89.95C44.59 89.95 44.4933 89.9267 44.42 89.88C44.3533 89.8267 44.32 89.75 44.32 89.65C44.32 89.5567 44.3533 89.4867 44.42 89.44C44.4933 89.3867 44.59 89.3633 44.71 89.37L46.02 89.42L45.91 89.57L45.22 88.46C45.1533 88.36 45.1267 88.2667 45.14 88.18C45.1533 88.0933 45.2 88.0267 45.28 87.98C45.36 87.9333 45.44 87.93 45.52 87.97C45.6067 88.01 45.6767 88.0833 45.73 88.19L46.3 89.29H46.2L46.77 88.19C46.83 88.0833 46.9 88.01 46.98 87.97C47.0667 87.93 47.15 87.9333 47.23 87.98C47.31 88.0333 47.3533 88.1033 47.36 88.19C47.3733 88.2767 47.3467 88.37 47.28 88.47L46.59 89.57L46.48 89.42L47.79 89.37C47.91 89.3633 48.0033 89.3867 48.07 89.44C48.1433 89.4867 48.18 89.5567 48.18 89.65C48.18 89.75 48.1433 89.8267 48.07 89.88C48.0033 89.9267 47.91 89.95 47.79 89.95L46.48 89.9L46.59 89.74L47.28 90.84C47.3467 90.94 47.3733 91.0333 47.36 91.12C47.3533 91.2 47.31 91.2633 47.23 91.31C47.1433 91.3633 47.0567 91.37 46.97 91.33C46.89 91.29 46.8233 91.22 46.77 91.12L46.2 90.02H46.3L45.72 91.12C45.6667 91.2267 45.6 91.3 45.52 91.34C45.44 91.38 45.36 91.3733 45.28 91.32Z" fill="#F9F8FF"/>
<path d="M45.28 133.32C45.1933 133.273 45.1433 133.207 45.13 133.12C45.1233 133.033 45.15 132.94 45.21 132.84L45.91 131.74L46.02 131.9L44.71 131.95C44.59 131.95 44.4933 131.927 44.42 131.88C44.3533 131.827 44.32 131.75 44.32 131.65C44.32 131.557 44.3533 131.487 44.42 131.44C44.4933 131.387 44.59 131.363 44.71 131.37L46.02 131.42L45.91 131.57L45.22 130.46C45.1533 130.36 45.1267 130.267 45.14 130.18C45.1533 130.093 45.2 130.027 45.28 129.98C45.36 129.933 45.44 129.93 45.52 129.97C45.6067 130.01 45.6767 130.083 45.73 130.19L46.3 131.29H46.2L46.77 130.19C46.83 130.083 46.9 130.01 46.98 129.97C47.0667 129.93 47.15 129.933 47.23 129.98C47.31 130.033 47.3533 130.103 47.36 130.19C47.3733 130.277 47.3467 130.37 47.28 130.47L46.59 131.57L46.48 131.42L47.79 131.37C47.91 131.363 48.0033 131.387 48.07 131.44C48.1433 131.487 48.18 131.557 48.18 131.65C48.18 131.75 48.1433 131.827 48.07 131.88C48.0033 131.927 47.91 131.95 47.79 131.95L46.48 131.9L46.59 131.74L47.28 132.84C47.3467 132.94 47.3733 133.033 47.36 133.12C47.3533 133.2 47.31 133.263 47.23 133.31C47.1433 133.363 47.0567 133.37 46.97 133.33C46.89 133.29 46.8233 133.22 46.77 133.12L46.2 132.02H46.3L45.72 133.12C45.6667 133.227 45.6 133.3 45.52 133.34C45.44 133.38 45.36 133.373 45.28 133.32Z" fill="white"/>
<defs>
<filter id="filter0_d_73_2469" x="0" y="0" width="210" height="186" filterUnits="userSpaceOnUse" color-interpolation-filters="sRGB">
<feFlood flood-opacity="0" result="BackgroundImageFix"/>
<feColorMatrix in="SourceAlpha" type="matrix" values="0 0 0 0 0 0 0 0 0 0 0 0 0 0 0 0 0 0 127 0" result="hardAlpha"/>
<feOffset dx="5" dy="10"/>
<feGaussianBlur stdDeviation="10.5"/>
<feComposite in2="hardAlpha" operator="out"/>
<feColorMatrix type="matrix" values="0 0 0 0 0.700272 0 0 0 0 0.700272 0 0 0 0 0.700272 0 0 0 0.25 0"/>
<feBlend mode="normal" in2="BackgroundImageFix" result="effect1_dropShadow_73_2469"/>
<feBlend mode="normal" in="SourceGraphic" in2="effect1_dropShadow_73_2469" result="shape"/>
</filter>
</defs>
</svg>
