<svg width="310" height="235" viewBox="0 0 310 235" fill="none" xmlns="http://www.w3.org/2000/svg">
<rect x="50.7617" y="0.951172" width="259.182" height="195.709" fill="#F1F1F1"/>
<rect x="57.1089" y="29.5142" width="246.487" height="162.914" fill="white"/>
<rect x="77.209" y="50.6719" width="204.172" height="118.483" rx="8" fill="#BE3788"/>
<rect x="286.67" y="13.646" width="15.8683" height="4.23154" rx="2.11577" fill="#C4C4C4"/>
<circle cx="59.7536" cy="15.2326" r="2.64471" fill="#C4C4C4"/>
<circle cx="67.1589" cy="15.2326" r="2.64471" fill="#C4C4C4"/>
<circle cx="74.5641" cy="15.2326" r="2.64471" fill="#C4C4C4"/>
<path d="M111.875 114.72C107.818 112.241 102.015 138.948 99.6201 152.611L269.634 152.892C269.54 152.564 269.296 151.822 269.071 151.484C268.93 150.357 268.226 149.23 265.831 145.85C261.662 142.356 257.896 142.985 256.534 143.737C256.065 144.018 254.675 144.835 252.872 145.85C250.393 146.526 248.74 144.441 248.224 143.314C247.801 142.563 246.534 139.849 244.843 135.004C243.491 130.158 241.275 131.388 240.336 132.609C239.96 132.938 238.871 133.877 237.519 135.004C235.152 135.567 233.622 131.858 233.152 129.933C232.166 126.693 229.884 119.509 228.645 116.692C226.955 113.875 224.654 115.237 223.715 116.27C222.353 118.382 219.376 122.974 218.362 124.439C217.348 125.904 216.156 125.895 215.686 125.707C215.263 125.519 214.137 124.89 213.01 123.876C211.883 123.2 210.662 123.594 210.193 123.876C209.817 124.205 208.869 125.031 208.08 125.707C207.094 125.566 207.094 125.707 206.53 125.144C205.742 124.693 204.23 120.167 203.572 117.96C203.338 117.209 202.586 115.199 201.459 113.171C198.417 110.579 196.53 118.852 195.966 123.312C195.403 127.35 194.248 135.821 194.135 137.398C193.994 139.37 193.29 141.342 192.726 143.314C192.022 144.723 191.459 144.159 190.754 143.737C189.515 141.145 187.327 139.37 186.388 138.807C184.744 138.149 181.092 136.553 179.627 135.426C178.162 134.299 176.575 134.675 175.964 135.004C175.542 135.332 174.33 135.99 172.866 135.99C170.837 135.99 169.297 133.079 168.781 131.623C167.983 130.027 166.245 126.496 165.682 125.144C164.978 123.453 164.132 122.045 162.442 120.214C159.766 118.382 158.076 120.636 156.808 122.045C154.977 123.172 153.85 121.904 152.864 120.214C151.737 118.861 149.765 112.326 148.92 109.227C148.544 108.194 147.371 105.17 145.68 101.339C143.314 97.6202 140.656 101.48 139.623 103.874C137.37 109.18 132.665 120.129 131.876 121.481C130.89 123.172 130.327 123.312 128.637 123.312C126.834 123.425 123.754 120.073 122.439 118.382C121.969 118.054 120.861 117.509 120.185 117.96C118.608 119.763 117.368 119.181 116.945 118.664C115.725 117.49 113.002 115.058 111.875 114.72Z" fill="url(#paint0_linear_47_2967)" style="mix-blend-mode:multiply"/>
<path d="M269.374 152.893C269.084 152.893 268.82 152.712 268.73 152.429C266.39 144.978 261.818 143.863 259.305 143.863C257.591 143.863 256.167 144.68 254.906 145.394C253.699 146.085 252.566 146.729 251.359 146.556C247.994 146.07 246.497 141.704 245.164 137.849C244.184 134.999 243.177 132.054 241.78 132.102C241.309 132.117 240.728 132.832 240.175 133.515C239.349 134.528 238.415 135.682 237.018 135.682C234.025 135.682 232.592 130.688 231.077 125.404C229.798 120.937 228.337 115.864 226.224 115.731C224.582 115.605 223.013 118.424 221.58 120.889C219.757 124.014 217.87 127.241 215.276 126.362C214.514 126.103 213.96 125.608 213.47 125.176C212.835 124.611 212.309 124.164 211.493 124.203C210.622 124.25 210.069 124.776 209.488 125.333C208.917 125.883 208.264 126.511 207.329 126.386C205.624 126.158 204.726 123.378 203.583 119.861C202.712 117.16 201.515 113.462 200.291 113.462C197.932 113.462 196.608 123.865 195.737 130.743C194.54 140.149 193.85 145.049 191.519 144.798C190.712 144.703 190.276 143.997 189.777 143.165C189.215 142.238 188.444 140.966 186.839 139.859C186.24 139.451 185.959 139.349 185.451 139.176C184.952 139.003 184.281 138.775 183.056 138.155C181.577 137.409 180.652 136.789 179.972 136.341C179.11 135.768 178.684 135.478 177.886 135.376C176.843 135.242 176.28 135.572 175.618 135.957C175.092 136.263 174.493 136.616 173.659 136.695C170.185 137.017 168.171 132.439 166.23 128.011C164.552 124.203 162.819 120.253 160.524 120.253C159.454 120.253 158.873 120.85 158.211 121.541C157.504 122.271 156.714 123.104 155.308 123.104C152.397 123.104 150.71 117.662 148.75 111.365C147.235 106.482 145.349 100.405 143.362 100.405C141.666 100.405 140.133 104.26 138.183 109.143C136.822 112.551 135.135 116.799 132.84 121.094C131.942 122.782 130.908 123.7 129.674 123.897C128.214 124.14 126.545 123.339 124.44 121.376C124.105 121.062 123.769 120.677 123.434 120.277C122.617 119.319 121.828 118.408 120.921 118.487C120.486 118.518 120.223 118.746 119.878 119.029C119.479 119.358 118.98 119.767 118.209 119.806C116.83 119.837 115.705 118.636 114.617 117.443C113.61 116.343 112.567 115.205 111.505 115.205C108.857 115.205 105.537 126.307 100.403 152.335C100.321 152.712 99.9674 152.948 99.6046 152.877C99.2417 152.806 98.9968 152.461 99.0694 152.1C105.437 119.806 108.258 113.894 111.496 113.894C113.156 113.894 114.463 115.315 115.605 116.571C116.485 117.537 117.438 118.526 118.136 118.495C118.445 118.479 118.644 118.33 118.998 118.031C119.415 117.686 119.941 117.246 120.803 117.183C122.427 117.066 123.506 118.322 124.459 119.445C124.758 119.798 125.057 120.151 125.357 120.434C127.107 122.059 128.441 122.774 129.438 122.609C130.228 122.475 130.944 121.785 131.634 120.497C133.892 116.265 135.57 112.056 136.913 108.672C139.226 102.901 140.75 99.0854 143.362 99.0854C146.337 99.0854 148.052 104.597 150.038 110.981C151.535 115.794 153.394 121.785 155.308 121.785C156.088 121.785 156.551 121.353 157.231 120.638C157.966 119.877 158.873 118.934 160.524 118.934C163.699 118.934 165.522 123.088 167.463 127.485C169.223 131.473 171.028 135.596 173.532 135.376C174.058 135.329 174.466 135.093 174.929 134.818C175.654 134.394 176.552 133.868 178.058 134.064C179.174 134.206 179.827 134.646 180.725 135.25C181.405 135.705 182.258 136.279 183.664 136.985C184.807 137.558 185.414 137.77 185.895 137.935C186.43 138.124 186.866 138.265 187.61 138.783C189.451 140.047 190.349 141.524 190.939 142.497C191.174 142.882 191.528 143.471 191.673 143.486C192.798 143.18 193.769 135.603 194.404 130.586C195.819 119.445 196.998 112.143 200.3 112.143C202.513 112.143 203.656 115.7 204.88 119.468C205.588 121.659 206.658 124.964 207.52 125.082C207.792 125.114 208.091 124.847 208.554 124.391C209.189 123.787 210.051 122.954 211.429 122.884C212.826 122.813 213.652 123.543 214.387 124.195C214.822 124.58 215.23 124.941 215.729 125.114C217.28 125.64 218.877 122.884 220.428 120.23C222.142 117.293 223.947 114.263 226.324 114.412C229.39 114.6 230.841 119.672 232.383 125.043C233.635 129.408 235.05 134.355 237.027 134.355C237.771 134.355 238.46 133.507 239.132 132.683C239.876 131.764 240.647 130.814 241.735 130.775C244.084 130.688 245.2 133.805 246.452 137.425C247.658 140.919 249.019 144.876 251.568 145.245C252.312 145.355 253.201 144.845 254.244 144.248C255.577 143.486 257.237 142.536 259.314 142.536C261.636 142.536 267.333 143.463 270.027 152.037C270.136 152.39 269.936 152.759 269.582 152.869C269.51 152.885 269.437 152.893 269.374 152.893Z" fill="#49BAFD"/>
<path d="M106.1 142.751C103.395 142.976 100.559 149.512 99.4795 152.752C154.461 152.799 265.437 152.893 269.493 152.893C269.493 151.202 269.212 148.432 269.071 147.258C268.93 146.742 268.536 145.343 268.085 143.878C266.958 141.173 265.174 140.403 264.423 140.357C263.859 140.263 262.479 139.99 261.465 139.652C259.774 138.976 258.037 136.084 257.38 134.722L255.971 131.201C255.032 129.088 253.013 124.581 252.45 123.454C251.605 122.045 251.323 121.904 250.337 121.482C248.421 121.031 246.158 126.083 245.266 128.665L242.731 135.567L240.9 140.92C240.148 142.657 238.533 146.272 238.082 146.836C237.519 147.54 237.237 147.399 236.533 146.695C234.955 145.23 233.622 145.427 233.152 145.709C232.965 145.803 232.364 146.075 231.462 146.413C230.335 147.089 229.115 145.474 228.645 144.582C228.035 143.549 226.476 141.089 225.124 139.511C223.433 137.539 222.307 137.821 221.602 137.821C220.363 137.821 218.456 139.511 217.658 140.357C217.47 140.591 216.616 141.371 214.7 142.61C212.785 143.85 210.428 142.094 209.489 141.061L206.531 136.976C206.202 136.6 205.291 135.68 204.277 135.004C202.023 133.595 199.91 136.131 198.783 137.539C198.22 138.666 197.14 138.572 196.671 138.385C196.389 138.291 195.516 137.596 194.276 135.567C192.811 132.863 191.318 127.492 190.755 125.144L187.515 110.777L184.557 97.3952C184.322 96.2214 183.599 93.085 182.585 89.9298C181.317 85.9858 180.613 86.2676 179.768 85.9858C178.078 85.9858 176.622 90.4933 176.106 92.747C174.979 97.5361 172.584 107.734 172.021 110.213C171.57 112.58 169.955 117.115 169.204 119.087C169.157 119.228 168.725 120.045 167.372 122.186C165.4 124.721 164.555 123.454 163.006 122.186C160.301 119.594 157.747 122.045 156.808 123.595L154.273 128.384C154.038 128.712 153.343 129.651 152.442 130.778C150.075 132.469 148.169 130.919 147.512 129.933L143.004 123.172C142.629 122.702 141.596 121.482 140.469 120.355C138.779 119.369 137.652 119.932 136.807 120.355C134.271 121.2 131.172 129.651 130.045 132.187C129.144 134.215 127.698 136.694 127.087 137.68C126.993 137.774 126.524 138.272 125.397 139.511C124.27 140.751 122.768 140.497 122.157 140.216C121.829 140.028 120.664 139.371 118.636 138.244C115.819 137.539 114.129 143.033 113.143 144.3C112.016 145.568 111.593 145.005 110.607 144.441C107.508 142.329 107.367 142.751 106.1 142.751Z" fill="url(#paint1_linear_47_2967)" style="mix-blend-mode:multiply"/>
<path d="M99.7265 152.884C99.6449 152.884 99.5542 152.866 99.4725 152.831C99.1278 152.672 98.9645 152.24 99.1097 151.86C101.623 145.105 104.063 141.82 106.576 141.82C108.281 141.82 109.415 142.677 110.331 143.365C111.093 143.939 111.538 144.257 112.019 144.134C112.844 143.931 113.325 142.862 113.887 141.635C114.495 140.293 115.185 138.774 116.564 137.953C118.224 136.972 119.548 137.802 120.709 138.535C121.453 139.003 122.161 139.454 122.986 139.507C125.889 139.719 128.139 134.65 130.307 129.741C132.657 124.425 134.879 119.41 138.381 119.127C141.347 118.88 143.334 122.2 145.276 125.396C147.072 128.363 148.768 131.171 150.855 130.65C152.433 130.253 153.531 128.222 154.692 126.067C156.134 123.383 157.631 120.611 160.398 120.443C161.976 120.337 162.902 121.193 163.655 121.873C164.244 122.412 164.634 122.739 165.152 122.739H165.161C168.336 122.739 171.003 111.286 173.144 102.085C175.62 91.3833 177.153 85.3259 179.703 85.2817C179.712 85.2817 179.721 85.2817 179.73 85.2817C182.733 85.2817 184.683 93.9528 187.867 109.255C190.344 121.193 193.746 137.538 197.193 137.538C197.202 137.538 197.211 137.538 197.211 137.538C197.81 137.529 198.345 136.919 198.971 136.222C199.914 135.162 201.066 133.829 203.08 133.926C205.557 134.023 206.936 136.134 208.26 138.173C209.449 139.992 210.564 141.705 212.397 142.156C214.411 142.65 215.853 141.211 217.386 139.683C218.974 138.103 220.779 136.301 223.247 137.246C225.342 138.05 226.785 140.399 228.064 142.474C229.461 144.743 230.386 146.094 231.375 145.785C231.584 145.714 231.801 145.582 232.055 145.432C232.672 145.052 233.443 144.593 234.577 144.778C235.648 144.955 236.265 145.599 236.718 146.067C236.872 146.226 237.063 146.421 237.145 146.456C238.061 146.747 240.601 139.427 241.826 135.895C244.982 126.783 247.278 120.787 250.117 120.787C250.144 120.787 250.181 120.787 250.208 120.787C252.403 120.884 253.963 124.672 255.769 129.061C257.628 133.582 259.742 138.694 262.409 139.198C262.482 139.206 262.591 139.215 262.736 139.233C263.561 139.304 265.276 139.445 266.473 140.504C268.106 141.953 270.057 145.14 270.057 152.151C270.057 152.566 269.757 152.893 269.385 152.893C269.013 152.893 268.714 152.557 268.714 152.151C268.714 145.741 267.045 142.915 265.639 141.67C264.759 140.893 263.325 140.778 262.636 140.725C262.436 140.708 262.282 140.699 262.182 140.672C258.808 140.045 256.64 134.774 254.544 129.688C253.129 126.244 251.514 122.341 250.153 122.279C250.144 122.279 250.126 122.279 250.117 122.279C247.985 122.279 245.155 130.456 243.087 136.434C240.311 144.443 238.768 148.593 236.736 147.886C236.364 147.754 236.074 147.454 235.793 147.171C235.412 146.783 235.031 146.376 234.369 146.27C233.688 146.156 233.226 146.438 232.699 146.756C232.4 146.933 232.092 147.127 231.747 147.233C229.742 147.869 228.39 145.67 226.957 143.33C225.805 141.449 224.499 139.312 222.82 138.677C221.097 138.023 219.799 139.312 218.303 140.814C216.67 142.438 214.81 144.284 212.125 143.63C209.793 143.056 208.405 140.937 207.181 139.065C205.938 137.149 204.858 135.507 203.044 135.436C201.665 135.392 200.812 136.31 199.932 137.29C199.17 138.147 198.39 139.03 197.238 139.048C193.047 139.092 190.262 127.445 186.561 109.608C184.556 99.9748 181.825 86.7917 179.739 86.7917H179.73C178.079 86.8182 175.974 95.8777 174.432 102.483C171.828 113.679 169.361 124.257 165.143 124.257C165.133 124.257 165.133 124.257 165.124 124.257C164.108 124.248 163.401 123.613 162.784 123.056C162.094 122.429 161.496 121.9 160.452 121.961C158.411 122.085 157.159 124.407 155.835 126.862C154.583 129.193 153.286 131.595 151.145 132.134C148.16 132.875 146.128 129.511 144.151 126.262C142.427 123.418 140.658 120.505 138.472 120.646C135.741 120.867 133.591 125.723 131.514 130.429C129.146 135.772 126.706 141.317 122.896 141.025C121.771 140.946 120.855 140.363 120.047 139.86C118.877 139.118 118.169 138.73 117.199 139.295C116.201 139.886 115.638 141.123 115.094 142.323C114.441 143.763 113.77 145.246 112.318 145.608C111.257 145.873 110.404 145.237 109.578 144.619C108.735 143.983 107.864 143.33 106.576 143.33C105.514 143.33 103.301 144.513 100.352 152.451C100.244 152.708 99.9896 152.884 99.7265 152.884Z" fill="#FFD546"/>
<rect x="234.561" y="85" width="16.9028" height="67.8929" fill="url(#paint2_linear_47_2967)"/>
<path d="M242.871 125.285L244.701 128.454H241.041L242.871 125.285Z" fill="white"/>
<path d="M242.871 116.271L244.701 119.44H241.041L242.871 116.271Z" fill="white"/>
<path d="M242.871 107.255L244.701 110.425H241.041L242.871 107.255Z" fill="white"/>
<path d="M242.871 98.2402L244.701 101.41H241.041L242.871 98.2402Z" fill="white"/>
<path d="M242.871 89.5078L244.701 92.6771H241.041L242.871 89.5078Z" fill="white"/>
<circle cx="243.012" cy="132.327" r="2.5" fill="white" stroke="#FF358A" stroke-width="0.0708399"/>
<g filter="url(#filter0_d_47_2967)">
<rect x="16.0566" y="113" width="118.429" height="90.887" rx="9" fill="white"/>
</g>
<rect x="26.1553" y="126.771" width="42.2303" height="3.6722" rx="1.8361" fill="#F1F1F1"/>
<rect x="26.1553" y="133.197" width="18.361" height="3.6722" rx="1.8361" fill="#F1F1F1"/>
<rect x="105.108" y="190.116" width="18.361" height="3.6722" rx="1.8361" fill="#F1F1F1"/>
<path d="M53.4566 162C52.1312 162 51.0442 160.923 51.1765 159.604C51.5868 155.514 53.0424 151.584 55.421 148.2C58.2613 144.159 62.2794 141.092 66.9269 139.419C71.5745 137.746 76.6251 137.547 81.3896 138.851C86.1541 140.154 90.4004 142.896 93.549 146.702C96.6976 150.508 98.5951 155.193 98.9827 160.117C99.3702 165.041 98.2289 169.965 95.7144 174.217C93.2 178.469 89.4349 181.841 84.933 183.874C81.1627 185.576 77.0295 186.269 72.9356 185.906C71.6153 185.789 70.7608 184.519 71.0092 183.217C71.2576 181.915 72.5156 181.077 73.8384 181.161C76.9562 181.36 80.0884 180.794 82.9577 179.499C86.5593 177.873 89.5713 175.175 91.5829 171.774C93.5944 168.372 94.5075 164.433 94.1975 160.494C93.8874 156.554 92.3694 152.806 89.8505 149.761C87.3316 146.717 83.9346 144.523 80.123 143.48C76.3114 142.438 72.2709 142.597 68.5529 143.935C64.8348 145.274 61.6204 147.727 59.3482 150.96C57.5379 153.536 56.3959 156.506 56.0064 159.606C55.8412 160.921 54.7821 162 53.4566 162Z" fill="#FF358A"/>
<path d="M68.2255 157.54C68.4335 157.54 68.5935 157.6 68.7055 157.72C68.8175 157.832 68.8735 157.98 68.8735 158.164C68.8735 158.348 68.8175 158.54 68.7055 158.74L64.8775 165.688C64.7175 165.96 64.4975 166.096 64.2175 166.096C64.0255 166.096 63.8535 166.032 63.7015 165.904C63.5575 165.768 63.4855 165.604 63.4855 165.412C63.4855 165.276 63.5255 165.14 63.6055 165.004L67.0495 158.788H63.4255C62.9455 158.788 62.7055 158.584 62.7055 158.176C62.7055 157.752 62.9455 157.54 63.4255 157.54H68.2255ZM74.6048 161.656C75.1008 161.792 75.4808 162.04 75.7448 162.4C76.0168 162.76 76.1528 163.2 76.1528 163.72C76.1528 164.464 75.8728 165.048 75.3128 165.472C74.7528 165.888 73.9768 166.096 72.9848 166.096C71.9928 166.096 71.2168 165.888 70.6568 165.472C70.0968 165.048 69.8168 164.464 69.8168 163.72C69.8168 163.2 69.9528 162.76 70.2248 162.4C70.4968 162.032 70.8808 161.784 71.3768 161.656C70.9528 161.496 70.6208 161.248 70.3808 160.912C70.1408 160.568 70.0208 160.168 70.0208 159.712C70.0208 159.008 70.2848 158.452 70.8128 158.044C71.3408 157.636 72.0648 157.432 72.9848 157.432C73.9048 157.432 74.6288 157.636 75.1568 158.044C75.6848 158.452 75.9488 159.008 75.9488 159.712C75.9488 160.176 75.8288 160.58 75.5888 160.924C75.3488 161.268 75.0208 161.512 74.6048 161.656ZM72.9848 158.644C71.9848 158.644 71.4848 159.052 71.4848 159.868C71.4848 160.276 71.6088 160.588 71.8568 160.804C72.1128 161.012 72.4888 161.116 72.9848 161.116C73.4808 161.116 73.8528 161.012 74.1008 160.804C74.3568 160.588 74.4848 160.276 74.4848 159.868C74.4848 159.052 73.9848 158.644 72.9848 158.644ZM72.9848 164.884C74.1288 164.884 74.7008 164.456 74.7008 163.6C74.7008 162.744 74.1288 162.316 72.9848 162.316C71.8408 162.316 71.2688 162.744 71.2688 163.6C71.2688 164.456 71.8408 164.884 72.9848 164.884ZM80.5641 165.832C80.4921 165.96 80.4041 166.056 80.3001 166.12C80.1961 166.184 80.0921 166.216 79.9881 166.216C79.8441 166.216 79.7161 166.164 79.6041 166.06C79.5001 165.956 79.4481 165.824 79.4481 165.664C79.4481 165.528 79.4881 165.392 79.5681 165.256L83.9361 157.708C84.0081 157.58 84.0961 157.484 84.2001 157.42C84.3041 157.356 84.4081 157.324 84.5121 157.324C84.6561 157.324 84.7801 157.376 84.8841 157.48C84.9961 157.584 85.0521 157.716 85.0521 157.876C85.0521 158.012 85.0121 158.148 84.9321 158.284L80.5641 165.832ZM79.2321 162.592C78.5601 162.592 78.0361 162.372 77.6601 161.932C77.2841 161.492 77.0961 160.848 77.0961 160C77.0961 159.16 77.2841 158.52 77.6601 158.08C78.0361 157.64 78.5601 157.42 79.2321 157.42C79.9041 157.42 80.4281 157.64 80.8041 158.08C81.1881 158.52 81.3801 159.16 81.3801 160C81.3801 160.848 81.1881 161.492 80.8041 161.932C80.4281 162.372 79.9041 162.592 79.2321 162.592ZM79.2321 161.62C79.5361 161.62 79.7561 161.496 79.8921 161.248C80.0361 160.992 80.1081 160.576 80.1081 160C80.1081 159.44 80.0361 159.032 79.8921 158.776C79.7481 158.52 79.5281 158.392 79.2321 158.392C78.9361 158.392 78.7161 158.52 78.5721 158.776C78.4361 159.024 78.3681 159.432 78.3681 160C78.3681 160.576 78.4361 160.992 78.5721 161.248C78.7161 161.496 78.9361 161.62 79.2321 161.62ZM85.2681 166.084C84.5961 166.084 84.0721 165.864 83.6961 165.424C83.3201 164.984 83.1321 164.336 83.1321 163.48C83.1321 162.64 83.3201 162.004 83.6961 161.572C84.0801 161.132 84.6041 160.912 85.2681 160.912C85.9401 160.912 86.4641 161.132 86.8401 161.572C87.2161 162.012 87.4041 162.652 87.4041 163.492C87.4041 164.34 87.2161 164.984 86.8401 165.424C86.4641 165.864 85.9401 166.084 85.2681 166.084ZM85.2681 165.112C85.5641 165.112 85.7841 164.988 85.9281 164.74C86.0721 164.484 86.1441 164.068 86.1441 163.492C86.1441 162.932 86.0721 162.524 85.9281 162.268C85.7841 162.012 85.5641 161.884 85.2681 161.884C84.9721 161.884 84.7521 162.012 84.6081 162.268C84.4641 162.524 84.3921 162.932 84.3921 163.492C84.3921 164.068 84.4641 164.484 84.6081 164.74C84.7521 164.988 84.9721 165.112 85.2681 165.112Z" fill="#141414"/>
<defs>
<filter id="filter0_d_47_2967" x="0.0566406" y="102" width="160.429" height="132.887" filterUnits="userSpaceOnUse" color-interpolation-filters="sRGB">
<feFlood flood-opacity="0" result="BackgroundImageFix"/>
<feColorMatrix in="SourceAlpha" type="matrix" values="0 0 0 0 0 0 0 0 0 0 0 0 0 0 0 0 0 0 127 0" result="hardAlpha"/>
<feOffset dx="5" dy="10"/>
<feGaussianBlur stdDeviation="10.5"/>
<feComposite in2="hardAlpha" operator="out"/>
<feColorMatrix type="matrix" values="0 0 0 0 0.700272 0 0 0 0 0.700272 0 0 0 0 0.700272 0 0 0 0.25 0"/>
<feBlend mode="normal" in2="BackgroundImageFix" result="effect1_dropShadow_47_2967"/>
<feBlend mode="normal" in="SourceGraphic" in2="effect1_dropShadow_47_2967" result="shape"/>
</filter>
<linearGradient id="paint0_linear_47_2967" x1="184.627" y1="99.7939" x2="184.627" y2="152.892" gradientUnits="userSpaceOnUse">
<stop stop-color="#D1EEFF"/>
<stop offset="1" stop-color="#D3EFFF" stop-opacity="0"/>
</linearGradient>
<linearGradient id="paint1_linear_47_2967" x1="184.486" y1="85.9858" x2="184.486" y2="152.893" gradientUnits="userSpaceOnUse">
<stop stop-color="#FFF0BE"/>
<stop offset="1" stop-color="#FFF8DE" stop-opacity="0"/>
</linearGradient>
<linearGradient id="paint2_linear_47_2967" x1="243.012" y1="85" x2="243.012" y2="152.893" gradientUnits="userSpaceOnUse">
<stop stop-color="#FF358A"/>
<stop offset="1" stop-color="#C4C4C4" stop-opacity="0"/>
</linearGradient>
</defs>
</svg>
