<svg width="640" height="557" viewBox="0 0 640 557" fill="none" xmlns="http://www.w3.org/2000/svg">
<path opacity="0.6" d="M239.904 246.046L126 349.161L272.447 392.699L384.026 439.674L363.105 317.081L391 246.046L316.614 211.674L239.904 246.046Z" fill="#E697FF" stroke="#A155B9" stroke-width="2"/>
<path d="M308.683 39.9468V48.6741H307.626V41.0548H307.575L305.444 42.4695V41.3957L307.626 39.9468H308.683ZM314.039 48.7934C313.397 48.7934 312.85 48.6187 312.398 48.2692C311.947 47.917 311.602 47.407 311.363 46.7394C311.124 46.069 311.005 45.2593 311.005 44.3104C311.005 43.3673 311.124 42.5619 311.363 41.8942C311.604 41.2238 311.951 40.7124 312.403 40.3602C312.857 40.005 313.403 39.8275 314.039 39.8275C314.675 39.8275 315.219 40.005 315.671 40.3602C316.126 40.7124 316.472 41.2238 316.711 41.8942C316.952 42.5619 317.073 43.3673 317.073 44.3104C317.073 45.2593 316.954 46.069 316.715 46.7394C316.477 47.407 316.131 47.917 315.68 48.2692C315.228 48.6187 314.681 48.7934 314.039 48.7934ZM314.039 47.8559C314.675 47.8559 315.17 47.5491 315.522 46.9354C315.874 46.3218 316.05 45.4468 316.05 44.3104C316.05 43.5548 315.969 42.9113 315.808 42.38C315.648 41.8488 315.418 41.444 315.117 41.1655C314.819 40.8871 314.46 40.7479 314.039 40.7479C313.408 40.7479 312.915 41.059 312.56 41.6812C312.205 42.3005 312.028 43.1769 312.028 44.3104C312.028 45.0661 312.107 45.7082 312.266 46.2366C312.425 46.765 312.654 47.167 312.952 47.4425C313.254 47.7181 313.616 47.8559 314.039 47.8559ZM321.539 48.7934C320.897 48.7934 320.35 48.6187 319.898 48.2692C319.447 47.917 319.102 47.407 318.863 46.7394C318.624 46.069 318.505 45.2593 318.505 44.3104C318.505 43.3673 318.624 42.5619 318.863 41.8942C319.104 41.2238 319.451 40.7124 319.903 40.3602C320.357 40.005 320.903 39.8275 321.539 39.8275C322.175 39.8275 322.719 40.005 323.171 40.3602C323.626 40.7124 323.972 41.2238 324.211 41.8942C324.452 42.5619 324.573 43.3673 324.573 44.3104C324.573 45.2593 324.454 46.069 324.215 46.7394C323.977 47.407 323.631 47.917 323.18 48.2692C322.728 48.6187 322.181 48.7934 321.539 48.7934ZM321.539 47.8559C322.175 47.8559 322.67 47.5491 323.022 46.9354C323.374 46.3218 323.55 45.4468 323.55 44.3104C323.55 43.5548 323.469 42.9113 323.308 42.38C323.148 41.8488 322.918 41.444 322.617 41.1655C322.319 40.8871 321.96 40.7479 321.539 40.7479C320.908 40.7479 320.415 41.059 320.06 41.6812C319.705 42.3005 319.528 43.1769 319.528 44.3104C319.528 45.0661 319.607 45.7082 319.766 46.2366C319.925 46.765 320.154 47.167 320.452 47.4425C320.754 47.7181 321.116 47.8559 321.539 47.8559Z" fill="#BDBDBD"/>
<path d="M311.252 92.7934C310.666 92.7934 310.149 92.6897 309.7 92.4823C309.254 92.2721 308.906 91.9837 308.656 91.6173C308.406 91.2479 308.283 90.8275 308.286 90.3559C308.283 89.9866 308.355 89.6457 308.503 89.3332C308.651 89.0178 308.852 88.755 309.108 88.5448C309.367 88.3317 309.655 88.1968 309.973 88.14V88.0888C309.556 87.9809 309.223 87.7465 308.976 87.3857C308.729 87.0221 308.607 86.6087 308.61 86.1457C308.607 85.7025 308.719 85.3062 308.946 84.9567C309.173 84.6073 309.486 84.3317 309.884 84.13C310.284 83.9283 310.74 83.8275 311.252 83.8275C311.757 83.8275 312.209 83.9283 312.607 84.13C313.004 84.3317 313.317 84.6073 313.544 84.9567C313.774 85.3062 313.891 85.7025 313.894 86.1457C313.891 86.6087 313.764 87.0221 313.514 87.3857C313.267 87.7465 312.939 87.9809 312.53 88.0888V88.14C312.845 88.1968 313.129 88.3317 313.382 88.5448C313.635 88.755 313.837 89.0178 313.987 89.3332C314.138 89.6457 314.215 89.9866 314.218 90.3559C314.215 90.8275 314.087 91.2479 313.834 91.6173C313.584 91.9837 313.236 92.2721 312.79 92.4823C312.347 92.6897 311.834 92.7934 311.252 92.7934ZM311.252 91.8559C311.646 91.8559 311.987 91.792 312.274 91.6641C312.561 91.5363 312.783 91.3559 312.939 91.1229C313.095 90.89 313.175 90.6173 313.178 90.3048C313.175 89.9752 313.09 89.684 312.922 89.4312C312.754 89.1783 312.526 88.9795 312.236 88.8346C311.949 88.6897 311.621 88.6173 311.252 88.6173C310.879 88.6173 310.547 88.6897 310.254 88.8346C309.965 88.9795 309.736 89.1783 309.568 89.4312C309.404 89.684 309.323 89.9752 309.325 90.3048C309.323 90.6173 309.398 90.89 309.551 91.1229C309.708 91.3559 309.931 91.5363 310.22 91.6641C310.51 91.792 310.854 91.8559 311.252 91.8559ZM311.252 87.7138C311.564 87.7138 311.841 87.6513 312.083 87.5263C312.327 87.4013 312.519 87.2266 312.658 87.0022C312.797 86.7778 312.868 86.515 312.871 86.2138C312.868 85.9184 312.798 85.6613 312.662 85.4425C312.526 85.2209 312.337 85.0505 312.095 84.9312C311.854 84.809 311.573 84.7479 311.252 84.7479C310.925 84.7479 310.639 84.809 310.395 84.9312C310.151 85.0505 309.962 85.2209 309.828 85.4425C309.695 85.6613 309.629 85.9184 309.632 86.2138C309.629 86.515 309.696 86.7778 309.833 87.0022C309.972 87.2266 310.164 87.4013 310.408 87.5263C310.652 87.6513 310.933 87.7138 311.252 87.7138ZM318.697 92.7934C318.055 92.7934 317.508 92.6187 317.057 92.2692C316.605 91.917 316.26 91.407 316.021 90.7394C315.782 90.069 315.663 89.2593 315.663 88.3104C315.663 87.3673 315.782 86.5619 316.021 85.8942C316.263 85.2238 316.609 84.7124 317.061 84.3602C317.515 84.005 318.061 83.8275 318.697 83.8275C319.334 83.8275 319.878 84.005 320.329 84.3602C320.784 84.7124 321.131 85.2238 321.369 85.8942C321.611 86.5619 321.731 87.3673 321.731 88.3104C321.731 89.2593 321.612 90.069 321.373 90.7394C321.135 91.407 320.79 91.917 320.338 92.2692C319.886 92.6187 319.339 92.7934 318.697 92.7934ZM318.697 91.8559C319.334 91.8559 319.828 91.5491 320.18 90.9354C320.532 90.3218 320.709 89.4468 320.709 88.3104C320.709 87.5548 320.628 86.9113 320.466 86.38C320.307 85.8488 320.077 85.444 319.775 85.1655C319.477 84.8871 319.118 84.7479 318.697 84.7479C318.067 84.7479 317.574 85.059 317.219 85.6812C316.863 86.3005 316.686 87.1769 316.686 88.3104C316.686 89.0661 316.765 89.7082 316.925 90.2366C317.084 90.765 317.312 91.167 317.611 91.4425C317.912 91.7181 318.274 91.8559 318.697 91.8559Z" fill="#BDBDBD"/>
<path d="M311.307 130.793C310.949 130.788 310.591 130.72 310.233 130.589C309.875 130.458 309.548 130.238 309.253 129.928C308.958 129.616 308.72 129.194 308.541 128.663C308.362 128.129 308.273 127.458 308.273 126.651C308.273 125.879 308.345 125.194 308.49 124.597C308.635 123.998 308.845 123.494 309.121 123.085C309.396 122.673 309.729 122.36 310.118 122.147C310.51 121.934 310.952 121.827 311.443 121.827C311.932 121.827 312.367 121.925 312.747 122.122C313.131 122.315 313.443 122.585 313.685 122.931C313.926 123.278 314.083 123.677 314.154 124.129H313.114C313.017 123.737 312.83 123.411 312.551 123.153C312.273 122.894 311.904 122.765 311.443 122.765C310.767 122.765 310.235 123.059 309.845 123.647C309.459 124.235 309.264 125.06 309.262 126.123H309.33C309.489 125.881 309.678 125.675 309.896 125.505C310.118 125.332 310.362 125.198 310.629 125.104C310.896 125.011 311.179 124.964 311.477 124.964C311.977 124.964 312.435 125.089 312.85 125.339C313.264 125.586 313.597 125.928 313.847 126.366C314.097 126.8 314.222 127.299 314.222 127.862C314.222 128.401 314.101 128.896 313.86 129.345C313.618 129.791 313.279 130.146 312.841 130.41C312.406 130.671 311.895 130.799 311.307 130.793ZM311.307 129.856C311.665 129.856 311.986 129.766 312.27 129.587C312.557 129.408 312.783 129.168 312.948 128.867C313.115 128.566 313.199 128.231 313.199 127.862C313.199 127.501 313.118 127.173 312.956 126.877C312.797 126.579 312.577 126.342 312.296 126.166C312.017 125.989 311.699 125.901 311.341 125.901C311.071 125.901 310.82 125.955 310.587 126.063C310.354 126.168 310.149 126.313 309.973 126.498C309.8 126.683 309.664 126.894 309.564 127.133C309.465 127.369 309.415 127.617 309.415 127.879C309.415 128.225 309.496 128.549 309.658 128.85C309.823 129.151 310.047 129.394 310.331 129.579C310.618 129.764 310.943 129.856 311.307 129.856ZM318.744 130.793C318.102 130.793 317.555 130.619 317.104 130.269C316.652 129.917 316.307 129.407 316.068 128.739C315.829 128.069 315.71 127.259 315.71 126.31C315.71 125.367 315.829 124.562 316.068 123.894C316.309 123.224 316.656 122.712 317.108 122.36C317.562 122.005 318.108 121.827 318.744 121.827C319.381 121.827 319.925 122.005 320.376 122.36C320.831 122.712 321.177 123.224 321.416 123.894C321.657 124.562 321.778 125.367 321.778 126.31C321.778 127.259 321.659 128.069 321.42 128.739C321.182 129.407 320.836 129.917 320.385 130.269C319.933 130.619 319.386 130.793 318.744 130.793ZM318.744 129.856C319.381 129.856 319.875 129.549 320.227 128.935C320.579 128.322 320.756 127.447 320.756 126.31C320.756 125.555 320.675 124.911 320.513 124.38C320.354 123.849 320.123 123.444 319.822 123.166C319.524 122.887 319.165 122.748 318.744 122.748C318.113 122.748 317.621 123.059 317.265 123.681C316.91 124.3 316.733 125.177 316.733 126.31C316.733 127.066 316.812 127.708 316.971 128.237C317.131 128.765 317.359 129.167 317.657 129.443C317.959 129.718 318.321 129.856 318.744 129.856Z" fill="#BDBDBD"/>
<path d="M308.099 180.884V180.015L311.934 173.947H312.565V175.293H312.139L309.241 179.879V179.947H314.406V180.884H308.099ZM312.207 182.674V180.62V180.215V173.947H313.213V182.674H312.207ZM318.85 182.793C318.208 182.793 317.661 182.619 317.209 182.269C316.757 181.917 316.412 181.407 316.173 180.739C315.935 180.069 315.816 179.259 315.816 178.31C315.816 177.367 315.935 176.562 316.173 175.894C316.415 175.224 316.762 174.712 317.213 174.36C317.668 174.005 318.213 173.827 318.85 173.827C319.486 173.827 320.03 174.005 320.482 174.36C320.936 174.712 321.283 175.224 321.521 175.894C321.763 176.562 321.884 177.367 321.884 178.31C321.884 179.259 321.764 180.069 321.526 180.739C321.287 181.407 320.942 181.917 320.49 182.269C320.039 182.619 319.492 182.793 318.85 182.793ZM318.85 181.856C319.486 181.856 319.98 181.549 320.333 180.935C320.685 180.322 320.861 179.447 320.861 178.31C320.861 177.555 320.78 176.911 320.618 176.38C320.459 175.849 320.229 175.444 319.928 175.166C319.629 174.887 319.27 174.748 318.85 174.748C318.219 174.748 317.726 175.059 317.371 175.681C317.016 176.3 316.838 177.177 316.838 178.31C316.838 179.066 316.918 179.708 317.077 180.237C317.236 180.765 317.465 181.167 317.763 181.443C318.064 181.718 318.426 181.856 318.85 181.856Z" fill="#BDBDBD"/>
<path d="M308.521 231.674V230.907L311.401 227.754C311.739 227.384 312.018 227.063 312.237 226.791C312.455 226.515 312.617 226.256 312.722 226.015C312.83 225.771 312.884 225.515 312.884 225.248C312.884 224.941 312.81 224.675 312.663 224.451C312.518 224.227 312.319 224.053 312.066 223.931C311.813 223.809 311.529 223.748 311.214 223.748C310.879 223.748 310.586 223.818 310.336 223.957C310.089 224.093 309.897 224.285 309.761 224.532C309.627 224.779 309.56 225.069 309.56 225.401H308.555C308.555 224.89 308.673 224.441 308.908 224.055C309.144 223.668 309.465 223.367 309.871 223.151C310.281 222.935 310.739 222.827 311.248 222.827C311.759 222.827 312.212 222.935 312.607 223.151C313.002 223.367 313.312 223.658 313.536 224.025C313.761 224.391 313.873 224.799 313.873 225.248C313.873 225.569 313.815 225.883 313.698 226.19C313.585 226.494 313.386 226.833 313.102 227.208C312.82 227.58 312.43 228.035 311.93 228.572L309.969 230.668V230.737H314.026V231.674H308.521ZM318.633 231.793C317.991 231.793 317.444 231.619 316.992 231.269C316.54 230.917 316.195 230.407 315.957 229.739C315.718 229.069 315.599 228.259 315.599 227.31C315.599 226.367 315.718 225.562 315.957 224.894C316.198 224.224 316.545 223.712 316.996 223.36C317.451 223.005 317.996 222.827 318.633 222.827C319.269 222.827 319.813 223.005 320.265 223.36C320.719 223.712 321.066 224.224 321.305 224.894C321.546 225.562 321.667 226.367 321.667 227.31C321.667 228.259 321.548 229.069 321.309 229.739C321.07 230.407 320.725 230.917 320.273 231.269C319.822 231.619 319.275 231.793 318.633 231.793ZM318.633 230.856C319.269 230.856 319.763 230.549 320.116 229.935C320.468 229.322 320.644 228.447 320.644 227.31C320.644 226.555 320.563 225.911 320.401 225.38C320.242 224.849 320.012 224.444 319.711 224.166C319.413 223.887 319.053 223.748 318.633 223.748C318.002 223.748 317.509 224.059 317.154 224.681C316.799 225.3 316.621 226.177 316.621 227.31C316.621 228.066 316.701 228.708 316.86 229.237C317.019 229.765 317.248 230.167 317.546 230.443C317.847 230.718 318.21 230.856 318.633 230.856Z" fill="#BDBDBD"/>
<path d="M122.067 152.151L316.525 59.7294L510.983 152.151L559.008 359.811L424.442 526.345H208.607L74.0419 359.811L122.067 152.151Z" stroke="#BDBDBD"/>
<path d="M161.953 183.542L316.526 110.077L471.1 183.542L509.274 348.607L402.31 480.983H230.743L123.779 348.607L161.953 183.542Z" stroke="#BDBDBD"/>
<path d="M198.212 212.08L316.526 155.847L434.841 212.08L464.06 338.423L382.187 439.745H250.865L168.993 338.423L198.212 212.08Z" stroke="#BDBDBD"/>
<path d="M239.907 244.898L316.525 208.483L393.142 244.898L412.062 326.71L359.045 392.322H274.004L220.987 326.71L239.907 244.898Z" stroke="#BDBDBD"/>
<path d="M277.979 274.862L316.525 256.542L355.07 274.862L364.588 316.016L337.917 349.022H295.132L268.462 316.016L277.979 274.862Z" stroke="#BDBDBD"/>
<path d="M75.3667 358.972L316.525 305.192L508.989 153.005" stroke="#BDBDBD"/>
<path d="M425.092 526.314L318.368 306.212L125.249 154.836" stroke="#BDBDBD"/>
<path d="M318.308 61.2708L317.531 305.276L208.844 523.759" stroke="#BDBDBD"/>
<path d="M317.686 306.336L557.685 360.116" stroke="#BDBDBD"/>
<path opacity="0.6" d="M206 218.39L317.238 62.6741L352 275.639L425 328.307L335.778 342.047L245.397 449.674L284.794 312.278L206 218.39Z" fill="#63ABFD" stroke="#165BAA" stroke-width="2"/>
<ellipse cx="316.521" cy="62.6085" rx="5.79709" ry="5.72131" fill="#165BAA"/>
<ellipse cx="205.218" cy="218.228" rx="5.79709" ry="5.72129" fill="#165BAA"/>
<ellipse cx="284.058" cy="312.057" rx="5.79709" ry="5.72129" fill="#165BAA"/>
<ellipse cx="244.637" cy="449.369" rx="5.79709" ry="5.72129" fill="#165BAA"/>
<ellipse cx="335.074" cy="341.808" rx="5.79709" ry="5.72132" fill="#165BAA"/>
<ellipse cx="423.187" cy="328.077" rx="5.79709" ry="5.72129" fill="#165BAA"/>
<ellipse cx="351.304" cy="275.441" rx="5.79709" ry="5.72132" fill="#165BAA"/>
<ellipse cx="126.38" cy="348.674" rx="5.79709" ry="5.72132" fill="#A155B9"/>
<ellipse cx="272.464" cy="392.156" rx="5.79709" ry="5.72129" fill="#A155B9"/>
<ellipse cx="383.77" cy="437.926" rx="5.79709" ry="5.72132" fill="#A155B9"/>
<ellipse cx="390.725" cy="245.69" rx="5.79709" ry="5.72132" fill="#A155B9"/>
<ellipse cx="316.521" cy="112.956" rx="5.79709" ry="5.72131" fill="#F765A3"/>
<ellipse cx="471.884" cy="183.9" rx="5.7971" ry="5.72129" fill="#F765A3"/>
<ellipse cx="462.61" cy="337.231" rx="5.79709" ry="5.72129" fill="#F765A3"/>
<ellipse cx="358.262" cy="389.867" rx="5.79709" ry="5.72132" fill="#F765A3"/>
<ellipse cx="362.898" cy="316.634" rx="5.79707" ry="5.72132" fill="#A155B9"/>
<ellipse cx="316.521" cy="211.362" rx="5.79709" ry="5.72132" fill="#A155B9"/>
<ellipse cx="240.001" cy="245.69" rx="5.79709" ry="5.72132" fill="#A155B9"/>
<ellipse cx="358.262" cy="389.867" rx="5.79709" ry="5.72132" fill="#F765A3"/>
<ellipse cx="270.145" cy="314.346" rx="5.79709" ry="5.72129" fill="#F765A3"/>
<ellipse cx="161.162" cy="183.9" rx="5.79708" ry="5.72129" fill="#F765A3"/>
<ellipse cx="295.652" cy="348.674" rx="5.79709" ry="5.72132" fill="#F765A3"/>
<path opacity="0.6" d="M316.523 112.956L161.161 183.9L270.147 314.346L295.654 348.674L358.262 389.867L462.61 337.231L471.885 183.9L316.523 112.956Z" fill="#FFA5CB" stroke="#F765A3" stroke-width="2"/>
<ellipse cx="161.162" cy="183.9" rx="5.79708" ry="5.72129" fill="#16BFD6"/>
<ellipse cx="75.3635" cy="357.828" rx="5.79709" ry="5.72132" fill="#16BFD6"/>
<ellipse cx="295.652" cy="348.674" rx="5.79709" ry="5.72132" fill="#16BFD6"/>
<ellipse cx="362.898" cy="318.923" rx="5.79707" ry="5.72129" fill="#16BFD6"/>
<ellipse cx="511.305" cy="154.149" rx="5.7971" ry="5.72129" fill="#16BFD6"/>
<ellipse cx="316.521" cy="158.726" rx="5.79709" ry="5.72129" fill="#16BFD6"/>
<path opacity="0.6" d="M75.364 357.828L161.161 183.9L316.523 158.727L511.305 154.149L362.899 317.779L295.653 348.674L75.364 357.828Z" fill="#82F0FF" stroke="#16BFD6" stroke-width="2"/>
<path d="M306.374 4.58316H307.959V13.9411C307.959 14.7763 307.806 15.4859 307.499 16.0697C307.192 16.6535 306.76 17.0967 306.201 17.3992C305.643 17.7018 304.985 17.853 304.226 17.853C303.51 17.853 302.873 17.7231 302.315 17.4631C301.757 17.1989 301.318 16.8239 300.998 16.3381C300.679 15.8523 300.519 15.2749 300.519 14.6059H302.078C302.078 14.9766 302.17 15.3005 302.353 15.5775C302.541 15.8502 302.797 16.0633 303.12 16.2167C303.444 16.3701 303.813 16.4468 304.226 16.4468C304.682 16.4468 305.07 16.3509 305.39 16.1592C305.709 15.9674 305.952 15.6861 306.118 15.3154C306.289 14.9404 306.374 14.4823 306.374 13.9411V4.58316ZM313.821 17.9042C313.199 17.9042 312.634 17.787 312.127 17.5526C311.62 17.314 311.217 16.9709 310.919 16.5235C310.62 16.0718 310.471 15.5263 310.471 14.8871C310.471 14.3246 310.582 13.8687 310.804 13.5192C311.025 13.1655 311.321 12.8886 311.692 12.6883C312.063 12.488 312.472 12.3388 312.919 12.2408C313.371 12.1386 313.825 12.0576 314.281 11.9979C314.877 11.9212 315.361 11.8637 315.732 11.8254C316.107 11.7827 316.38 11.7124 316.55 11.6144C316.725 11.5164 316.812 11.3459 316.812 11.103V11.0519C316.812 10.4212 316.64 9.93117 316.294 9.58174C315.953 9.23231 315.436 9.05759 314.741 9.05759C314.021 9.05759 313.456 9.21527 313.047 9.53061C312.638 9.84595 312.35 10.1826 312.184 10.5405L310.752 10.0292C311.008 9.43259 311.349 8.96811 311.775 8.63572C312.206 8.29907 312.674 8.0647 313.181 7.93259C313.693 7.79623 314.196 7.72805 314.69 7.72805C315.005 7.72805 315.368 7.7664 315.777 7.84311C316.19 7.91555 316.588 8.06683 316.972 8.29694C317.36 8.52706 317.681 8.87436 317.937 9.33884C318.193 9.80333 318.321 10.4255 318.321 11.2053V17.6741H316.812V16.3445H316.735C316.633 16.5576 316.463 16.7856 316.224 17.0285C315.985 17.2714 315.668 17.478 315.272 17.6485C314.875 17.819 314.392 17.9042 313.821 17.9042ZM314.051 16.5491C314.647 16.5491 315.15 16.4319 315.559 16.1975C315.973 15.9631 316.284 15.6606 316.493 15.2898C316.706 14.9191 316.812 14.5292 316.812 14.1201V12.7394C316.748 12.8161 316.608 12.8864 316.39 12.9504C316.177 13.01 315.93 13.0633 315.649 13.1102C315.372 13.1528 315.101 13.1911 314.837 13.2252C314.577 13.255 314.366 13.2806 314.204 13.3019C313.812 13.353 313.446 13.4361 313.105 13.5512C312.768 13.662 312.495 13.8303 312.287 14.0562C312.082 14.2778 311.98 14.5803 311.98 14.9638C311.98 15.488 312.174 15.8843 312.561 16.1528C312.953 16.417 313.45 16.5491 314.051 16.5491ZM322.583 11.7678V17.6741H321.074V7.85589H322.531V9.38998H322.659C322.889 8.8914 323.239 8.49083 323.708 8.18828C324.176 7.88146 324.781 7.72805 325.523 7.72805C326.188 7.72805 326.769 7.86441 327.268 8.13714C327.767 8.40561 328.154 8.8147 328.431 9.36441C328.708 9.90987 328.847 10.6002 328.847 11.4354V17.6741H327.338V11.5377C327.338 10.7664 327.138 10.1655 326.737 9.73515C326.337 9.30049 325.787 9.08316 325.088 9.08316C324.607 9.08316 324.176 9.18757 323.797 9.39637C323.422 9.60518 323.126 9.90987 322.909 10.3104C322.691 10.711 322.583 11.1968 322.583 11.7678Z" fill="#BDBDBD"/>
<path d="M530.835 136.674V123.583H538.685V124.989H532.42V129.413H538.097V130.819H532.42V136.674H530.835ZM544.591 136.879C543.645 136.879 542.829 136.67 542.143 136.252C541.461 135.83 540.935 135.242 540.564 134.488C540.197 133.729 540.014 132.847 540.014 131.842C540.014 130.836 540.197 129.95 540.564 129.183C540.935 128.411 541.45 127.81 542.111 127.38C542.776 126.945 543.551 126.728 544.438 126.728C544.949 126.728 545.454 126.813 545.952 126.984C546.451 127.154 546.905 127.431 547.314 127.815C547.723 128.194 548.049 128.697 548.292 129.323C548.535 129.95 548.656 130.721 548.656 131.637V132.276H541.088V130.972H547.122C547.122 130.418 547.011 129.924 546.79 129.489C546.572 129.055 546.261 128.712 545.857 128.46C545.456 128.209 544.983 128.083 544.438 128.083C543.837 128.083 543.317 128.232 542.878 128.531C542.443 128.825 542.109 129.208 541.874 129.681C541.64 130.154 541.523 130.661 541.523 131.202V132.072C541.523 132.813 541.651 133.442 541.906 133.957C542.166 134.469 542.526 134.859 542.987 135.127C543.447 135.391 543.982 135.524 544.591 135.524C544.987 135.524 545.345 135.468 545.665 135.357C545.989 135.242 546.268 135.072 546.502 134.846C546.737 134.616 546.918 134.33 547.045 133.989L548.503 134.399C548.349 134.893 548.092 135.327 547.729 135.702C547.367 136.073 546.92 136.363 546.387 136.572C545.854 136.776 545.256 136.879 544.591 136.879ZM551.156 136.674V123.583H552.664V128.416H552.792C552.903 128.245 553.056 128.028 553.252 127.764C553.452 127.495 553.738 127.256 554.109 127.048C554.484 126.835 554.991 126.728 555.63 126.728C556.457 126.728 557.185 126.935 557.816 127.348C558.447 127.761 558.939 128.347 559.293 129.106C559.646 129.864 559.823 130.759 559.823 131.791C559.823 132.83 559.646 133.732 559.293 134.494C558.939 135.253 558.449 135.841 557.822 136.259C557.196 136.672 556.474 136.879 555.656 136.879C555.025 136.879 554.52 136.774 554.141 136.565C553.761 136.352 553.469 136.112 553.265 135.843C553.06 135.57 552.903 135.345 552.792 135.166H552.613V136.674H551.156ZM552.638 131.765C552.638 132.506 552.747 133.161 552.964 133.727C553.182 134.29 553.499 134.731 553.917 135.05C554.335 135.366 554.846 135.524 555.451 135.524C556.082 135.524 556.608 135.357 557.03 135.025C557.456 134.688 557.776 134.237 557.989 133.67C558.206 133.099 558.315 132.464 558.315 131.765C558.315 131.075 558.208 130.452 557.995 129.899C557.786 129.34 557.469 128.899 557.043 128.575C556.621 128.247 556.09 128.083 555.451 128.083C554.837 128.083 554.322 128.239 553.904 128.55C553.487 128.857 553.171 129.287 552.958 129.841C552.745 130.391 552.638 131.032 552.638 131.765Z" fill="#BDBDBD"/>
<path d="M588.158 338.583H590.051L594.499 349.45H594.653L599.102 338.583H600.994V351.674H599.511V341.728H599.383L595.292 351.674H593.86L589.769 341.728H589.641V351.674H588.158V338.583ZM606.857 351.904C606.235 351.904 605.67 351.787 605.163 351.553C604.656 351.314 604.253 350.971 603.955 350.524C603.657 350.072 603.507 349.526 603.507 348.887C603.507 348.325 603.618 347.869 603.84 347.519C604.061 347.166 604.358 346.889 604.728 346.688C605.099 346.488 605.508 346.339 605.956 346.241C606.407 346.139 606.861 346.058 607.317 345.998C607.914 345.921 608.397 345.864 608.768 345.825C609.143 345.783 609.416 345.712 609.586 345.614C609.761 345.516 609.848 345.346 609.848 345.103V345.052C609.848 344.421 609.676 343.931 609.331 343.582C608.99 343.232 608.472 343.058 607.777 343.058C607.057 343.058 606.492 343.215 606.083 343.531C605.674 343.846 605.387 344.183 605.22 344.541L603.789 344.029C604.044 343.433 604.385 342.968 604.811 342.636C605.242 342.299 605.71 342.065 606.218 341.933C606.729 341.796 607.232 341.728 607.726 341.728C608.041 341.728 608.404 341.766 608.813 341.843C609.226 341.916 609.625 342.067 610.008 342.297C610.396 342.527 610.718 342.874 610.973 343.339C611.229 343.803 611.357 344.425 611.357 345.205V351.674H609.848V350.345H609.772C609.669 350.558 609.499 350.786 609.26 351.028C609.022 351.271 608.704 351.478 608.308 351.649C607.911 351.819 607.428 351.904 606.857 351.904ZM607.087 350.549C607.684 350.549 608.186 350.432 608.595 350.198C609.009 349.963 609.32 349.661 609.529 349.29C609.742 348.919 609.848 348.529 609.848 348.12V346.739C609.784 346.816 609.644 346.886 609.426 346.95C609.213 347.01 608.966 347.063 608.685 347.11C608.408 347.153 608.137 347.191 607.873 347.225C607.613 347.255 607.402 347.281 607.24 347.302C606.848 347.353 606.482 347.436 606.141 347.551C605.804 347.662 605.532 347.83 605.323 348.056C605.118 348.278 605.016 348.58 605.016 348.964C605.016 349.488 605.21 349.884 605.598 350.153C605.99 350.417 606.486 350.549 607.087 350.549ZM614.11 351.674V341.856H615.568V343.339H615.67C615.849 342.853 616.173 342.459 616.641 342.156C617.11 341.854 617.639 341.702 618.227 341.702C618.337 341.702 618.476 341.705 618.642 341.709C618.808 341.713 618.934 341.72 619.019 341.728V343.262C618.968 343.249 618.851 343.23 618.668 343.205C618.489 343.175 618.299 343.16 618.099 343.16C617.622 343.16 617.195 343.26 616.82 343.46C616.45 343.656 616.156 343.929 615.938 344.278C615.725 344.624 615.619 345.018 615.619 345.461V351.674H614.11Z" fill="#BDBDBD"/>
<path d="M448.707 552.674H447.045L451.852 539.583H453.488L458.295 552.674H456.633L452.721 541.654H452.619L448.707 552.674ZM449.321 547.56H456.02V548.967H449.321V547.56ZM460.13 556.356V542.856H461.587V544.416H461.766C461.877 544.245 462.03 544.028 462.226 543.764C462.427 543.495 462.712 543.256 463.083 543.048C463.458 542.835 463.965 542.728 464.604 542.728C465.431 542.728 466.16 542.935 466.79 543.348C467.421 543.761 467.913 544.347 468.267 545.106C468.62 545.864 468.797 546.759 468.797 547.791C468.797 548.83 468.62 549.732 468.267 550.494C467.913 551.253 467.423 551.841 466.797 552.259C466.17 552.672 465.448 552.879 464.63 552.879C463.999 552.879 463.494 552.774 463.115 552.565C462.736 552.352 462.444 552.112 462.239 551.843C462.035 551.57 461.877 551.345 461.766 551.166H461.638V556.356H460.13ZM461.613 547.765C461.613 548.506 461.721 549.161 461.939 549.727C462.156 550.29 462.473 550.731 462.891 551.05C463.309 551.366 463.82 551.524 464.425 551.524C465.056 551.524 465.582 551.357 466.004 551.025C466.43 550.688 466.75 550.237 466.963 549.67C467.18 549.099 467.289 548.464 467.289 547.765C467.289 547.075 467.182 546.452 466.969 545.899C466.76 545.34 466.443 544.899 466.017 544.575C465.595 544.247 465.064 544.083 464.425 544.083C463.812 544.083 463.296 544.239 462.878 544.55C462.461 544.857 462.145 545.287 461.932 545.841C461.719 546.391 461.613 547.032 461.613 547.765ZM471.098 552.674V542.856H472.556V544.339H472.658C472.837 543.853 473.161 543.459 473.63 543.156C474.098 542.854 474.627 542.702 475.215 542.702C475.326 542.702 475.464 542.705 475.63 542.709C475.797 542.713 475.922 542.72 476.008 542.728V544.262C475.956 544.249 475.839 544.23 475.656 544.205C475.477 544.175 475.287 544.16 475.087 544.16C474.61 544.16 474.184 544.26 473.809 544.46C473.438 544.656 473.144 544.929 472.927 545.278C472.714 545.624 472.607 546.018 472.607 546.461V552.674H471.098Z" fill="#BDBDBD"/>
<path d="M164.673 537.583H166.565L171.014 548.45H171.167L175.616 537.583H177.508V550.674H176.025V540.728H175.898L171.807 550.674H170.375L166.284 540.728H166.156V550.674H164.673V537.583ZM183.371 550.904C182.749 550.904 182.185 550.787 181.678 550.553C181.17 550.314 180.768 549.971 180.469 549.524C180.171 549.072 180.022 548.526 180.022 547.887C180.022 547.325 180.133 546.869 180.354 546.519C180.576 546.166 180.872 545.889 181.243 545.688C181.614 545.488 182.023 545.339 182.47 545.241C182.922 545.139 183.376 545.058 183.832 544.998C184.428 544.921 184.912 544.864 185.283 544.825C185.658 544.783 185.93 544.712 186.101 544.614C186.276 544.516 186.363 544.346 186.363 544.103V544.052C186.363 543.421 186.19 542.931 185.845 542.582C185.504 542.232 184.987 542.058 184.292 542.058C183.572 542.058 183.007 542.215 182.598 542.531C182.189 542.846 181.901 543.183 181.735 543.541L180.303 543.029C180.559 542.433 180.9 541.968 181.326 541.636C181.756 541.299 182.225 541.065 182.732 540.933C183.244 540.796 183.746 540.728 184.241 540.728C184.556 540.728 184.918 540.766 185.327 540.843C185.741 540.916 186.139 541.067 186.523 541.297C186.911 541.527 187.232 541.874 187.488 542.339C187.744 542.803 187.871 543.425 187.871 544.205V550.674H186.363V549.345H186.286C186.184 549.558 186.013 549.786 185.775 550.028C185.536 550.271 185.219 550.478 184.822 550.649C184.426 550.819 183.942 550.904 183.371 550.904ZM183.602 549.549C184.198 549.549 184.701 549.432 185.11 549.198C185.523 548.963 185.835 548.661 186.043 548.29C186.256 547.919 186.363 547.529 186.363 547.12V545.739C186.299 545.816 186.158 545.886 185.941 545.95C185.728 546.01 185.481 546.063 185.2 546.11C184.923 546.153 184.652 546.191 184.388 546.225C184.128 546.255 183.917 546.281 183.755 546.302C183.363 546.353 182.996 546.436 182.656 546.551C182.319 546.662 182.046 546.83 181.837 547.056C181.633 547.278 181.531 547.58 181.531 547.964C181.531 548.488 181.724 548.884 182.112 549.153C182.504 549.417 183.001 549.549 183.602 549.549ZM191.245 554.356C190.989 554.356 190.761 554.335 190.561 554.292C190.361 554.254 190.222 554.215 190.145 554.177L190.529 552.847C190.895 552.941 191.219 552.975 191.501 552.95C191.782 552.924 192.031 552.798 192.248 552.573C192.47 552.351 192.672 551.991 192.856 551.492L193.137 550.725L189.506 540.856H191.143L193.853 548.68H193.955L196.665 540.856H198.302L194.134 552.106C193.947 552.613 193.714 553.033 193.437 553.365C193.16 553.702 192.839 553.951 192.472 554.113C192.11 554.275 191.701 554.356 191.245 554.356Z" fill="#BDBDBD"/>
<path d="M28.2157 329.583H29.801V338.941C29.801 339.776 29.6475 340.486 29.3407 341.07C29.0339 341.653 28.6014 342.097 28.0431 342.399C27.4849 342.702 26.8265 342.853 26.068 342.853C25.3521 342.853 24.715 342.723 24.1568 342.463C23.5985 342.199 23.1596 341.824 22.84 341.338C22.5204 340.852 22.3606 340.275 22.3606 339.606H23.9203C23.9203 339.977 24.0119 340.3 24.1951 340.577C24.3826 340.85 24.6383 341.063 24.9622 341.217C25.286 341.37 25.6547 341.447 26.068 341.447C26.524 341.447 26.9118 341.351 27.2314 341.159C27.551 340.967 27.7939 340.686 27.9601 340.315C28.1305 339.94 28.2157 339.482 28.2157 338.941V329.583ZM38.9608 338.66V332.856H40.4693V342.674H38.9608V341.012H38.8585C38.6284 341.511 38.2704 341.935 37.7846 342.284C37.2988 342.629 36.6852 342.802 35.9437 342.802C35.3301 342.802 34.7846 342.668 34.3074 342.399C33.8301 342.126 33.4551 341.717 33.1824 341.172C32.9096 340.622 32.7733 339.93 32.7733 339.095V332.856H34.2818V338.992C34.2818 339.708 34.4821 340.279 34.8826 340.705C35.2875 341.131 35.8031 341.345 36.4295 341.345C36.8045 341.345 37.1859 341.249 37.5737 341.057C37.9657 340.865 38.2939 340.571 38.5581 340.175C38.8265 339.778 38.9608 339.274 38.9608 338.66ZM44.7408 336.768V342.674H43.2322V332.856H44.6896V334.39H44.8175C45.0476 333.891 45.397 333.491 45.8658 333.188C46.3345 332.881 46.9396 332.728 47.6811 332.728C48.3459 332.728 48.9276 332.864 49.4261 333.137C49.9247 333.406 50.3125 333.815 50.5895 334.364C50.8665 334.91 51.005 335.6 51.005 336.435V342.674H49.4964V336.538C49.4964 335.766 49.2962 335.166 48.8956 334.735C48.495 334.3 47.9453 334.083 47.2464 334.083C46.7649 334.083 46.3345 334.188 45.9553 334.396C45.5803 334.605 45.2841 334.91 45.0668 335.31C44.8494 335.711 44.7408 336.197 44.7408 336.768Z" fill="#BDBDBD"/>
<path d="M82.8446 120.583H84.4299V129.941C84.4299 130.776 84.2765 131.486 83.9696 132.07C83.6628 132.653 83.2303 133.097 82.6721 133.399C82.1138 133.702 81.4554 133.853 80.6969 133.853C79.981 133.853 79.3439 133.723 78.7857 133.463C78.2275 133.199 77.7885 132.824 77.4689 132.338C77.1493 131.852 76.9895 131.275 76.9895 130.606H78.5492C78.5492 130.977 78.6408 131.3 78.824 131.577C79.0115 131.85 79.2672 132.063 79.5911 132.217C79.915 132.37 80.2836 132.447 80.6969 132.447C81.1529 132.447 81.5407 132.351 81.8603 132.159C82.1799 131.967 82.4228 131.686 82.589 131.315C82.7594 130.94 82.8446 130.482 82.8446 129.941V120.583ZM93.5897 129.66V123.856H95.0982V133.674H93.5897V132.012H93.4874C93.2573 132.511 92.8993 132.935 92.4135 133.284C91.9277 133.629 91.3141 133.802 90.5726 133.802C89.959 133.802 89.4135 133.668 88.9363 133.399C88.459 133.126 88.084 132.717 87.8113 132.172C87.5385 131.622 87.4022 130.93 87.4022 130.095V123.856H88.9107V129.992C88.9107 130.708 89.111 131.279 89.5115 131.705C89.9164 132.131 90.432 132.345 91.0584 132.345C91.4334 132.345 91.8148 132.249 92.2026 132.057C92.5946 131.865 92.9228 131.571 93.187 131.175C93.4554 130.778 93.5897 130.274 93.5897 129.66ZM99.3697 120.583V133.674H97.8612V120.583H99.3697Z" fill="#BDBDBD"/>
</svg>
