<svg width="922" height="591" viewBox="0 0 922 591" fill="none" xmlns="http://www.w3.org/2000/svg">
<g clip-path="url(#clip0_35_5748)">
<mask id="mask0_35_5748" style="mask-type:alpha" maskUnits="userSpaceOnUse" x="52" y="1" width="801" height="572">
<rect x="52" y="1" width="801" height="572" fill="white"/>
</mask>
<g mask="url(#mask0_35_5748)">
<path d="M111.118 253.37C107.29 253.37 103.884 252.749 100.901 251.506C97.9349 250.246 95.6065 248.531 93.9162 246.36C92.2259 244.189 91.3807 241.728 91.3807 238.977C91.3807 236.856 91.8613 234.909 92.8224 233.136C93.8002 231.346 95.1259 229.863 96.7997 228.686C98.4735 227.493 100.346 226.731 102.418 226.399V226.051C99.6998 225.504 97.4957 224.187 95.8054 222.099C94.1151 219.994 93.2699 217.55 93.2699 214.766C93.2699 212.131 94.0405 209.786 95.5817 207.731C97.1229 205.659 99.2358 204.035 101.92 202.859C104.622 201.666 107.688 201.069 111.118 201.069C114.548 201.069 117.606 201.666 120.29 202.859C122.992 204.052 125.113 205.684 126.654 207.756C128.195 209.811 128.974 212.147 128.991 214.766C128.974 217.566 128.112 220.011 126.406 222.099C124.699 224.187 122.511 225.504 119.843 226.051V226.399C121.881 226.731 123.729 227.493 125.386 228.686C127.06 229.863 128.386 231.346 129.364 233.136C130.358 234.909 130.863 236.856 130.88 238.977C130.863 241.728 130.01 244.189 128.32 246.36C126.629 248.531 124.293 250.246 121.31 251.506C118.343 252.749 114.946 253.37 111.118 253.37ZM111.118 245.465C112.825 245.465 114.316 245.159 115.592 244.546C116.868 243.916 117.863 243.054 118.575 241.96C119.304 240.85 119.669 239.574 119.669 238.132C119.669 236.657 119.296 235.356 118.55 234.229C117.805 233.086 116.794 232.191 115.518 231.545C114.242 230.882 112.775 230.55 111.118 230.55C109.477 230.55 108.011 230.882 106.718 231.545C105.425 232.191 104.406 233.086 103.661 234.229C102.931 235.356 102.567 236.657 102.567 238.132C102.567 239.574 102.923 240.85 103.636 241.96C104.348 243.054 105.351 243.916 106.643 244.546C107.936 245.159 109.428 245.465 111.118 245.465ZM111.118 222.72C112.543 222.72 113.811 222.43 114.921 221.85C116.031 221.27 116.902 220.466 117.531 219.439C118.161 218.412 118.476 217.227 118.476 215.884C118.476 214.559 118.161 213.399 117.531 212.404C116.902 211.393 116.04 210.606 114.946 210.043C113.852 209.463 112.576 209.173 111.118 209.173C109.676 209.173 108.4 209.463 107.29 210.043C106.179 210.606 105.309 211.393 104.68 212.404C104.067 213.399 103.76 214.559 103.76 215.884C103.76 217.227 104.075 218.412 104.705 219.439C105.334 220.466 106.204 221.27 107.315 221.85C108.425 222.43 109.693 222.72 111.118 222.72ZM157.944 253.37C155.326 253.354 152.798 252.914 150.362 252.053C147.943 251.191 145.772 249.791 143.85 247.852C141.927 245.913 140.403 243.344 139.276 240.146C138.165 236.947 137.61 233.02 137.61 228.363C137.627 224.087 138.116 220.268 139.077 216.903C140.055 213.523 141.447 210.656 143.253 208.303C145.076 205.949 147.255 204.16 149.791 202.933C152.326 201.69 155.168 201.069 158.317 201.069C161.714 201.069 164.714 201.732 167.316 203.058C169.917 204.367 172.005 206.148 173.58 208.402C175.171 210.656 176.132 213.183 176.463 215.984H165.849C165.435 214.211 164.565 212.818 163.239 211.808C161.913 210.797 160.272 210.291 158.317 210.291C155.003 210.291 152.484 211.733 150.76 214.617C149.053 217.5 148.183 221.419 148.15 226.374H148.498C149.26 224.866 150.288 223.582 151.58 222.521C152.89 221.444 154.373 220.624 156.03 220.06C157.704 219.48 159.469 219.19 161.325 219.19C164.341 219.19 167.026 219.903 169.379 221.328C171.732 222.737 173.588 224.676 174.947 227.145C176.306 229.614 176.985 232.44 176.985 235.622C176.985 239.068 176.182 242.134 174.574 244.819C172.983 247.504 170.754 249.608 167.887 251.133C165.037 252.641 161.722 253.387 157.944 253.37ZM157.894 244.918C159.552 244.918 161.035 244.521 162.344 243.725C163.653 242.93 164.681 241.853 165.426 240.494C166.172 239.135 166.545 237.61 166.545 235.92C166.545 234.229 166.172 232.713 165.426 231.371C164.697 230.028 163.686 228.96 162.394 228.164C161.101 227.369 159.626 226.971 157.969 226.971C156.726 226.971 155.574 227.203 154.514 227.667C153.47 228.131 152.55 228.777 151.754 229.606C150.976 230.434 150.362 231.396 149.915 232.489C149.468 233.567 149.244 234.718 149.244 235.945C149.244 237.585 149.617 239.085 150.362 240.444C151.125 241.803 152.152 242.888 153.445 243.7C154.754 244.512 156.237 244.918 157.894 244.918ZM212.482 243.129V240.444C212.482 238.406 212.913 236.533 213.775 234.826C214.653 233.103 215.921 231.727 217.578 230.7C219.252 229.656 221.29 229.134 223.693 229.134C226.129 229.134 228.176 229.647 229.833 230.675C231.507 231.702 232.767 233.078 233.612 234.801C234.473 236.508 234.904 238.389 234.904 240.444V243.129C234.904 245.167 234.473 247.048 233.612 248.771C232.75 250.478 231.482 251.845 229.808 252.873C228.135 253.917 226.096 254.439 223.693 254.439C221.257 254.439 219.211 253.917 217.553 252.873C215.896 251.845 214.637 250.478 213.775 248.771C212.913 247.048 212.482 245.167 212.482 243.129ZM219.716 240.444V243.129C219.716 244.305 219.998 245.416 220.561 246.46C221.141 247.504 222.185 248.026 223.693 248.026C225.201 248.026 226.229 247.512 226.776 246.484C227.339 245.457 227.621 244.338 227.621 243.129V240.444C227.621 239.234 227.356 238.107 226.825 237.063C226.295 236.019 225.251 235.497 223.693 235.497C222.202 235.497 221.166 236.019 220.586 237.063C220.006 238.107 219.716 239.234 219.716 240.444ZM186.357 213.995V211.31C186.357 209.256 186.796 207.375 187.674 205.668C188.552 203.944 189.82 202.569 191.477 201.541C193.151 200.514 195.173 200 197.543 200C199.995 200 202.05 200.514 203.708 201.541C205.365 202.569 206.624 203.944 207.486 205.668C208.348 207.375 208.779 209.256 208.779 211.31V213.995C208.779 216.05 208.339 217.931 207.461 219.638C206.599 221.345 205.332 222.712 203.658 223.739C202.001 224.75 199.962 225.256 197.543 225.256C195.123 225.256 193.077 224.742 191.403 223.715C189.746 222.671 188.486 221.303 187.624 219.613C186.779 217.906 186.357 216.033 186.357 213.995ZM193.64 211.31V213.995C193.64 215.205 193.922 216.323 194.485 217.351C195.065 218.378 196.084 218.892 197.543 218.892C199.067 218.892 200.103 218.378 200.65 217.351C201.213 216.323 201.495 215.205 201.495 213.995V211.31C201.495 210.101 201.23 208.974 200.7 207.93C200.169 206.886 199.117 206.364 197.543 206.364C196.068 206.364 195.049 206.894 194.485 207.955C193.922 209.015 193.64 210.134 193.64 211.31ZM189.638 252.674L224.638 201.765H231.151L196.151 252.674H189.638Z" fill="#0E0E0E"/>
<path opacity="0.1" fill-rule="evenodd" clip-rule="evenodd" d="M88.2969 423.419C88.2969 423.419 116.628 412.37 148.838 438.913C210.1 489.394 213.595 396.95 236.312 352.376C257.095 311.595 274.307 336.477 297.448 386.349C314.515 423.131 339.388 484.874 365.147 474.934C388.694 465.848 405.386 393.432 438.024 375.015C463.891 360.419 484.913 400.519 514.699 386.349C555.107 367.125 573.157 253.955 602.036 253.955C637.68 253.955 662.776 158.24 695.202 158.24C727.436 158.24 731.811 214.523 767.072 253.955C794.029 284.101 807 253.955 807 253.955V576.995H88.2969V423.419Z" fill="url(#paint0_linear_35_5748)"/>
<path d="M88.2969 373.243C88.2969 373.243 116.628 362.354 148.838 388.512C210.1 438.263 213.595 347.158 236.312 303.228C257.095 263.038 274.307 287.56 297.448 336.709C314.515 372.959 339.388 433.809 365.147 424.013C388.694 415.058 405.386 343.69 438.024 325.54C463.891 311.155 484.913 350.675 514.699 336.709C555.107 317.764 573.157 206.232 602.036 206.232C637.68 206.232 662.776 111.674 695.202 111.674C727.436 111.674 729.149 167.37 764.41 206.232C791.367 235.942 807 206.232 807 206.232" stroke="#1B59F8" stroke-width="5" stroke-linecap="round" stroke-linejoin="round"/>
</g>
<mask id="mask1_35_5748" style="mask-type:alpha" maskUnits="userSpaceOnUse" x="175" y="1" width="24" height="557">
<rect x="175" y="1" width="24" height="557" fill="white"/>
</mask>
<g mask="url(#mask1_35_5748)">
<path d="M203.216 330.692H204.801V340.05C204.801 340.885 204.648 341.595 204.341 342.178C204.034 342.762 203.601 343.205 203.043 343.508C202.485 343.81 201.827 343.962 201.068 343.962C200.352 343.962 199.715 343.832 199.157 343.572C198.599 343.308 198.16 342.933 197.84 342.447C197.52 341.961 197.361 341.384 197.361 340.715H198.92C198.92 341.085 199.012 341.409 199.195 341.686C199.383 341.959 199.638 342.172 199.962 342.325C200.286 342.479 200.655 342.555 201.068 342.555C201.524 342.555 201.912 342.46 202.231 342.268C202.551 342.076 202.794 341.795 202.96 341.424C203.131 341.049 203.216 340.591 203.216 340.05V330.692ZM213.961 339.769V333.965H215.469V343.783H213.961V342.121H213.858C213.628 342.619 213.27 343.043 212.785 343.393C212.299 343.738 211.685 343.911 210.944 343.911C210.33 343.911 209.785 343.776 209.307 343.508C208.83 343.235 208.455 342.826 208.182 342.281C207.91 341.731 207.773 341.038 207.773 340.203V333.965H209.282V340.101C209.282 340.817 209.482 341.388 209.883 341.814C210.287 342.24 210.803 342.453 211.43 342.453C211.805 342.453 212.186 342.357 212.574 342.166C212.966 341.974 213.294 341.68 213.558 341.283C213.827 340.887 213.961 340.382 213.961 339.769ZM219.741 337.876V343.783H218.232V333.965H219.69V335.499H219.817C220.048 335 220.397 334.599 220.866 334.297C221.335 333.99 221.94 333.837 222.681 333.837C223.346 333.837 223.928 333.973 224.426 334.246C224.925 334.514 225.313 334.923 225.589 335.473C225.866 336.019 226.005 336.709 226.005 337.544V343.783H224.496V337.646C224.496 336.875 224.296 336.274 223.896 335.844C223.495 335.409 222.945 335.192 222.246 335.192C221.765 335.192 221.335 335.296 220.955 335.505C220.58 335.714 220.284 336.019 220.067 336.419C219.849 336.82 219.741 337.305 219.741 337.876Z" fill="#BDBDBD"/>
</g>
</g>
<defs>
<linearGradient id="paint0_linear_35_5748" x1="218.185" y1="370.719" x2="218.185" y2="576.995" gradientUnits="userSpaceOnUse">
<stop stop-color="#0062FF"/>
<stop offset="1" stop-color="white" stop-opacity="0.01"/>
</linearGradient>
<clipPath id="clip0_35_5748">
<rect width="922" height="589.891" fill="white" transform="translate(0 0.891357)"/>
</clipPath>
</defs>
</svg>
