<svg width="597" height="581" viewBox="0 0 597 581" fill="none" xmlns="http://www.w3.org/2000/svg">
<path d="M542.002 286C542.002 325.328 532.278 364.058 513.677 398.811C495.077 433.565 468.166 463.285 435.293 485.378C402.42 507.471 364.583 521.266 325.085 525.56C285.586 529.853 245.626 524.514 208.692 510.009L231.509 453.097C259.06 463.917 288.868 467.9 318.331 464.697C347.794 461.495 376.018 451.204 400.54 434.724C425.061 418.244 445.135 396.074 459.01 370.151C472.885 344.227 480.139 315.336 480.139 286H542.002Z" fill="#165BAA"/>
<path d="M298.502 527C260.867 527 223.743 518.366 190.047 501.775C156.351 485.184 126.999 461.089 104.296 431.381C81.593 401.672 66.1566 367.16 59.1991 330.553C52.2415 293.946 53.9521 256.241 64.1966 220.399L123.975 237.136C116.344 263.834 115.07 291.919 120.253 319.186C125.435 346.454 136.933 372.161 153.844 394.29C170.755 416.418 192.618 434.366 217.717 446.724C242.817 459.082 270.469 465.513 298.502 465.513V527Z" fill="#F765A3"/>
<path d="M63.0807 223.616C78.3743 167.22 113.883 118.233 162.999 85.7727C212.115 53.3121 271.493 39.588 330.084 47.1542C388.676 54.7203 442.491 83.0614 481.514 126.904C520.538 170.746 542.113 227.104 542.225 285.49L479.021 285.608C478.938 242.363 462.958 200.621 434.054 168.148C405.15 135.675 365.291 114.683 321.894 109.079C278.497 103.475 234.517 113.64 198.138 137.683C161.759 161.726 135.459 198.008 124.131 239.78L63.0807 223.616Z" fill="#A155B9"/>
<path d="M122.124 239.249C131.602 204.298 151.497 172.97 179.224 149.334C206.952 125.698 241.231 110.846 277.611 106.707C313.99 102.567 350.789 109.331 383.228 126.121C415.667 142.91 442.247 168.95 459.518 200.857L417.762 222.923C404.97 199.29 385.283 180.003 361.256 167.568C337.229 155.132 309.973 150.122 283.028 153.188C256.083 156.254 230.693 167.255 210.156 184.761C189.619 202.268 174.883 225.471 167.863 251.358L122.124 239.249Z" fill="#1DDD8D"/>
<path d="M456.635 195.735C471.649 221.431 480.018 250.389 481.001 280.044C481.983 309.699 475.549 339.136 462.268 365.747C448.986 392.358 429.268 415.321 404.86 432.604C380.451 449.887 352.106 460.955 322.334 464.827C292.563 468.7 262.284 465.258 234.18 454.807C206.076 444.355 181.015 427.217 161.216 404.909C141.416 382.601 127.491 355.813 120.672 326.917C113.853 298.021 114.352 267.91 122.124 239.25L167.863 251.36C162.106 272.587 161.737 294.89 166.788 316.293C171.838 337.695 182.152 357.536 196.817 374.059C211.482 390.582 230.044 403.276 250.86 411.017C271.676 418.758 294.102 421.308 316.153 418.439C338.204 415.57 359.199 407.373 377.278 394.572C395.357 381.771 409.961 364.762 419.798 345.052C429.635 325.342 434.401 303.539 433.674 281.575C432.946 259.61 426.747 238.162 415.626 219.13L456.635 195.735Z" fill="#953BBF"/>
<path d="M63.0807 223.616C78.8694 165.394 116.181 115.139 167.646 82.7766C219.11 50.4145 280.986 38.2987 341.052 48.8223L330.157 109.537C285.471 101.708 239.438 110.722 201.151 134.798C162.863 158.873 135.105 196.261 123.359 239.576L63.0807 223.616Z" fill="#16BFD6"/>
</svg>
