<svg width="20" height="20" viewBox="0 0 20 20" fill="none" xmlns="http://www.w3.org/2000/svg">
<path d="M10 4.80859C12.707 4.80859 14.9414 7.04297 14.9414 9.75C14.9414 12.5 12.707 14.6914 10 14.6914C7.25 14.6914 5.05859 12.5 5.05859 9.75C5.05859 7.04297 7.25 4.80859 10 4.80859ZM10 12.9727C11.7617 12.9727 13.1797 11.5547 13.1797 9.75C13.1797 7.98828 11.7617 6.57031 10 6.57031C8.19531 6.57031 6.77734 7.98828 6.77734 9.75C6.77734 11.5547 8.23828 12.9727 10 12.9727ZM16.2734 4.63672C16.2734 5.28125 15.7578 5.79688 15.1133 5.79688C14.4688 5.79688 13.9531 5.28125 13.9531 4.63672C13.9531 3.99219 14.4688 3.47656 15.1133 3.47656C15.7578 3.47656 16.2734 3.99219 16.2734 4.63672ZM19.5391 5.79688C19.625 7.38672 19.625 12.1562 19.5391 13.7461C19.4531 15.293 19.1094 16.625 17.9922 17.7852C16.875 18.9023 15.5 19.2461 13.9531 19.332C12.3633 19.418 7.59375 19.418 6.00391 19.332C4.45703 19.2461 3.125 18.9023 1.96484 17.7852C0.847656 16.625 0.503906 15.293 0.417969 13.7461C0.332031 12.1562 0.332031 7.38672 0.417969 5.79688C0.503906 4.25 0.847656 2.875 1.96484 1.75781C3.125 0.640625 4.45703 0.296875 6.00391 0.210938C7.59375 0.125 12.3633 0.125 13.9531 0.210938C15.5 0.296875 16.875 0.640625 17.9922 1.75781C19.1094 2.875 19.4531 4.25 19.5391 5.79688ZM17.4766 15.4219C17.9922 14.1758 17.8633 11.168 17.8633 9.75C17.8633 8.375 17.9922 5.36719 17.4766 4.07812C17.1328 3.26172 16.4883 2.57422 15.6719 2.27344C14.3828 1.75781 11.375 1.88672 10 1.88672C8.58203 1.88672 5.57422 1.75781 4.32812 2.27344C3.46875 2.61719 2.82422 3.26172 2.48047 4.07812C1.96484 5.36719 2.09375 8.375 2.09375 9.75C2.09375 11.168 1.96484 14.1758 2.48047 15.4219C2.82422 16.2812 3.46875 16.9258 4.32812 17.2695C5.57422 17.7852 8.58203 17.6562 10 17.6562C11.375 17.6562 14.3828 17.7852 15.6719 17.2695C16.4883 16.9258 17.1758 16.2812 17.4766 15.4219Z" fill="black"/>
</svg>
