<svg width="20" height="20" viewBox="0 0 20 20" fill="none" xmlns="http://www.w3.org/2000/svg">
<path d="M4.67188 19.5H0.675781V6.65234H4.67188V19.5ZM2.65234 4.93359C1.40625 4.93359 0.375 3.85938 0.375 2.57031C0.375 1.32422 1.40625 0.292969 2.65234 0.292969C3.94141 0.292969 4.97266 1.32422 4.97266 2.57031C4.97266 3.85938 3.94141 4.93359 2.65234 4.93359ZM19.582 19.5H15.6289V13.2695C15.6289 11.7656 15.5859 9.875 13.5234 9.875C11.4609 9.875 11.1602 11.4648 11.1602 13.1406V19.5H7.16406V6.65234H10.9883V8.41406H11.0312C11.5898 7.42578 12.8789 6.35156 14.8125 6.35156C18.8516 6.35156 19.625 9.01562 19.625 12.4531V19.5H19.582Z" fill="black"/>
</svg>
