<svg width="241" height="178" viewBox="0 0 241 178" fill="none" xmlns="http://www.w3.org/2000/svg">
<g filter="url(#filter0_d_73_1091)">
<rect x="16.0815" y="11.7263" width="198.883" height="134.678" rx="15" fill="white"/>
</g>
<rect x="55" y="32.0002" width="1" height="7" rx="0.5" fill="#F294CE"/>
<rect x="55" y="42.0002" width="1" height="7" rx="0.5" fill="#F294CE"/>
<path d="M55.7193 111.76L55.4192 112.695C55.212 113.34 55.6934 114 56.3713 114H155.761C156.988 114 157.032 112.657 155.807 112.613C137.497 111.953 126.707 112.032 102.122 112.451C80.2823 112.824 60.8182 111.389 56.7441 111.064C56.279 111.027 55.862 111.315 55.7193 111.76Z" fill="url(#paint0_linear_73_1091)" stroke="url(#paint1_linear_73_1091)"/>
<defs>
<filter id="filter0_d_73_1091" x="0.081543" y="0.726318" width="240.883" height="176.678" filterUnits="userSpaceOnUse" color-interpolation-filters="sRGB">
<feFlood flood-opacity="0" result="BackgroundImageFix"/>
<feColorMatrix in="SourceAlpha" type="matrix" values="0 0 0 0 0 0 0 0 0 0 0 0 0 0 0 0 0 0 127 0" result="hardAlpha"/>
<feOffset dx="5" dy="10"/>
<feGaussianBlur stdDeviation="10.5"/>
<feComposite in2="hardAlpha" operator="out"/>
<feColorMatrix type="matrix" values="0 0 0 0 0.700272 0 0 0 0 0.700272 0 0 0 0 0.700272 0 0 0 0.25 0"/>
<feBlend mode="normal" in2="BackgroundImageFix" result="effect1_dropShadow_73_1091"/>
<feBlend mode="normal" in="SourceGraphic" in2="effect1_dropShadow_73_1091" result="shape"/>
</filter>
<linearGradient id="paint0_linear_73_1091" x1="116.17" y1="112.258" x2="116.172" y2="114.001" gradientUnits="userSpaceOnUse">
<stop stop-color="#FFB422"/>
<stop offset="1" stop-color="#FFB422" stop-opacity="0"/>
</linearGradient>
<linearGradient id="paint1_linear_73_1091" x1="116.5" y1="111" x2="116.5" y2="114" gradientUnits="userSpaceOnUse">
<stop stop-color="#FFA900"/>
<stop offset="1" stop-opacity="0"/>
</linearGradient>
</defs>
</svg>
