<svg width="161" height="133" viewBox="0 0 161 133" fill="none" xmlns="http://www.w3.org/2000/svg">
<g filter="url(#filter0_d_73_1938)">
<rect x="16" y="11" width="118.429" height="90.887" rx="9" fill="white"/>
</g>
<rect x="26.0986" y="24.7705" width="42.2303" height="3.6722" rx="1.8361" fill="#F1F1F1"/>
<rect x="26.0986" y="31.197" width="18.361" height="3.6722" rx="1.8361" fill="#F1F1F1"/>
<rect x="105.051" y="88.1162" width="18.361" height="3.6722" rx="1.8361" fill="#F1F1F1"/>
<path d="M102.469 61.6569C102.57 65.3622 101.923 69.0499 100.565 72.499C99.2076 75.9481 97.1677 79.0877 94.5677 81.7296C91.9677 84.3715 88.8612 86.4614 85.4342 87.8741C82.0073 89.2867 78.3305 89.9931 74.624 89.9509L74.7652 77.558C76.8037 77.5812 78.826 77.1927 80.7108 76.4158C82.5956 75.6388 84.3042 74.4893 85.7342 73.0363C87.1642 71.5832 88.2862 69.8565 89.0329 67.9595C89.7796 66.0625 90.1358 64.0342 90.0799 61.9963L102.469 61.6569Z" fill="#5236FF"/>
<path d="M52.3894 46.358C55.7471 41.6778 60.4877 38.1681 65.9442 36.3227C71.4006 34.4774 77.2984 34.3892 82.8075 36.0707C88.3167 37.7522 93.16 41.1187 96.6561 45.6965C100.152 50.2743 102.125 55.833 102.297 61.5905L90.1728 61.9525C90.0765 58.7307 88.9726 55.6201 87.0162 53.0584C85.0599 50.4967 82.3496 48.6128 79.2667 47.6719C76.1838 46.7309 72.8835 46.7803 69.8301 47.8129C66.7767 48.8455 64.1239 50.8095 62.2449 53.4285L52.3894 46.358Z" fill="#FF4E42"/>
<path d="M102.297 62.4112C102.297 77.6219 89.9662 89.9527 74.7554 89.9527C59.5446 89.9527 47.2139 77.6219 47.2139 62.4112C47.2139 47.2004 59.5446 34.8696 74.7554 34.8696C89.9662 34.8696 102.297 47.2004 102.297 62.4112ZM59.6076 62.4112C59.6076 70.7771 66.3895 77.559 74.7554 77.559C83.1213 77.559 89.9032 70.7771 89.9032 62.4112C89.9032 54.0452 83.1213 47.2633 74.7554 47.2633C66.3895 47.2633 59.6076 54.0452 59.6076 62.4112Z" fill="#DBD6CB"/>
<defs>
<filter id="filter0_d_73_1938" x="0" y="0" width="160.428" height="132.887" filterUnits="userSpaceOnUse" color-interpolation-filters="sRGB">
<feFlood flood-opacity="0" result="BackgroundImageFix"/>
<feColorMatrix in="SourceAlpha" type="matrix" values="0 0 0 0 0 0 0 0 0 0 0 0 0 0 0 0 0 0 127 0" result="hardAlpha"/>
<feOffset dx="5" dy="10"/>
<feGaussianBlur stdDeviation="10.5"/>
<feComposite in2="hardAlpha" operator="out"/>
<feColorMatrix type="matrix" values="0 0 0 0 0.700272 0 0 0 0 0.700272 0 0 0 0 0.700272 0 0 0 0.25 0"/>
<feBlend mode="normal" in2="BackgroundImageFix" result="effect1_dropShadow_73_1938"/>
<feBlend mode="normal" in="SourceGraphic" in2="effect1_dropShadow_73_1938" result="shape"/>
</filter>
</defs>
</svg>
