<svg width="279" height="183" viewBox="0 0 279 183" fill="none" xmlns="http://www.w3.org/2000/svg">
<g filter="url(#filter0_d_73_1808)">
<rect x="11" width="267.358" height="174.531" rx="10" fill="#F9F4F4"/>
</g>
<rect x="24.7427" y="26.0022" width="239.873" height="138.222" fill="white"/>
<rect x="209.331" y="37.0491" width="49.8318" height="32.7411" rx="8" fill="#F9F4F4"/>
<rect x="217.407" y="43.9155" width="0.405842" height="15.9923" rx="0.202921" fill="#EFF3FE"/>
<rect x="217.271" y="51.2964" width="0.676403" height="8.61125" rx="0.338202" fill="url(#paint0_linear_73_1808)"/>
<rect x="217.271" y="48.8364" width="0.676403" height="1.84527" rx="0.338202" fill="url(#paint1_linear_73_1808)"/>
<path d="M217.966 62.4222C217.966 62.5475 217.952 62.6562 217.925 62.7482C217.898 62.8395 217.861 62.9152 217.815 62.9752C217.768 63.0352 217.713 63.0799 217.649 63.1092C217.585 63.1385 217.517 63.1532 217.445 63.1532C217.371 63.1532 217.303 63.1385 217.24 63.1092C217.177 63.0799 217.122 63.0352 217.076 62.9752C217.029 62.9152 216.992 62.8395 216.966 62.7482C216.939 62.6562 216.926 62.5475 216.926 62.4222C216.926 62.2969 216.939 62.1882 216.966 62.0962C216.992 62.0042 217.029 61.9282 217.076 61.8682C217.122 61.8075 217.177 61.7625 217.24 61.7332C217.303 61.7039 217.371 61.6892 217.445 61.6892C217.517 61.6892 217.585 61.7039 217.649 61.7332C217.713 61.7625 217.768 61.8075 217.815 61.8682C217.861 61.9282 217.898 62.0042 217.925 62.0962C217.952 62.1882 217.966 62.2969 217.966 62.4222ZM217.781 62.4222C217.781 62.3129 217.771 62.2212 217.753 62.1472C217.735 62.0725 217.71 62.0125 217.679 61.9672C217.648 61.9219 217.612 61.8895 217.572 61.8702C217.531 61.8502 217.489 61.8402 217.445 61.8402C217.401 61.8402 217.358 61.8502 217.318 61.8702C217.277 61.8895 217.241 61.9219 217.211 61.9672C217.18 62.0125 217.155 62.0725 217.137 62.1472C217.119 62.2212 217.11 62.3129 217.11 62.4222C217.11 62.5315 217.119 62.6232 217.137 62.6972C217.155 62.7712 217.18 62.8309 217.211 62.8762C217.241 62.9215 217.277 62.9542 217.318 62.9742C217.358 62.9935 217.401 63.0032 217.445 63.0032C217.489 63.0032 217.531 62.9935 217.572 62.9742C217.612 62.9542 217.648 62.9215 217.679 62.8762C217.71 62.8309 217.735 62.7712 217.753 62.6972C217.771 62.6232 217.781 62.5315 217.781 62.4222ZM217.884 65.0022V65.1382H217.116V65.0022H217.423V64.0252C217.423 63.9959 217.424 63.9662 217.426 63.9362L217.171 64.1552C217.162 64.1625 217.153 64.1672 217.145 64.1692C217.136 64.1705 217.128 64.1705 217.121 64.1692C217.113 64.1679 217.106 64.1652 217.1 64.1612C217.094 64.1572 217.089 64.1529 217.086 64.1482L217.03 64.0712L217.457 63.7022H217.602V65.0022H217.884Z" fill="#D7DBE6"/>
<rect x="220.113" y="43.9155" width="0.405842" height="15.9923" rx="0.202921" fill="#EFF3FE"/>
<rect x="219.977" y="56.2173" width="0.676403" height="3.69054" rx="0.338202" fill="url(#paint2_linear_73_1808)"/>
<rect x="219.977" y="46.376" width="0.676403" height="9.22634" rx="0.338202" fill="url(#paint3_linear_73_1808)"/>
<path d="M220.536 62.4222C220.536 62.5475 220.522 62.6562 220.495 62.7482C220.468 62.8395 220.432 62.9152 220.385 62.9752C220.338 63.0352 220.283 63.0799 220.219 63.1092C220.156 63.1385 220.088 63.1532 220.015 63.1532C219.942 63.1532 219.873 63.1385 219.81 63.1092C219.747 63.0799 219.693 63.0352 219.646 62.9752C219.599 62.9152 219.563 62.8395 219.536 62.7482C219.509 62.6562 219.496 62.5475 219.496 62.4222C219.496 62.2969 219.509 62.1882 219.536 62.0962C219.563 62.0042 219.599 61.9282 219.646 61.8682C219.693 61.8075 219.747 61.7625 219.81 61.7332C219.873 61.7039 219.942 61.6892 220.015 61.6892C220.088 61.6892 220.156 61.7039 220.219 61.7332C220.283 61.7625 220.338 61.8075 220.385 61.8682C220.432 61.9282 220.468 62.0042 220.495 62.0962C220.522 62.1882 220.536 62.2969 220.536 62.4222ZM220.351 62.4222C220.351 62.3129 220.342 62.2212 220.323 62.1472C220.305 62.0725 220.28 62.0125 220.249 61.9672C220.218 61.9219 220.183 61.8895 220.142 61.8702C220.101 61.8502 220.059 61.8402 220.015 61.8402C219.971 61.8402 219.929 61.8502 219.888 61.8702C219.847 61.8895 219.812 61.9219 219.781 61.9672C219.75 62.0125 219.726 62.0725 219.707 62.1472C219.689 62.2212 219.68 62.3129 219.68 62.4222C219.68 62.5315 219.689 62.6232 219.707 62.6972C219.726 62.7712 219.75 62.8309 219.781 62.8762C219.812 62.9215 219.847 62.9542 219.888 62.9742C219.929 62.9935 219.971 63.0032 220.015 63.0032C220.059 63.0032 220.101 62.9935 220.142 62.9742C220.183 62.9542 220.218 62.9215 220.249 62.8762C220.28 62.8309 220.305 62.7712 220.323 62.6972C220.342 62.6232 220.351 62.5315 220.351 62.4222ZM220.423 64.9692C220.442 64.9692 220.458 64.9749 220.469 64.9862C220.48 64.9975 220.486 65.0122 220.486 65.0302V65.1382H219.53V65.0772C219.53 65.0645 219.533 65.0515 219.538 65.0382C219.543 65.0249 219.552 65.0125 219.563 65.0012L220.022 64.5402C220.06 64.5015 220.095 64.4645 220.126 64.4292C220.157 64.3932 220.184 64.3572 220.206 64.3212C220.228 64.2852 220.245 64.2489 220.257 64.2122C220.269 64.1749 220.275 64.1352 220.275 64.0932C220.275 64.0512 220.268 64.0145 220.255 63.9832C220.242 63.9512 220.223 63.9249 220.2 63.9042C220.177 63.8835 220.15 63.8682 220.119 63.8582C220.088 63.8475 220.054 63.8422 220.018 63.8422C219.981 63.8422 219.948 63.8475 219.917 63.8582C219.886 63.8689 219.859 63.8839 219.835 63.9032C219.812 63.9219 219.792 63.9442 219.776 63.9702C219.76 63.9962 219.749 64.0249 219.742 64.0562C219.734 64.0795 219.723 64.0952 219.709 64.1032C219.696 64.1105 219.677 64.1125 219.652 64.1092L219.559 64.0932C219.568 64.0279 219.586 63.9702 219.613 63.9202C219.64 63.8695 219.674 63.8272 219.715 63.7932C219.756 63.7592 219.803 63.7335 219.856 63.7162C219.909 63.6982 219.966 63.6892 220.027 63.6892C220.088 63.6892 220.144 63.6982 220.197 63.7162C220.25 63.7342 220.295 63.7605 220.334 63.7952C220.373 63.8292 220.403 63.8709 220.425 63.9202C220.447 63.9695 220.458 64.0255 220.458 64.0882C220.458 64.1415 220.45 64.1912 220.434 64.2372C220.418 64.2825 220.396 64.3259 220.369 64.3672C220.342 64.4085 220.31 64.4489 220.274 64.4882C220.239 64.5275 220.201 64.5672 220.161 64.6072L219.783 64.9932C219.81 64.9859 219.837 64.9802 219.864 64.9762C219.891 64.9715 219.918 64.9692 219.943 64.9692H220.423Z" fill="#D7DBE6"/>
<rect x="222.953" y="43.9155" width="0.405842" height="15.9923" rx="0.202921" fill="#EFF3FE"/>
<rect x="222.818" y="52.5271" width="0.676403" height="7.38107" rx="0.338202" fill="url(#paint4_linear_73_1808)"/>
<rect x="222.818" y="46.991" width="0.676403" height="4.92071" rx="0.338202" fill="url(#paint5_linear_73_1808)"/>
<path d="M223.377 62.4222C223.377 62.5475 223.363 62.6562 223.336 62.7482C223.309 62.8395 223.273 62.9152 223.226 62.9752C223.179 63.0352 223.124 63.0799 223.06 63.1092C222.997 63.1385 222.929 63.1532 222.856 63.1532C222.783 63.1532 222.714 63.1385 222.651 63.1092C222.588 63.0799 222.534 63.0352 222.487 62.9752C222.44 62.9152 222.404 62.8395 222.377 62.7482C222.35 62.6562 222.337 62.5475 222.337 62.4222C222.337 62.2969 222.35 62.1882 222.377 62.0962C222.404 62.0042 222.44 61.9282 222.487 61.8682C222.534 61.8075 222.588 61.7625 222.651 61.7332C222.714 61.7039 222.783 61.6892 222.856 61.6892C222.929 61.6892 222.997 61.7039 223.06 61.7332C223.124 61.7625 223.179 61.8075 223.226 61.8682C223.273 61.9282 223.309 62.0042 223.336 62.0962C223.363 62.1882 223.377 62.2969 223.377 62.4222ZM223.192 62.4222C223.192 62.3129 223.183 62.2212 223.164 62.1472C223.146 62.0725 223.121 62.0125 223.09 61.9672C223.059 61.9219 223.024 61.8895 222.983 61.8702C222.942 61.8502 222.9 61.8402 222.856 61.8402C222.812 61.8402 222.77 61.8502 222.729 61.8702C222.688 61.8895 222.653 61.9219 222.622 61.9672C222.591 62.0125 222.567 62.0725 222.548 62.1472C222.53 62.2212 222.521 62.3129 222.521 62.4222C222.521 62.5315 222.53 62.6232 222.548 62.6972C222.567 62.7712 222.591 62.8309 222.622 62.8762C222.653 62.9215 222.688 62.9542 222.729 62.9742C222.77 62.9935 222.812 63.0032 222.856 63.0032C222.9 63.0032 222.942 62.9935 222.983 62.9742C223.024 62.9542 223.059 62.9215 223.09 62.8762C223.121 62.8309 223.146 62.7712 223.164 62.6972C223.183 62.6232 223.192 62.5315 223.192 62.4222ZM222.407 64.0932C222.416 64.0279 222.434 63.9702 222.461 63.9202C222.488 63.8695 222.521 63.8272 222.562 63.7932C222.603 63.7592 222.65 63.7335 222.703 63.7162C222.756 63.6982 222.814 63.6892 222.875 63.6892C222.936 63.6892 222.992 63.6979 223.043 63.7152C223.094 63.7325 223.138 63.7572 223.175 63.7892C223.212 63.8212 223.241 63.8599 223.262 63.9052C223.283 63.9505 223.293 64.0009 223.293 64.0562C223.293 64.1015 223.287 64.1422 223.275 64.1782C223.264 64.2135 223.247 64.2445 223.225 64.2712C223.204 64.2979 223.178 64.3205 223.147 64.3392C223.116 64.3579 223.082 64.3732 223.044 64.3852C223.137 64.4092 223.207 64.4505 223.254 64.5092C223.301 64.5672 223.325 64.6399 223.325 64.7272C223.325 64.7932 223.312 64.8525 223.287 64.9052C223.262 64.9579 223.228 65.0029 223.185 65.0402C223.142 65.0769 223.091 65.1052 223.033 65.1252C222.976 65.1445 222.914 65.1542 222.848 65.1542C222.772 65.1542 222.707 65.1449 222.653 65.1262C222.599 65.1069 222.553 65.0805 222.516 65.0472C222.479 65.0139 222.448 64.9745 222.424 64.9292C222.4 64.8832 222.38 64.8335 222.363 64.7802L222.44 64.7482C222.46 64.7395 222.479 64.7372 222.498 64.7412C222.517 64.7452 222.531 64.7562 222.54 64.7742C222.549 64.7929 222.559 64.8152 222.572 64.8412C222.585 64.8672 222.603 64.8922 222.626 64.9162C222.649 64.9402 222.677 64.9605 222.712 64.9772C222.747 64.9939 222.792 65.0022 222.846 65.0022C222.896 65.0022 222.94 64.9942 222.977 64.9782C223.015 64.9615 223.046 64.9402 223.071 64.9142C223.096 64.8882 223.115 64.8592 223.128 64.8272C223.141 64.7952 223.147 64.7635 223.147 64.7322C223.147 64.6935 223.142 64.6582 223.132 64.6262C223.122 64.5942 223.103 64.5665 223.076 64.5432C223.049 64.5199 223.011 64.5015 222.963 64.4882C222.916 64.4749 222.855 64.4682 222.78 64.4682V64.3392C222.841 64.3385 222.893 64.3319 222.936 64.3192C222.979 64.3065 223.014 64.2892 223.041 64.2672C223.068 64.2452 223.088 64.2189 223.1 64.1882C223.113 64.1575 223.119 64.1235 223.119 64.0862C223.119 64.0449 223.112 64.0089 223.099 63.9782C223.086 63.9475 223.069 63.9222 223.046 63.9022C223.023 63.8822 222.996 63.8672 222.965 63.8572C222.934 63.8472 222.901 63.8422 222.865 63.8422C222.829 63.8422 222.795 63.8475 222.764 63.8582C222.733 63.8689 222.706 63.8839 222.682 63.9032C222.659 63.9219 222.639 63.9442 222.623 63.9702C222.607 63.9962 222.596 64.0249 222.589 64.0562C222.58 64.0795 222.569 64.0952 222.556 64.1032C222.543 64.1105 222.525 64.1125 222.5 64.1092L222.407 64.0932Z" fill="#D7DBE6"/>
<rect x="225.795" y="43.9155" width="0.405842" height="15.9923" rx="0.202921" fill="#EFF3FE"/>
<rect x="225.659" y="52.5271" width="0.676403" height="7.38107" rx="0.338202" fill="url(#paint6_linear_73_1808)"/>
<rect x="225.659" y="50.6816" width="0.676403" height="1.23018" rx="0.338202" fill="url(#paint7_linear_73_1808)"/>
<path d="M226.218 62.4222C226.218 62.5475 226.204 62.6562 226.177 62.7482C226.15 62.8395 226.114 62.9152 226.067 62.9752C226.02 63.0352 225.965 63.0799 225.901 63.1092C225.838 63.1385 225.77 63.1532 225.697 63.1532C225.624 63.1532 225.555 63.1385 225.492 63.1092C225.429 63.0799 225.375 63.0352 225.328 62.9752C225.281 62.9152 225.245 62.8395 225.218 62.7482C225.191 62.6562 225.178 62.5475 225.178 62.4222C225.178 62.2969 225.191 62.1882 225.218 62.0962C225.245 62.0042 225.281 61.9282 225.328 61.8682C225.375 61.8075 225.429 61.7625 225.492 61.7332C225.555 61.7039 225.624 61.6892 225.697 61.6892C225.77 61.6892 225.838 61.7039 225.901 61.7332C225.965 61.7625 226.02 61.8075 226.067 61.8682C226.114 61.9282 226.15 62.0042 226.177 62.0962C226.204 62.1882 226.218 62.2969 226.218 62.4222ZM226.033 62.4222C226.033 62.3129 226.024 62.2212 226.005 62.1472C225.987 62.0725 225.962 62.0125 225.931 61.9672C225.9 61.9219 225.865 61.8895 225.824 61.8702C225.783 61.8502 225.741 61.8402 225.697 61.8402C225.653 61.8402 225.611 61.8502 225.57 61.8702C225.529 61.8895 225.494 61.9219 225.463 61.9672C225.432 62.0125 225.408 62.0725 225.389 62.1472C225.371 62.2212 225.362 62.3129 225.362 62.4222C225.362 62.5315 225.371 62.6232 225.389 62.6972C225.408 62.7712 225.432 62.8309 225.463 62.8762C225.494 62.9215 225.529 62.9542 225.57 62.9742C225.611 62.9935 225.653 63.0032 225.697 63.0032C225.741 63.0032 225.783 62.9935 225.824 62.9742C225.865 62.9542 225.9 62.9215 225.931 62.8762C225.962 62.8309 225.987 62.7712 226.005 62.6972C226.024 62.6232 226.033 62.5315 226.033 62.4222ZM225.848 64.6212V64.0302C225.848 64.0129 225.849 63.9939 225.85 63.9732C225.851 63.9525 225.853 63.9315 225.856 63.9102L225.334 64.6212H225.848ZM226.221 64.6212V64.7232C226.221 64.7339 226.218 64.7429 226.211 64.7502C226.205 64.7575 226.195 64.7612 226.182 64.7612H226.004V65.1382H225.848V64.7612H225.212C225.199 64.7612 225.187 64.7575 225.177 64.7502C225.168 64.7422 225.162 64.7325 225.159 64.7212L225.141 64.6302L225.838 63.7052H226.004V64.6212H226.221Z" fill="#D7DBE6"/>
<rect x="228.635" y="43.9155" width="0.405842" height="15.9923" rx="0.202921" fill="#EFF3FE"/>
<rect x="228.5" y="51.2964" width="0.676403" height="8.61125" rx="0.338202" fill="url(#paint8_linear_73_1808)"/>
<rect x="228.5" y="45.7607" width="0.676403" height="4.92071" rx="0.338202" fill="url(#paint9_linear_73_1808)"/>
<rect x="231.476" y="43.9155" width="0.405842" height="15.9923" rx="0.202921" fill="#EFF3FE"/>
<rect x="231.341" y="53.1418" width="0.676403" height="6.76598" rx="0.338202" fill="url(#paint10_linear_73_1808)"/>
<rect x="231.341" y="48.8364" width="0.676403" height="3.69054" rx="0.338202" fill="url(#paint11_linear_73_1808)"/>
<path d="M231.9 62.4222C231.9 62.5475 231.886 62.6562 231.859 62.7482C231.832 62.8395 231.795 62.9152 231.749 62.9752C231.702 63.0352 231.647 63.0799 231.583 63.1092C231.519 63.1385 231.451 63.1532 231.379 63.1532C231.305 63.1532 231.237 63.1385 231.174 63.1092C231.111 63.0799 231.056 63.0352 231.01 62.9752C230.963 62.9152 230.926 62.8395 230.9 62.7482C230.873 62.6562 230.86 62.5475 230.86 62.4222C230.86 62.2969 230.873 62.1882 230.9 62.0962C230.926 62.0042 230.963 61.9282 231.01 61.8682C231.056 61.8075 231.111 61.7625 231.174 61.7332C231.237 61.7039 231.305 61.6892 231.379 61.6892C231.451 61.6892 231.519 61.7039 231.583 61.7332C231.647 61.7625 231.702 61.8075 231.749 61.8682C231.795 61.9282 231.832 62.0042 231.859 62.0962C231.886 62.1882 231.9 62.2969 231.9 62.4222ZM231.715 62.4222C231.715 62.3129 231.705 62.2212 231.687 62.1472C231.669 62.0725 231.644 62.0125 231.613 61.9672C231.582 61.9219 231.546 61.8895 231.506 61.8702C231.465 61.8502 231.423 61.8402 231.379 61.8402C231.335 61.8402 231.292 61.8502 231.252 61.8702C231.211 61.8895 231.175 61.9219 231.145 61.9672C231.114 62.0125 231.089 62.0725 231.071 62.1472C231.053 62.2212 231.044 62.3129 231.044 62.4222C231.044 62.5315 231.053 62.6232 231.071 62.6972C231.089 62.7712 231.114 62.8309 231.145 62.8762C231.175 62.9215 231.211 62.9542 231.252 62.9742C231.292 62.9935 231.335 63.0032 231.379 63.0032C231.423 63.0032 231.465 62.9935 231.506 62.9742C231.546 62.9542 231.582 62.9215 231.613 62.8762C231.644 62.8309 231.669 62.7712 231.687 62.6972C231.705 62.6232 231.715 62.5315 231.715 62.4222ZM231.378 65.0062C231.426 65.0062 231.469 64.9985 231.508 64.9832C231.547 64.9679 231.58 64.9465 231.608 64.9192C231.636 64.8919 231.657 64.8595 231.672 64.8222C231.687 64.7849 231.695 64.7442 231.695 64.7002C231.695 64.6535 231.687 64.6115 231.673 64.5742C231.658 64.5362 231.637 64.5042 231.61 64.4782C231.583 64.4515 231.551 64.4312 231.514 64.4172C231.476 64.4032 231.435 64.3962 231.391 64.3962C231.343 64.3962 231.299 64.4045 231.261 64.4212C231.222 64.4372 231.189 64.4592 231.162 64.4872C231.135 64.5145 231.114 64.5465 231.1 64.5832C231.086 64.6192 231.079 64.6569 231.079 64.6962C231.079 64.7422 231.085 64.7842 231.099 64.8222C231.112 64.8602 231.131 64.8929 231.157 64.9202C231.183 64.9475 231.214 64.9689 231.251 64.9842C231.288 64.9989 231.33 65.0062 231.378 65.0062ZM231.274 64.2422C231.261 64.2582 231.249 64.2739 231.237 64.2892C231.225 64.3039 231.214 64.3185 231.204 64.3332C231.238 64.3099 231.275 64.2919 231.316 64.2792C231.356 64.2665 231.401 64.2602 231.449 64.2602C231.507 64.2602 231.561 64.2699 231.613 64.2892C231.664 64.3079 231.709 64.3355 231.747 64.3722C231.785 64.4082 231.816 64.4529 231.839 64.5062C231.861 64.5589 231.873 64.6192 231.873 64.6872C231.873 64.7532 231.861 64.8145 231.837 64.8712C231.813 64.9279 231.779 64.9772 231.736 65.0192C231.693 65.0612 231.641 65.0942 231.581 65.1182C231.521 65.1422 231.454 65.1542 231.382 65.1542C231.31 65.1542 231.244 65.1429 231.186 65.1202C231.127 65.0969 231.077 65.0642 231.036 65.0222C230.995 64.9795 230.963 64.9282 230.941 64.8682C230.919 64.8075 230.908 64.7399 230.908 64.6652C230.908 64.6025 230.921 64.5359 230.949 64.4652C230.977 64.3939 231.021 64.3179 231.082 64.2372L231.446 63.7482C231.455 63.7362 231.468 63.7262 231.484 63.7182C231.5 63.7095 231.519 63.7052 231.541 63.7052H231.699L231.274 64.2422Z" fill="#D7DBE6"/>
<rect x="234.317" y="43.9155" width="0.405842" height="15.9923" rx="0.202921" fill="#EFF3FE"/>
<rect x="234.181" y="49.4514" width="0.676403" height="10.4565" rx="0.338202" fill="url(#paint12_linear_73_1808)"/>
<rect x="234.181" y="46.376" width="0.676403" height="2.46036" rx="0.338202" fill="url(#paint13_linear_73_1808)"/>
<path d="M234.74 62.4222C234.74 62.5475 234.727 62.6562 234.699 62.7482C234.673 62.8395 234.636 62.9152 234.589 62.9752C234.543 63.0352 234.487 63.0799 234.423 63.1092C234.36 63.1385 234.292 63.1532 234.219 63.1532C234.146 63.1532 234.078 63.1385 234.014 63.1092C233.952 63.0799 233.897 63.0352 233.85 62.9752C233.804 62.9152 233.767 62.8395 233.74 62.7482C233.714 62.6562 233.7 62.5475 233.7 62.4222C233.7 62.2969 233.714 62.1882 233.74 62.0962C233.767 62.0042 233.804 61.9282 233.85 61.8682C233.897 61.8075 233.952 61.7625 234.014 61.7332C234.078 61.7039 234.146 61.6892 234.219 61.6892C234.292 61.6892 234.36 61.7039 234.423 61.7332C234.487 61.7625 234.543 61.8075 234.589 61.8682C234.636 61.9282 234.673 62.0042 234.699 62.0962C234.727 62.1882 234.74 62.2969 234.74 62.4222ZM234.555 62.4222C234.555 62.3129 234.546 62.2212 234.527 62.1472C234.509 62.0725 234.485 62.0125 234.453 61.9672C234.423 61.9219 234.387 61.8895 234.346 61.8702C234.306 61.8502 234.263 61.8402 234.219 61.8402C234.175 61.8402 234.133 61.8502 234.092 61.8702C234.052 61.8895 234.016 61.9219 233.985 61.9672C233.955 62.0125 233.93 62.0725 233.911 62.1472C233.893 62.2212 233.884 62.3129 233.884 62.4222C233.884 62.5315 233.893 62.6232 233.911 62.6972C233.93 62.7712 233.955 62.8309 233.985 62.8762C234.016 62.9215 234.052 62.9542 234.092 62.9742C234.133 62.9935 234.175 63.0032 234.219 63.0032C234.263 63.0032 234.306 62.9935 234.346 62.9742C234.387 62.9542 234.423 62.9215 234.453 62.8762C234.485 62.8309 234.509 62.7712 234.527 62.6972C234.546 62.6232 234.555 62.5315 234.555 62.4222ZM234.721 63.7052V63.7852C234.721 63.8079 234.719 63.8265 234.713 63.8412C234.709 63.8559 234.704 63.8682 234.699 63.8782L234.105 65.0752C234.097 65.0925 234.085 65.1075 234.069 65.1202C234.054 65.1322 234.034 65.1382 234.008 65.1382H233.88L234.482 63.9562C234.491 63.9395 234.5 63.9242 234.509 63.9102C234.519 63.8962 234.529 63.8829 234.539 63.8702H233.791C233.78 63.8702 233.77 63.8659 233.761 63.8572C233.753 63.8479 233.748 63.8375 233.748 63.8262V63.7052H234.721Z" fill="#D7DBE6"/>
<rect x="237.023" y="43.9155" width="0.405842" height="15.9923" rx="0.202921" fill="#EFF3FE"/>
<rect x="236.887" y="52.5271" width="0.676403" height="7.38107" rx="0.338202" fill="url(#paint14_linear_73_1808)"/>
<rect x="236.887" y="49.4514" width="0.676403" height="2.46036" rx="0.338202" fill="url(#paint15_linear_73_1808)"/>
<path d="M237.446 62.4222C237.446 62.5475 237.433 62.6562 237.405 62.7482C237.379 62.8395 237.342 62.9152 237.295 62.9752C237.249 63.0352 237.193 63.0799 237.129 63.1092C237.066 63.1385 236.998 63.1532 236.925 63.1532C236.852 63.1532 236.784 63.1385 236.72 63.1092C236.658 63.0799 236.603 63.0352 236.556 62.9752C236.51 62.9152 236.473 62.8395 236.446 62.7482C236.42 62.6562 236.406 62.5475 236.406 62.4222C236.406 62.2969 236.42 62.1882 236.446 62.0962C236.473 62.0042 236.51 61.9282 236.556 61.8682C236.603 61.8075 236.658 61.7625 236.72 61.7332C236.784 61.7039 236.852 61.6892 236.925 61.6892C236.998 61.6892 237.066 61.7039 237.129 61.7332C237.193 61.7625 237.249 61.8075 237.295 61.8682C237.342 61.9282 237.379 62.0042 237.405 62.0962C237.433 62.1882 237.446 62.2969 237.446 62.4222ZM237.261 62.4222C237.261 62.3129 237.252 62.2212 237.233 62.1472C237.215 62.0725 237.191 62.0125 237.159 61.9672C237.129 61.9219 237.093 61.8895 237.052 61.8702C237.012 61.8502 236.969 61.8402 236.925 61.8402C236.881 61.8402 236.839 61.8502 236.798 61.8702C236.758 61.8895 236.722 61.9219 236.691 61.9672C236.661 62.0125 236.636 62.0725 236.617 62.1472C236.599 62.2212 236.59 62.3129 236.59 62.4222C236.59 62.5315 236.599 62.6232 236.617 62.6972C236.636 62.7712 236.661 62.8309 236.691 62.8762C236.722 62.9215 236.758 62.9542 236.798 62.9742C236.839 62.9935 236.881 63.0032 236.925 63.0032C236.969 63.0032 237.012 62.9935 237.052 62.9742C237.093 62.9542 237.129 62.9215 237.159 62.8762C237.191 62.8309 237.215 62.7712 237.233 62.6972C237.252 62.6232 237.261 62.5315 237.261 62.4222ZM236.926 65.0122C236.973 65.0122 237.015 65.0059 237.051 64.9932C237.089 64.9799 237.12 64.9615 237.145 64.9382C237.171 64.9142 237.191 64.8859 237.204 64.8532C237.218 64.8199 237.225 64.7832 237.225 64.7432C237.225 64.6939 237.217 64.6519 237.2 64.6172C237.184 64.5819 237.162 64.5532 237.134 64.5312C237.107 64.5092 237.075 64.4932 237.039 64.4832C237.003 64.4725 236.966 64.4672 236.926 64.4672C236.887 64.4672 236.849 64.4725 236.813 64.4832C236.777 64.4932 236.745 64.5092 236.717 64.5312C236.69 64.5532 236.668 64.5819 236.651 64.6172C236.635 64.6519 236.627 64.6939 236.627 64.7432C236.627 64.7832 236.634 64.8199 236.647 64.8532C236.661 64.8859 236.681 64.9142 236.706 64.9382C236.732 64.9615 236.764 64.9799 236.8 64.9932C236.838 65.0059 236.88 65.0122 236.926 65.0122ZM236.926 63.8272C236.884 63.8272 236.846 63.8335 236.813 63.8462C236.781 63.8589 236.754 63.8762 236.732 63.8982C236.711 63.9202 236.695 63.9459 236.683 63.9752C236.673 64.0045 236.667 64.0359 236.667 64.0692C236.667 64.1019 236.672 64.1335 236.681 64.1642C236.691 64.1949 236.706 64.2222 236.726 64.2462C236.747 64.2695 236.774 64.2885 236.806 64.3032C236.84 64.3172 236.88 64.3242 236.926 64.3242C236.973 64.3242 237.013 64.3172 237.045 64.3032C237.079 64.2885 237.106 64.2695 237.126 64.2462C237.147 64.2222 237.162 64.1949 237.171 64.1642C237.181 64.1335 237.185 64.1019 237.185 64.0692C237.185 64.0359 237.18 64.0045 237.168 63.9752C237.158 63.9459 237.141 63.9202 237.119 63.8982C237.098 63.8762 237.071 63.8589 237.038 63.8462C237.006 63.8335 236.969 63.8272 236.926 63.8272ZM237.131 64.3912C237.221 64.4165 237.289 64.4589 237.337 64.5182C237.385 64.5775 237.409 64.6535 237.409 64.7462C237.409 64.8089 237.397 64.8655 237.373 64.9162C237.35 64.9662 237.317 65.0089 237.274 65.0442C237.232 65.0795 237.182 65.1069 237.122 65.1262C237.063 65.1449 236.998 65.1542 236.926 65.1542C236.855 65.1542 236.79 65.1449 236.73 65.1262C236.671 65.1069 236.62 65.0795 236.577 65.0442C236.535 65.0089 236.502 64.9662 236.478 64.9162C236.455 64.8655 236.443 64.8089 236.443 64.7462C236.443 64.6535 236.467 64.5775 236.515 64.5182C236.563 64.4589 236.632 64.4165 236.721 64.3912C236.646 64.3632 236.589 64.3215 236.55 64.2662C236.512 64.2102 236.493 64.1435 236.493 64.0662C236.493 64.0135 236.504 63.9642 236.524 63.9182C236.545 63.8722 236.574 63.8322 236.612 63.7982C236.65 63.7642 236.696 63.7375 236.748 63.7182C236.802 63.6989 236.861 63.6892 236.926 63.6892C236.991 63.6892 237.05 63.6989 237.103 63.7182C237.157 63.7375 237.202 63.7642 237.24 63.7982C237.278 63.8322 237.308 63.8722 237.328 63.9182C237.349 63.9642 237.359 64.0135 237.359 64.0662C237.359 64.1435 237.34 64.2102 237.301 64.2662C237.263 64.3215 237.207 64.3632 237.131 64.3912Z" fill="#D7DBE6"/>
<rect x="239.863" y="43.9155" width="0.405842" height="15.9923" rx="0.202921" fill="#EFF3FE"/>
<rect x="239.728" y="58.0627" width="0.676403" height="1.84527" rx="0.338202" fill="url(#paint16_linear_73_1808)"/>
<rect x="239.728" y="48.2212" width="0.676403" height="9.22634" rx="0.338202" fill="url(#paint17_linear_73_1808)"/>
<path d="M240.287 62.4222C240.287 62.5475 240.273 62.6562 240.246 62.7482C240.219 62.8395 240.182 62.9152 240.136 62.9752C240.089 63.0352 240.034 63.0799 239.97 63.1092C239.906 63.1385 239.838 63.1532 239.766 63.1532C239.692 63.1532 239.624 63.1385 239.561 63.1092C239.498 63.0799 239.443 63.0352 239.397 62.9752C239.35 62.9152 239.313 62.8395 239.287 62.7482C239.26 62.6562 239.247 62.5475 239.247 62.4222C239.247 62.2969 239.26 62.1882 239.287 62.0962C239.313 62.0042 239.35 61.9282 239.397 61.8682C239.443 61.8075 239.498 61.7625 239.561 61.7332C239.624 61.7039 239.692 61.6892 239.766 61.6892C239.838 61.6892 239.906 61.7039 239.97 61.7332C240.034 61.7625 240.089 61.8075 240.136 61.8682C240.182 61.9282 240.219 62.0042 240.246 62.0962C240.273 62.1882 240.287 62.2969 240.287 62.4222ZM240.102 62.4222C240.102 62.3129 240.092 62.2212 240.074 62.1472C240.056 62.0725 240.031 62.0125 240 61.9672C239.969 61.9219 239.933 61.8895 239.893 61.8702C239.852 61.8502 239.81 61.8402 239.766 61.8402C239.722 61.8402 239.679 61.8502 239.639 61.8702C239.598 61.8895 239.562 61.9219 239.532 61.9672C239.501 62.0125 239.476 62.0725 239.458 62.1472C239.44 62.2212 239.431 62.3129 239.431 62.4222C239.431 62.5315 239.44 62.6232 239.458 62.6972C239.476 62.7712 239.501 62.8309 239.532 62.8762C239.562 62.9215 239.598 62.9542 239.639 62.9742C239.679 62.9935 239.722 63.0032 239.766 63.0032C239.81 63.0032 239.852 62.9935 239.893 62.9742C239.933 62.9542 239.969 62.9215 240 62.8762C240.031 62.8309 240.056 62.7712 240.074 62.6972C240.092 62.6232 240.102 62.5315 240.102 62.4222ZM239.47 64.1262C239.47 64.1715 239.476 64.2122 239.489 64.2482C239.502 64.2835 239.521 64.3135 239.545 64.3382C239.569 64.3629 239.599 64.3815 239.634 64.3942C239.669 64.4069 239.708 64.4132 239.752 64.4132C239.8 64.4132 239.842 64.4055 239.879 64.3902C239.916 64.3742 239.947 64.3532 239.973 64.3272C239.998 64.3012 240.017 64.2712 240.031 64.2372C240.044 64.2032 240.051 64.1679 240.051 64.1312C240.051 64.0865 240.043 64.0462 240.029 64.0102C240.015 63.9735 239.995 63.9425 239.97 63.9172C239.944 63.8919 239.914 63.8725 239.879 63.8592C239.844 63.8452 239.806 63.8382 239.764 63.8382C239.72 63.8382 239.68 63.8455 239.644 63.8602C239.608 63.8742 239.577 63.8939 239.551 63.9192C239.525 63.9445 239.505 63.9749 239.491 64.0102C239.477 64.0455 239.47 64.0842 239.47 64.1262ZM239.886 64.5672C239.9 64.5479 239.914 64.5295 239.927 64.5122C239.939 64.4949 239.951 64.4775 239.963 64.4602C239.926 64.4895 239.885 64.5119 239.839 64.5272C239.793 64.5425 239.744 64.5502 239.693 64.5502C239.639 64.5502 239.587 64.5412 239.539 64.5232C239.491 64.5052 239.448 64.4789 239.412 64.4442C239.375 64.4089 239.346 64.3659 239.324 64.3152C239.302 64.2639 239.292 64.2052 239.292 64.1392C239.292 64.0765 239.303 64.0179 239.327 63.9632C239.35 63.9085 239.383 63.8609 239.425 63.8202C239.467 63.7795 239.517 63.7475 239.575 63.7242C239.633 63.7009 239.696 63.6892 239.766 63.6892C239.834 63.6892 239.897 63.7005 239.953 63.7232C240.009 63.7459 240.057 63.7775 240.097 63.8182C240.137 63.8589 240.167 63.9075 240.189 63.9642C240.211 64.0209 240.222 64.0835 240.222 64.1522C240.222 64.1935 240.218 64.2329 240.21 64.2702C240.202 64.3069 240.191 64.3432 240.177 64.3792C240.163 64.4145 240.145 64.4499 240.125 64.4852C240.104 64.5199 240.081 64.5555 240.055 64.5922L239.706 65.0962C239.697 65.1089 239.685 65.1192 239.669 65.1272C239.653 65.1345 239.634 65.1382 239.614 65.1382H239.45L239.886 64.5672Z" fill="#D7DBE6"/>
<rect x="242.569" y="43.9155" width="0.405842" height="15.9923" rx="0.202921" fill="#EFF3FE"/>
<rect x="242.434" y="53.7568" width="0.676403" height="6.15089" rx="0.338202" fill="url(#paint18_linear_73_1808)"/>
<rect x="242.434" y="46.991" width="0.676403" height="6.15089" rx="0.338202" fill="url(#paint19_linear_73_1808)"/>
<path d="M243.046 63.0022V63.1382H242.278V63.0022H242.585V62.0252C242.585 61.9959 242.586 61.9662 242.588 61.9362L242.333 62.1552C242.324 62.1625 242.315 62.1672 242.307 62.1692C242.298 62.1705 242.29 62.1705 242.283 62.1692C242.275 62.1679 242.268 62.1652 242.262 62.1612C242.256 62.1572 242.251 62.1529 242.248 62.1482L242.192 62.0712L242.619 61.7022H242.764V63.0022H243.046ZM243.128 64.4222C243.128 64.5475 243.114 64.6562 243.087 64.7482C243.06 64.8395 243.023 64.9152 242.977 64.9752C242.93 65.0352 242.875 65.0799 242.811 65.1092C242.747 65.1385 242.679 65.1532 242.607 65.1532C242.533 65.1532 242.465 65.1385 242.402 65.1092C242.339 65.0799 242.284 65.0352 242.238 64.9752C242.191 64.9152 242.154 64.8395 242.128 64.7482C242.101 64.6562 242.088 64.5475 242.088 64.4222C242.088 64.2969 242.101 64.1882 242.128 64.0962C242.154 64.0042 242.191 63.9282 242.238 63.8682C242.284 63.8075 242.339 63.7625 242.402 63.7332C242.465 63.7039 242.533 63.6892 242.607 63.6892C242.679 63.6892 242.747 63.7039 242.811 63.7332C242.875 63.7625 242.93 63.8075 242.977 63.8682C243.023 63.9282 243.06 64.0042 243.087 64.0962C243.114 64.1882 243.128 64.2969 243.128 64.4222ZM242.943 64.4222C242.943 64.3129 242.933 64.2212 242.915 64.1472C242.897 64.0725 242.872 64.0125 242.841 63.9672C242.81 63.9219 242.774 63.8895 242.734 63.8702C242.693 63.8502 242.651 63.8402 242.607 63.8402C242.563 63.8402 242.52 63.8502 242.48 63.8702C242.439 63.8895 242.403 63.9219 242.373 63.9672C242.342 64.0125 242.317 64.0725 242.299 64.1472C242.281 64.2212 242.272 64.3129 242.272 64.4222C242.272 64.5315 242.281 64.6232 242.299 64.6972C242.317 64.7712 242.342 64.8309 242.373 64.8762C242.403 64.9215 242.439 64.9542 242.48 64.9742C242.52 64.9935 242.563 65.0032 242.607 65.0032C242.651 65.0032 242.693 64.9935 242.734 64.9742C242.774 64.9542 242.81 64.9215 242.841 64.8762C242.872 64.8309 242.897 64.7712 242.915 64.6972C242.933 64.6232 242.943 64.5315 242.943 64.4222Z" fill="#D7DBE6"/>
<rect x="245.004" y="43.9155" width="0.405842" height="15.9923" rx="0.202921" fill="#EFF3FE"/>
<rect x="244.869" y="54.9875" width="0.676403" height="4.92071" rx="0.338202" fill="url(#paint20_linear_73_1808)"/>
<rect x="244.869" y="49.4514" width="0.676403" height="4.92071" rx="0.338202" fill="url(#paint21_linear_73_1808)"/>
<path d="M245.616 63.0022V63.1382H244.848V63.0022H245.155V62.0252C245.155 61.9959 245.156 61.9662 245.158 61.9362L244.903 62.1552C244.894 62.1625 244.886 62.1672 244.877 62.1692C244.868 62.1705 244.86 62.1705 244.853 62.1692C244.846 62.1679 244.839 62.1652 244.832 62.1612C244.826 62.1572 244.821 62.1529 244.818 62.1482L244.762 62.0712L245.189 61.7022H245.334V63.0022H245.616ZM245.616 65.0022V65.1382H244.848V65.0022H245.155V64.0252C245.155 63.9959 245.156 63.9662 245.158 63.9362L244.903 64.1552C244.894 64.1625 244.886 64.1672 244.877 64.1692C244.868 64.1705 244.86 64.1705 244.853 64.1692C244.846 64.1679 244.839 64.1652 244.832 64.1612C244.826 64.1572 244.821 64.1529 244.818 64.1482L244.762 64.0712L245.189 63.7022H245.334V65.0022H245.616Z" fill="#D7DBE6"/>
<rect x="247.574" y="43.9155" width="0.405842" height="15.9923" rx="0.202921" fill="#EFF3FE"/>
<rect x="247.439" y="54.9875" width="0.676403" height="4.92071" rx="0.338202" fill="url(#paint22_linear_73_1808)"/>
<rect x="247.439" y="44.5308" width="0.676403" height="9.84143" rx="0.338202" fill="url(#paint23_linear_73_1808)"/>
<path d="M248.051 63.0022V63.1382H247.283V63.0022H247.59V62.0252C247.59 61.9959 247.591 61.9662 247.593 61.9362L247.338 62.1552C247.33 62.1625 247.321 62.1672 247.312 62.1692C247.304 62.1705 247.296 62.1705 247.288 62.1692C247.281 62.1679 247.274 62.1652 247.267 62.1612C247.261 62.1572 247.257 62.1529 247.253 62.1482L247.197 62.0712L247.624 61.7022H247.769V63.0022H248.051ZM248.02 64.9692C248.04 64.9692 248.055 64.9749 248.066 64.9862C248.078 64.9975 248.083 65.0122 248.083 65.0302V65.1382H247.127V65.0772C247.127 65.0645 247.13 65.0515 247.135 65.0382C247.141 65.0249 247.149 65.0125 247.16 65.0012L247.619 64.5402C247.657 64.5015 247.692 64.4645 247.723 64.4292C247.755 64.3932 247.781 64.3572 247.803 64.3212C247.825 64.2852 247.842 64.2489 247.854 64.2122C247.866 64.1749 247.872 64.1352 247.872 64.0932C247.872 64.0512 247.866 64.0145 247.852 63.9832C247.839 63.9512 247.821 63.9249 247.797 63.9042C247.775 63.8835 247.748 63.8682 247.716 63.8582C247.685 63.8475 247.651 63.8422 247.615 63.8422C247.579 63.8422 247.545 63.8475 247.514 63.8582C247.484 63.8689 247.456 63.8839 247.432 63.9032C247.409 63.9219 247.389 63.9442 247.373 63.9702C247.357 63.9962 247.346 64.0249 247.339 64.0562C247.331 64.0795 247.32 64.0952 247.306 64.1032C247.293 64.1105 247.274 64.1125 247.249 64.1092L247.156 64.0932C247.166 64.0279 247.184 63.9702 247.21 63.9202C247.238 63.8695 247.272 63.8272 247.312 63.7932C247.354 63.7592 247.401 63.7335 247.453 63.7162C247.506 63.6982 247.563 63.6892 247.624 63.6892C247.685 63.6892 247.742 63.6982 247.794 63.7162C247.847 63.7342 247.893 63.7605 247.931 63.7952C247.97 63.8292 248 63.8709 248.022 63.9202C248.044 63.9695 248.055 64.0255 248.055 64.0882C248.055 64.1415 248.047 64.1912 248.031 64.2372C248.015 64.2825 247.994 64.3259 247.966 64.3672C247.939 64.4085 247.907 64.4489 247.871 64.4882C247.836 64.5275 247.798 64.5672 247.758 64.6072L247.38 64.9932C247.407 64.9859 247.434 64.9802 247.461 64.9762C247.489 64.9715 247.515 64.9692 247.54 64.9692H248.02Z" fill="#D7DBE6"/>
<rect x="254.35" y="11.3208" width="16.3689" height="3.77363" rx="1.88682" fill="#C4C4C4"/>
<ellipse cx="20.2757" cy="12.7357" rx="2.72814" ry="2.35852" fill="#C4C4C4"/>
<ellipse cx="27.9144" cy="12.7357" rx="2.72814" ry="2.35852" fill="#C4C4C4"/>
<ellipse cx="35.5533" cy="12.7357" rx="2.72814" ry="2.35852" fill="#C4C4C4"/>
<rect x="33.2798" y="87.061" width="81.7242" height="76.6831" rx="8" fill="#F9F4F4"/>
<path d="M97.731 125.829C97.731 137.704 86.5966 147.33 72.8615 147.33C59.1264 147.33 47.9919 137.704 47.9919 125.829C47.9919 113.955 59.1264 104.329 72.8615 104.329C86.5966 104.329 97.731 113.955 97.731 125.829ZM55.4528 125.829C55.4528 134.141 63.2469 140.88 72.8615 140.88C82.476 140.88 90.2702 134.141 90.2702 125.829C90.2702 117.518 82.476 110.779 72.8615 110.779C63.2469 110.779 55.4528 117.518 55.4528 125.829Z" fill="#EFF3FE"/>
<path d="M99.5036 131.729C98.5898 134.678 97.0132 137.441 94.8638 139.863C92.7144 142.285 90.0344 144.316 86.9767 145.843C83.919 147.369 80.5435 148.359 77.043 148.758C73.5425 149.156 69.9855 148.955 66.5751 148.165L70.0544 136.939C71.7596 137.334 73.5381 137.435 75.2884 137.236C77.0386 137.036 78.7264 136.541 80.2552 135.778C81.784 135.015 83.1241 133.999 84.1987 132.788C85.2734 131.577 86.0617 130.195 86.5186 128.721L99.5036 131.729Z" fill="#FADCE1"/>
<path d="M73.5337 148.957C70.003 148.957 66.5068 148.355 63.2449 147.187C59.9829 146.019 57.019 144.307 54.5224 142.149C52.0258 139.991 50.0454 137.428 48.6943 134.608C47.3431 131.788 46.6477 128.766 46.6477 125.713H60.0907C60.0907 127.24 60.4384 128.751 61.114 130.161C61.7896 131.571 62.7798 132.852 64.0281 133.931C65.2764 135.01 66.7583 135.866 68.3893 136.45C70.0203 137.034 71.7683 137.335 73.5337 137.335L73.5337 148.957Z" fill="#B5AA9F"/>
<path d="M73.5337 102.47C77.7766 102.47 81.9592 103.338 85.7397 105.003C89.5201 106.669 92.791 109.084 95.2849 112.051C97.7788 115.019 99.425 118.454 100.089 122.077C100.752 125.7 100.415 129.407 99.1038 132.896L86.3188 129.305C86.9743 127.56 87.1431 125.707 86.8112 123.895C86.4793 122.084 85.6563 120.366 84.4093 118.882C83.1624 117.399 81.5269 116.191 79.6367 115.358C77.7465 114.526 75.6551 114.092 73.5337 114.092V102.47Z" fill="#F0E9E9"/>
<rect x="125.613" y="87.0225" width="133.549" height="43.0804" rx="8" fill="#F9F4F4"/>
<path opacity="0.5" d="M154.628 123.32V125.502H154.298V123.65H154.285L153.763 123.991V123.676L154.308 123.32H154.628ZM155.978 125.538C155.81 125.537 155.666 125.493 155.547 125.405C155.427 125.317 155.336 125.188 155.273 125.02C155.21 124.852 155.178 124.649 155.178 124.412C155.178 124.175 155.21 123.973 155.273 123.806C155.337 123.638 155.429 123.51 155.548 123.422C155.668 123.334 155.811 123.29 155.978 123.29C156.145 123.29 156.288 123.334 156.408 123.423C156.527 123.511 156.618 123.639 156.681 123.807C156.745 123.974 156.777 124.175 156.777 124.412C156.777 124.65 156.746 124.853 156.682 125.021C156.619 125.189 156.528 125.317 156.409 125.406C156.289 125.494 156.146 125.538 155.978 125.538ZM155.978 125.253C156.126 125.253 156.241 125.181 156.324 125.037C156.408 124.893 156.45 124.685 156.45 124.412C156.45 124.231 156.431 124.078 156.393 123.953C156.355 123.827 156.301 123.732 156.23 123.667C156.159 123.602 156.076 123.569 155.978 123.569C155.831 123.569 155.716 123.642 155.632 123.787C155.548 123.931 155.506 124.14 155.505 124.412C155.505 124.594 155.524 124.747 155.562 124.873C155.6 124.998 155.654 125.093 155.725 125.158C155.795 125.222 155.88 125.253 155.978 125.253Z" fill="#C0B6B6"/>
<path opacity="0.5" d="M174.235 123.32V125.502H173.905V123.65H173.892L173.37 123.991V123.676L173.914 123.32H174.235ZM175.653 123.32V125.502H175.323V123.65H175.31L174.788 123.991V123.676L175.332 123.32H175.653Z" fill="#C0B6B6"/>
<path opacity="0.5" d="M194.732 123.32V125.502H194.402V123.65H194.389L193.867 123.991V123.676L194.412 123.32H194.732ZM195.322 125.502V125.263L196.061 124.498C196.14 124.415 196.205 124.342 196.256 124.28C196.308 124.217 196.346 124.157 196.372 124.1C196.397 124.043 196.41 123.983 196.41 123.919C196.41 123.846 196.393 123.784 196.359 123.731C196.325 123.678 196.278 123.637 196.219 123.609C196.16 123.579 196.094 123.565 196.02 123.565C195.942 123.565 195.874 123.581 195.816 123.613C195.757 123.645 195.713 123.69 195.681 123.748C195.65 123.806 195.635 123.875 195.635 123.953H195.32C195.32 123.82 195.351 123.704 195.412 123.604C195.473 123.505 195.557 123.428 195.663 123.373C195.77 123.318 195.891 123.29 196.027 123.29C196.164 123.29 196.284 123.317 196.389 123.372C196.494 123.426 196.576 123.5 196.635 123.594C196.694 123.687 196.723 123.792 196.723 123.909C196.723 123.99 196.708 124.069 196.678 124.147C196.648 124.224 196.596 124.31 196.521 124.405C196.446 124.5 196.343 124.615 196.21 124.75L195.776 125.203V125.219H196.759V125.502H195.322Z" fill="#C0B6B6"/>
<path opacity="0.5" d="M214.338 123.32V125.502H214.008V123.65H213.995L213.473 123.991V123.676L214.018 123.32H214.338ZM215.688 125.532C215.542 125.532 215.411 125.506 215.296 125.456C215.182 125.405 215.091 125.336 215.025 125.246C214.958 125.156 214.923 125.051 214.918 124.933H215.252C215.257 124.997 215.278 125.054 215.317 125.101C215.357 125.148 215.409 125.184 215.473 125.21C215.537 125.235 215.608 125.248 215.686 125.248C215.772 125.248 215.848 125.233 215.914 125.203C215.981 125.174 216.033 125.132 216.071 125.079C216.108 125.025 216.127 124.963 216.127 124.892C216.127 124.819 216.108 124.755 216.071 124.7C216.034 124.643 215.979 124.599 215.908 124.567C215.837 124.535 215.751 124.519 215.65 124.519H215.466V124.251H215.65C215.731 124.251 215.802 124.236 215.863 124.207C215.925 124.178 215.973 124.138 216.008 124.086C216.043 124.033 216.06 123.972 216.06 123.902C216.06 123.834 216.045 123.776 216.014 123.726C215.984 123.675 215.942 123.636 215.886 123.608C215.832 123.579 215.767 123.565 215.692 123.565C215.621 123.565 215.555 123.578 215.493 123.604C215.432 123.63 215.382 123.667 215.344 123.715C215.306 123.763 215.285 123.82 215.282 123.887H214.964C214.967 123.769 215.002 123.665 215.068 123.576C215.135 123.486 215.223 123.416 215.332 123.366C215.442 123.315 215.563 123.29 215.697 123.29C215.837 123.29 215.957 123.317 216.059 123.372C216.161 123.426 216.24 123.498 216.295 123.588C216.352 123.679 216.379 123.777 216.379 123.885C216.379 124.007 216.345 124.11 216.276 124.196C216.208 124.281 216.117 124.338 216.004 124.367V124.384C216.148 124.406 216.261 124.464 216.34 124.557C216.42 124.65 216.46 124.765 216.46 124.903C216.46 125.023 216.427 125.131 216.359 125.226C216.293 125.321 216.201 125.396 216.086 125.451C215.97 125.505 215.837 125.532 215.688 125.532Z" fill="#C0B6B6"/>
<path opacity="0.5" d="M233.945 123.32V125.502H233.615V123.65H233.602L233.08 123.991V123.676L233.624 123.32H233.945ZM234.489 125.076V124.809L235.432 123.32H235.642V123.712H235.509L234.834 124.779V124.796H236.127V125.076H234.489ZM235.524 125.502V124.995L235.526 124.873V123.32H235.838V125.502H235.524Z" fill="#C0B6B6"/>
<path d="M134.606 97.5036C134.398 97.5036 134.21 97.4621 134.043 97.3793C133.877 97.2964 133.743 97.1828 133.642 97.0384C133.542 96.894 133.486 96.7294 133.477 96.5448H133.903C133.92 96.7093 133.994 96.8454 134.127 96.9531C134.261 97.0597 134.42 97.1129 134.606 97.1129C134.755 97.1129 134.888 97.078 135.004 97.0082C135.121 96.9384 135.213 96.8425 135.279 96.7205C135.347 96.5974 135.38 96.4584 135.38 96.3033C135.38 96.1447 135.346 96.0032 135.276 95.8789C135.207 95.7535 135.112 95.6546 134.992 95.5824C134.871 95.5102 134.733 95.4735 134.578 95.4723C134.467 95.4711 134.352 95.4883 134.235 95.5238C134.118 95.5581 134.022 95.6025 133.946 95.657L133.534 95.6073L133.754 93.8175H135.643V94.2081H134.123L133.995 95.2806H134.017C134.091 95.2214 134.185 95.1723 134.297 95.1332C134.41 95.0941 134.527 95.0746 134.649 95.0746C134.871 95.0746 135.07 95.1279 135.244 95.2344C135.419 95.3397 135.556 95.4842 135.656 95.6676C135.756 95.8511 135.807 96.0606 135.807 96.2962C135.807 96.5282 135.754 96.7353 135.65 96.9176C135.547 97.0987 135.405 97.242 135.224 97.3473C135.043 97.4515 134.837 97.5036 134.606 97.5036ZM137.698 97.5036C137.43 97.5036 137.203 97.4308 137.014 97.2852C136.826 97.1384 136.682 96.9259 136.583 96.6477C136.484 96.3684 136.434 96.031 136.434 95.6357C136.434 95.2427 136.484 94.9071 136.583 94.6289C136.684 94.3496 136.828 94.1365 137.016 93.9897C137.206 93.8418 137.433 93.7678 137.698 93.7678C137.963 93.7678 138.19 93.8418 138.378 93.9897C138.567 94.1365 138.712 94.3496 138.811 94.6289C138.912 94.9071 138.962 95.2427 138.962 95.6357C138.962 96.031 138.912 96.3684 138.813 96.6477C138.714 96.9259 138.57 97.1384 138.382 97.2852C138.193 97.4308 137.966 97.5036 137.698 97.5036ZM137.698 97.1129C137.963 97.1129 138.169 96.9851 138.316 96.7294C138.463 96.4737 138.536 96.1092 138.536 95.6357C138.536 95.3208 138.502 95.0527 138.435 94.8313C138.369 94.61 138.273 94.4413 138.147 94.3253C138.023 94.2093 137.873 94.1513 137.698 94.1513C137.435 94.1513 137.23 94.2809 137.082 94.5401C136.934 94.7982 136.86 95.1634 136.86 95.6357C136.86 95.9505 136.893 96.2181 136.959 96.4382C137.026 96.6584 137.121 96.8259 137.245 96.9407C137.371 97.0555 137.522 97.1129 137.698 97.1129Z" fill="#DDBDBD"/>
<path d="M134.606 110.601C134.398 110.601 134.21 110.56 134.043 110.477C133.877 110.394 133.743 110.28 133.642 110.136C133.542 109.992 133.486 109.827 133.477 109.642H133.903C133.92 109.807 133.994 109.943 134.127 110.051C134.261 110.157 134.42 110.211 134.606 110.211C134.755 110.211 134.888 110.176 135.004 110.106C135.121 110.036 135.213 109.94 135.279 109.818C135.347 109.695 135.38 109.556 135.38 109.401C135.38 109.242 135.346 109.101 135.276 108.977C135.207 108.851 135.112 108.752 134.992 108.68C134.871 108.608 134.733 108.571 134.578 108.57C134.467 108.569 134.352 108.586 134.235 108.621C134.118 108.656 134.022 108.7 133.946 108.755L133.534 108.705L133.754 106.915H135.643V107.306H134.123L133.995 108.378H134.017C134.091 108.319 134.185 108.27 134.297 108.231C134.41 108.192 134.527 108.172 134.649 108.172C134.871 108.172 135.07 108.226 135.244 108.332C135.419 108.437 135.556 108.582 135.656 108.765C135.756 108.949 135.807 109.158 135.807 109.394C135.807 109.626 135.754 109.833 135.65 110.015C135.547 110.196 135.405 110.34 135.224 110.445C135.043 110.549 134.837 110.601 134.606 110.601ZM137.698 110.601C137.43 110.601 137.203 110.528 137.014 110.383C136.826 110.236 136.682 110.024 136.583 109.745C136.484 109.466 136.434 109.129 136.434 108.733C136.434 108.34 136.484 108.005 136.583 107.727C136.684 107.447 136.828 107.234 137.016 107.087C137.206 106.939 137.433 106.865 137.698 106.865C137.963 106.865 138.19 106.939 138.378 107.087C138.567 107.234 138.712 107.447 138.811 107.727C138.912 108.005 138.962 108.34 138.962 108.733C138.962 109.129 138.912 109.466 138.813 109.745C138.714 110.024 138.57 110.236 138.382 110.383C138.193 110.528 137.966 110.601 137.698 110.601ZM137.698 110.211C137.963 110.211 138.169 110.083 138.316 109.827C138.463 109.571 138.536 109.207 138.536 108.733C138.536 108.418 138.502 108.15 138.435 107.929C138.369 107.708 138.273 107.539 138.147 107.423C138.023 107.307 137.873 107.249 137.698 107.249C137.435 107.249 137.23 107.379 137.082 107.638C136.934 107.896 136.86 108.261 136.86 108.733C136.86 109.048 136.893 109.316 136.959 109.536C137.026 109.756 137.121 109.924 137.245 110.038C137.371 110.153 137.522 110.211 137.698 110.211Z" fill="#DDBDBD"/>
<path d="M134.606 122.929C134.398 122.929 134.21 122.887 134.043 122.804C133.877 122.721 133.743 122.608 133.642 122.463C133.542 122.319 133.486 122.154 133.477 121.97H133.903C133.92 122.134 133.994 122.27 134.127 122.378C134.261 122.485 134.42 122.538 134.606 122.538C134.755 122.538 134.888 122.503 135.004 122.433C135.121 122.363 135.213 122.268 135.279 122.146C135.347 122.022 135.38 121.883 135.38 121.728C135.38 121.57 135.346 121.428 135.276 121.304C135.207 121.179 135.112 121.08 134.992 121.007C134.871 120.935 134.733 120.899 134.578 120.897C134.467 120.896 134.352 120.913 134.235 120.949C134.118 120.983 134.022 121.028 133.946 121.082L133.534 121.032L133.754 119.243H135.643V119.633H134.123L133.995 120.706H134.017C134.091 120.646 134.185 120.597 134.297 120.558C134.41 120.519 134.527 120.5 134.649 120.5C134.871 120.5 135.07 120.553 135.244 120.659C135.419 120.765 135.556 120.909 135.656 121.093C135.756 121.276 135.807 121.486 135.807 121.721C135.807 121.953 135.754 122.16 135.65 122.343C135.547 122.524 135.405 122.667 135.224 122.772C135.043 122.877 134.837 122.929 134.606 122.929ZM137.698 122.929C137.43 122.929 137.203 122.856 137.014 122.71C136.826 122.563 136.682 122.351 136.583 122.073C136.484 121.793 136.434 121.456 136.434 121.061C136.434 120.668 136.484 120.332 136.583 120.054C136.684 119.775 136.828 119.562 137.016 119.415C137.206 119.267 137.433 119.193 137.698 119.193C137.963 119.193 138.19 119.267 138.378 119.415C138.567 119.562 138.712 119.775 138.811 120.054C138.912 120.332 138.962 120.668 138.962 121.061C138.962 121.456 138.912 121.793 138.813 122.073C138.714 122.351 138.57 122.563 138.382 122.71C138.193 122.856 137.966 122.929 137.698 122.929ZM137.698 122.538C137.963 122.538 138.169 122.41 138.316 122.154C138.463 121.899 138.536 121.534 138.536 121.061C138.536 120.746 138.502 120.478 138.435 120.256C138.369 120.035 138.273 119.866 138.147 119.75C138.023 119.634 137.873 119.576 137.698 119.576C137.435 119.576 137.23 119.706 137.082 119.965C136.934 120.223 136.86 120.588 136.86 121.061C136.86 121.376 136.893 121.643 136.959 121.863C137.026 122.083 137.121 122.251 137.245 122.366C137.371 122.481 137.522 122.538 137.698 122.538Z" fill="#DDBDBD"/>
<path d="M247.166 120.19L145.57 120.19" stroke="black" stroke-opacity="0.2" stroke-width="0.5" stroke-linecap="round" stroke-dasharray="6 6"/>
<path d="M246.275 106.322L144.679 106.322" stroke="black" stroke-opacity="0.2" stroke-width="0.5" stroke-linecap="round" stroke-dasharray="6 6"/>
<path d="M246.275 93.9949L144.679 93.9949" stroke="black" stroke-opacity="0.2" stroke-width="0.5" stroke-linecap="round" stroke-dasharray="6 6"/>
<rect x="194.586" y="109.404" width="1.78239" height="10.0159" rx="0.891193" fill="#E7E7E7"/>
<rect x="196.368" y="111.715" width="2.67358" height="7.7045" rx="1.33679" fill="#F5D3C2"/>
<rect x="214.192" y="104.781" width="2.67358" height="14.6386" rx="1.33679" fill="#E7E7E7"/>
<rect x="216.866" y="114.797" width="1.78239" height="4.6227" rx="0.891193" fill="#F5D3C2"/>
<rect x="236.472" y="114.797" width="1.78239" height="4.6227" rx="0.891193" fill="#F5D3C2"/>
<rect x="233.798" y="105.552" width="2.67358" height="13.8681" rx="1.33679" fill="#E7E7E7"/>
<rect x="174.088" y="96.3062" width="2.67358" height="23.1135" rx="1.33679" fill="#E7E7E7"/>
<rect x="176.762" y="101.699" width="2.67358" height="17.7204" rx="1.33679" fill="#F5D3C2"/>
<rect x="144.679" y="36.9817" width="49.8318" height="32.7411" rx="8" fill="#F9F4F4"/>
<path opacity="0.5" d="M163.091 58.2307V57.5034H163.179V57.8273H163.567V57.5034H163.655V58.2307H163.567V57.9054H163.179V58.2307H163.091ZM164.049 58.2421C163.996 58.2421 163.951 58.2305 163.913 58.2073C163.875 58.1838 163.846 58.1512 163.825 58.1093C163.805 58.0671 163.794 58.0181 163.794 57.9622C163.794 57.9064 163.805 57.8571 163.825 57.8145C163.846 57.7717 163.874 57.7383 163.911 57.7144C163.948 57.6902 163.991 57.6782 164.04 57.6782C164.069 57.6782 164.097 57.6829 164.124 57.6924C164.152 57.7018 164.177 57.7172 164.2 57.7385C164.223 57.7596 164.241 57.7875 164.254 57.8223C164.268 57.8571 164.275 57.9 164.275 57.9509V57.9864H163.854V57.914H164.189C164.189 57.8832 164.183 57.8557 164.171 57.8316C164.159 57.8074 164.142 57.7884 164.119 57.7744C164.097 57.7604 164.071 57.7534 164.04 57.7534C164.007 57.7534 163.978 57.7617 163.954 57.7783C163.929 57.7946 163.911 57.8159 163.898 57.8422C163.885 57.8685 163.878 57.8967 163.878 57.9267V57.975C163.878 58.0162 163.885 58.0511 163.9 58.0798C163.914 58.1082 163.934 58.1299 163.96 58.1448C163.985 58.1595 164.015 58.1668 164.049 58.1668C164.071 58.1668 164.091 58.1637 164.108 58.1576C164.126 58.1512 164.142 58.1417 164.155 58.1292C164.168 58.1164 164.178 58.1005 164.185 58.0816L164.266 58.1043C164.258 58.1318 164.243 58.1559 164.223 58.1767C164.203 58.1973 164.178 58.2134 164.149 58.225C164.119 58.2364 164.086 58.2421 164.049 58.2421ZM164.402 58.2307V57.6853H164.483V57.7676H164.489C164.499 57.7407 164.517 57.7188 164.543 57.7019C164.569 57.6851 164.598 57.6767 164.631 57.6767C164.637 57.6767 164.645 57.6769 164.654 57.6771C164.663 57.6773 164.67 57.6777 164.675 57.6782V57.7634C164.672 57.7627 164.665 57.7616 164.655 57.7602C164.645 57.7585 164.635 57.7577 164.624 57.7577C164.597 57.7577 164.573 57.7633 164.553 57.7744C164.532 57.7853 164.516 57.8004 164.504 57.8198C164.492 57.839 164.486 57.8609 164.486 57.8855V58.2307H164.402ZM164.986 58.2421C164.934 58.2421 164.888 58.2305 164.85 58.2073C164.812 58.1838 164.783 58.1512 164.763 58.1093C164.742 58.0671 164.732 58.0181 164.732 57.9622C164.732 57.9064 164.742 57.8571 164.763 57.8145C164.783 57.7717 164.812 57.7383 164.848 57.7144C164.885 57.6902 164.928 57.6782 164.978 57.6782C165.006 57.6782 165.034 57.6829 165.062 57.6924C165.09 57.7018 165.115 57.7172 165.138 57.7385C165.16 57.7596 165.178 57.7875 165.192 57.8223C165.205 57.8571 165.212 57.9 165.212 57.9509V57.9864H164.792V57.914H165.127C165.127 57.8832 165.121 57.8557 165.108 57.8316C165.096 57.8074 165.079 57.7884 165.057 57.7744C165.034 57.7604 165.008 57.7534 164.978 57.7534C164.944 57.7534 164.915 57.7617 164.891 57.7783C164.867 57.7946 164.848 57.8159 164.835 57.8422C164.822 57.8685 164.816 57.8967 164.816 57.9267V57.975C164.816 58.0162 164.823 58.0511 164.837 58.0798C164.852 58.1082 164.872 58.1299 164.897 58.1448C164.923 58.1595 164.952 58.1668 164.986 58.1668C165.008 58.1668 165.028 58.1637 165.046 58.1576C165.064 58.1512 165.079 58.1417 165.092 58.1292C165.105 58.1164 165.116 58.1005 165.123 58.0816L165.204 58.1043C165.195 58.1318 165.181 58.1559 165.161 58.1767C165.14 58.1973 165.116 58.2134 165.086 58.225C165.056 58.2364 165.023 58.2421 164.986 58.2421ZM165.781 58.2435C165.747 58.2435 165.715 58.237 165.687 58.224C165.659 58.2107 165.637 58.1917 165.62 58.1668C165.604 58.1417 165.595 58.1114 165.595 58.0759C165.595 58.0446 165.601 58.0193 165.614 57.9999C165.626 57.9802 165.642 57.9649 165.663 57.9537C165.684 57.9426 165.706 57.9343 165.731 57.9289C165.756 57.9232 165.782 57.9187 165.807 57.9154C165.84 57.9111 165.867 57.9079 165.888 57.9058C165.908 57.9034 165.924 57.8995 165.933 57.8941C165.943 57.8886 165.948 57.8792 165.948 57.8657V57.8628C165.948 57.8278 165.938 57.8006 165.919 57.7811C165.9 57.7617 165.871 57.752 165.832 57.752C165.792 57.752 165.761 57.7608 165.738 57.7783C165.716 57.7958 165.7 57.8145 165.69 57.8344L165.611 57.806C165.625 57.7729 165.644 57.747 165.668 57.7286C165.692 57.7099 165.718 57.6969 165.746 57.6895C165.774 57.6819 165.802 57.6782 165.83 57.6782C165.847 57.6782 165.867 57.6803 165.89 57.6845C165.913 57.6886 165.935 57.697 165.956 57.7098C165.978 57.7225 165.996 57.7418 166.01 57.7676C166.024 57.7934 166.031 57.828 166.031 57.8713V58.2307H165.948V58.1568H165.943C165.938 58.1687 165.928 58.1814 165.915 58.1948C165.902 58.2083 165.884 58.2198 165.862 58.2293C165.84 58.2388 165.813 58.2435 165.781 58.2435ZM165.794 58.1682C165.827 58.1682 165.855 58.1617 165.878 58.1487C165.901 58.1357 165.918 58.1189 165.93 58.0983C165.942 58.0777 165.948 58.056 165.948 58.0333V57.9566C165.944 57.9608 165.936 57.9647 165.924 57.9683C165.912 57.9716 165.899 57.9746 165.883 57.9772C165.868 57.9795 165.852 57.9817 165.838 57.9836C165.823 57.9852 165.812 57.9866 165.803 57.9878C165.781 57.9907 165.761 57.9953 165.742 58.0017C165.723 58.0078 165.708 58.0172 165.696 58.0297C165.685 58.042 165.679 58.0588 165.679 58.0801C165.679 58.1093 165.69 58.1313 165.711 58.1462C165.733 58.1609 165.761 58.1682 165.794 58.1682ZM166.184 58.2307V57.6853H166.265V57.7676H166.271C166.281 57.7407 166.299 57.7188 166.325 57.7019C166.351 57.6851 166.38 57.6767 166.413 57.6767C166.419 57.6767 166.427 57.6769 166.436 57.6771C166.445 57.6773 166.452 57.6777 166.457 57.6782V57.7634C166.454 57.7627 166.448 57.7616 166.438 57.7602C166.428 57.7585 166.417 57.7577 166.406 57.7577C166.379 57.7577 166.356 57.7633 166.335 57.7744C166.314 57.7853 166.298 57.8004 166.286 57.8198C166.274 57.839 166.268 57.8609 166.268 57.8855V58.2307H166.184ZM166.768 58.2421C166.716 58.2421 166.671 58.2305 166.632 58.2073C166.595 58.1838 166.565 58.1512 166.545 58.1093C166.524 58.0671 166.514 58.0181 166.514 57.9622C166.514 57.9064 166.524 57.8571 166.545 57.8145C166.565 57.7717 166.594 57.7383 166.631 57.7144C166.668 57.6902 166.711 57.6782 166.76 57.6782C166.788 57.6782 166.816 57.6829 166.844 57.6924C166.872 57.7018 166.897 57.7172 166.92 57.7385C166.942 57.7596 166.961 57.7875 166.974 57.8223C166.988 57.8571 166.994 57.9 166.994 57.9509V57.9864H166.574V57.914H166.909C166.909 57.8832 166.903 57.8557 166.891 57.8316C166.879 57.8074 166.861 57.7884 166.839 57.7744C166.817 57.7604 166.79 57.7534 166.76 57.7534C166.727 57.7534 166.698 57.7617 166.673 57.7783C166.649 57.7946 166.631 57.8159 166.618 57.8422C166.605 57.8685 166.598 57.8967 166.598 57.9267V57.975C166.598 58.0162 166.605 58.0511 166.619 58.0798C166.634 58.1082 166.654 58.1299 166.679 58.1448C166.705 58.1595 166.735 58.1668 166.768 58.1668C166.79 58.1668 166.81 58.1637 166.828 58.1576C166.846 58.1512 166.862 58.1417 166.875 58.1292C166.888 58.1164 166.898 58.1005 166.905 58.0816L166.986 58.1043C166.977 58.1318 166.963 58.1559 166.943 58.1767C166.923 58.1973 166.898 58.2134 166.868 58.225C166.839 58.2364 166.805 58.2421 166.768 58.2421ZM167.789 57.8074L167.714 57.8287C167.709 57.8162 167.702 57.804 167.693 57.7921C167.684 57.7801 167.672 57.7701 167.656 57.7623C167.641 57.7545 167.621 57.7506 167.596 57.7506C167.563 57.7506 167.535 57.7583 167.513 57.7737C167.491 57.7888 167.48 57.8081 167.48 57.8316C167.48 57.8524 167.487 57.8689 167.502 57.8809C167.518 57.893 167.541 57.9031 167.574 57.9111L167.654 57.931C167.703 57.9428 167.74 57.9609 167.763 57.9853C167.787 58.0095 167.799 58.0406 167.799 58.0787C167.799 58.11 167.79 58.1379 167.772 58.1625C167.755 58.1872 167.73 58.2066 167.698 58.2208C167.666 58.235 167.629 58.2421 167.586 58.2421C167.531 58.2421 167.485 58.23 167.448 58.2059C167.412 58.1817 167.389 58.1464 167.379 58.1L167.458 58.0801C167.466 58.1095 167.48 58.1315 167.501 58.1462C167.523 58.1609 167.551 58.1682 167.585 58.1682C167.624 58.1682 167.655 58.1599 167.678 58.1434C167.701 58.1265 167.713 58.1064 167.713 58.083C167.713 58.064 167.706 58.0482 167.693 58.0354C167.68 58.0224 167.659 58.0127 167.632 58.0063L167.541 57.985C167.491 57.9731 167.454 57.9548 167.431 57.9299C167.408 57.9048 167.396 57.8735 167.396 57.8358C167.396 57.805 167.405 57.7778 167.422 57.7542C167.439 57.7305 167.463 57.7119 167.493 57.6984C167.524 57.6849 167.558 57.6782 167.596 57.6782C167.65 57.6782 167.693 57.69 167.723 57.7137C167.754 57.7373 167.776 57.7686 167.789 57.8074ZM168.147 58.2421C168.098 58.2421 168.055 58.2304 168.017 58.2069C167.981 58.1835 167.952 58.1507 167.931 58.1086C167.91 58.0664 167.9 58.0172 167.9 57.9608C167.9 57.904 167.91 57.8544 167.931 57.812C167.952 57.7697 167.981 57.7367 168.017 57.7133C168.055 57.6899 168.098 57.6782 168.147 57.6782C168.196 57.6782 168.239 57.6899 168.276 57.7133C168.314 57.7367 168.342 57.7697 168.363 57.812C168.384 57.8544 168.394 57.904 168.394 57.9608C168.394 58.0172 168.384 58.0664 168.363 58.1086C168.342 58.1507 168.314 58.1835 168.276 58.2069C168.239 58.2304 168.196 58.2421 168.147 58.2421ZM168.147 58.1668C168.185 58.1668 168.215 58.1572 168.239 58.138C168.264 58.1189 168.281 58.0936 168.293 58.0624C168.305 58.0311 168.31 57.9973 168.31 57.9608C168.31 57.9244 168.305 57.8904 168.293 57.8589C168.281 57.8274 168.264 57.802 168.239 57.7826C168.215 57.7631 168.185 57.7534 168.147 57.7534C168.11 57.7534 168.079 57.7631 168.055 57.7826C168.031 57.802 168.013 57.8274 168.001 57.8589C167.99 57.8904 167.984 57.9244 167.984 57.9608C167.984 57.9973 167.99 58.0311 168.001 58.0624C168.013 58.0936 168.031 58.1189 168.055 58.138C168.079 58.1572 168.11 58.1668 168.147 58.1668ZM168.522 58.2307V57.6853H168.603V57.7705H168.61C168.622 57.7414 168.64 57.7188 168.665 57.7027C168.691 57.6863 168.721 57.6782 168.757 57.6782C168.793 57.6782 168.823 57.6863 168.846 57.7027C168.871 57.7188 168.889 57.7414 168.903 57.7705H168.909C168.923 57.7423 168.943 57.7199 168.971 57.7034C168.999 57.6866 169.033 57.6782 169.072 57.6782C169.121 57.6782 169.161 57.6934 169.192 57.724C169.223 57.7543 169.238 57.8015 169.238 57.8657V58.2307H169.154V57.8657C169.154 57.8254 169.143 57.7966 169.121 57.7794C169.099 57.7621 169.073 57.7534 169.044 57.7534C169.005 57.7534 168.975 57.765 168.954 57.7882C168.933 57.8112 168.923 57.8403 168.923 57.8756V58.2307H168.838V57.8571C168.838 57.8261 168.827 57.8011 168.807 57.7822C168.787 57.763 168.761 57.7534 168.73 57.7534C168.708 57.7534 168.687 57.7592 168.669 57.7708C168.65 57.7824 168.635 57.7985 168.623 57.8191C168.612 57.8395 168.606 57.8631 168.606 57.8898V58.2307H168.522ZM169.62 58.2421C169.567 58.2421 169.522 58.2305 169.484 58.2073C169.446 58.1838 169.417 58.1512 169.396 58.1093C169.376 58.0671 169.366 58.0181 169.366 57.9622C169.366 57.9064 169.376 57.8571 169.396 57.8145C169.417 57.7717 169.446 57.7383 169.482 57.7144C169.519 57.6902 169.562 57.6782 169.612 57.6782C169.64 57.6782 169.668 57.6829 169.696 57.6924C169.723 57.7018 169.749 57.7172 169.771 57.7385C169.794 57.7596 169.812 57.7875 169.826 57.8223C169.839 57.8571 169.846 57.9 169.846 57.9509V57.9864H169.425V57.914H169.761C169.761 57.8832 169.755 57.8557 169.742 57.8316C169.73 57.8074 169.713 57.7884 169.69 57.7744C169.668 57.7604 169.642 57.7534 169.612 57.7534C169.578 57.7534 169.549 57.7617 169.525 57.7783C169.501 57.7946 169.482 57.8159 169.469 57.8422C169.456 57.8685 169.45 57.8967 169.45 57.9267V57.975C169.45 58.0162 169.457 58.0511 169.471 58.0798C169.485 58.1082 169.505 58.1299 169.531 58.1448C169.556 58.1595 169.586 58.1668 169.62 58.1668C169.642 58.1668 169.662 58.1637 169.68 58.1576C169.698 58.1512 169.713 58.1417 169.726 58.1292C169.739 58.1164 169.749 58.1005 169.756 58.0816L169.837 58.1043C169.829 58.1318 169.815 58.1559 169.794 58.1767C169.774 58.1973 169.749 58.2134 169.72 58.225C169.69 58.2364 169.657 58.2421 169.62 58.2421ZM170.492 57.6853V57.7563H170.209V57.6853H170.492ZM170.292 57.5546H170.375V58.0745C170.375 58.0981 170.379 58.1159 170.386 58.1277C170.393 58.1393 170.402 58.1471 170.413 58.1512C170.424 58.155 170.435 58.1568 170.448 58.1568C170.457 58.1568 170.465 58.1564 170.471 58.1554C170.476 58.1542 170.481 58.1533 170.485 58.1526L170.502 58.2279C170.496 58.23 170.488 58.2321 170.478 58.2343C170.468 58.2366 170.455 58.2378 170.439 58.2378C170.416 58.2378 170.392 58.2327 170.37 58.2225C170.347 58.2124 170.328 58.1969 170.314 58.176C170.299 58.1552 170.292 58.1289 170.292 58.0972V57.5546ZM170.618 58.2307V57.6853H170.702V58.2307H170.618ZM170.661 57.5943C170.644 57.5943 170.63 57.5888 170.618 57.5777C170.607 57.5665 170.601 57.5532 170.601 57.5375C170.601 57.5219 170.607 57.5085 170.618 57.4974C170.63 57.4863 170.644 57.4807 170.661 57.4807C170.677 57.4807 170.691 57.4863 170.702 57.4974C170.714 57.5085 170.72 57.5219 170.72 57.5375C170.72 57.5532 170.714 57.5665 170.702 57.5777C170.691 57.5888 170.677 57.5943 170.661 57.5943ZM170.855 58.4353V57.6853H170.936V57.7719H170.946C170.952 57.7624 170.961 57.7504 170.972 57.7357C170.983 57.7208 170.999 57.7075 171.019 57.6959C171.04 57.6841 171.068 57.6782 171.104 57.6782C171.15 57.6782 171.19 57.6896 171.225 57.7126C171.26 57.7356 171.288 57.7681 171.307 57.8103C171.327 57.8524 171.337 57.9021 171.337 57.9594C171.337 58.0172 171.327 58.0672 171.307 58.1096C171.288 58.1518 171.26 58.1844 171.226 58.2076C171.191 58.2306 171.151 58.2421 171.105 58.2421C171.07 58.2421 171.042 58.2363 171.021 58.2247C171 58.2128 170.984 58.1995 170.972 58.1845C170.961 58.1694 170.952 58.1568 170.946 58.1469H170.939V58.4353H170.855ZM170.938 57.958C170.938 57.9992 170.944 58.0355 170.956 58.067C170.968 58.0983 170.985 58.1228 171.009 58.1405C171.032 58.158 171.06 58.1668 171.094 58.1668C171.129 58.1668 171.158 58.1576 171.182 58.1391C171.205 58.1204 171.223 58.0953 171.235 58.0638C171.247 58.0321 171.253 57.9968 171.253 57.958C171.253 57.9196 171.247 57.8851 171.235 57.8543C171.224 57.8233 171.206 57.7988 171.182 57.7808C171.159 57.7626 171.129 57.7534 171.094 57.7534C171.06 57.7534 171.031 57.7621 171.008 57.7794C170.985 57.7964 170.967 57.8203 170.955 57.8511C170.944 57.8816 170.938 57.9173 170.938 57.958ZM171.851 57.8074L171.776 57.8287C171.771 57.8162 171.764 57.804 171.755 57.7921C171.746 57.7801 171.733 57.7701 171.718 57.7623C171.702 57.7545 171.682 57.7506 171.658 57.7506C171.624 57.7506 171.597 57.7583 171.574 57.7737C171.552 57.7888 171.541 57.8081 171.541 57.8316C171.541 57.8524 171.549 57.8689 171.564 57.8809C171.579 57.893 171.603 57.9031 171.635 57.9111L171.716 57.931C171.765 57.9428 171.801 57.9609 171.825 57.9853C171.849 58.0095 171.861 58.0406 171.861 58.0787C171.861 58.11 171.852 58.1379 171.834 58.1625C171.816 58.1872 171.791 58.2066 171.759 58.2208C171.727 58.235 171.69 58.2421 171.648 58.2421C171.592 58.2421 171.546 58.23 171.51 58.2059C171.473 58.1817 171.45 58.1464 171.44 58.1L171.52 58.0801C171.528 58.1095 171.542 58.1315 171.563 58.1462C171.584 58.1609 171.612 58.1682 171.646 58.1682C171.685 58.1682 171.716 58.1599 171.739 58.1434C171.763 58.1265 171.774 58.1064 171.774 58.083C171.774 58.064 171.768 58.0482 171.754 58.0354C171.741 58.0224 171.721 58.0127 171.693 58.0063L171.602 57.985C171.552 57.9731 171.516 57.9548 171.492 57.9299C171.469 57.9048 171.457 57.8735 171.457 57.8358C171.457 57.805 171.466 57.7778 171.483 57.7542C171.501 57.7305 171.525 57.7119 171.555 57.6984C171.585 57.6849 171.619 57.6782 171.658 57.6782C171.712 57.6782 171.754 57.69 171.785 57.7137C171.816 57.7373 171.838 57.7686 171.851 57.8074ZM172.49 58.2421C172.441 58.2421 172.397 58.2304 172.36 58.2069C172.323 58.1835 172.294 58.1507 172.274 58.1086C172.253 58.0664 172.243 58.0172 172.243 57.9608C172.243 57.904 172.253 57.8544 172.274 57.812C172.294 57.7697 172.323 57.7367 172.36 57.7133C172.397 57.6899 172.441 57.6782 172.49 57.6782C172.539 57.6782 172.582 57.6899 172.619 57.7133C172.656 57.7367 172.685 57.7697 172.706 57.812C172.727 57.8544 172.737 57.904 172.737 57.9608C172.737 58.0172 172.727 58.0664 172.706 58.1086C172.685 58.1507 172.656 58.1835 172.619 58.2069C172.582 58.2304 172.539 58.2421 172.49 58.2421ZM172.49 58.1668C172.527 58.1668 172.558 58.1572 172.582 58.138C172.606 58.1189 172.624 58.0936 172.636 58.0624C172.647 58.0311 172.653 57.9973 172.653 57.9608C172.653 57.9244 172.647 57.8904 172.636 57.8589C172.624 57.8274 172.606 57.802 172.582 57.7826C172.558 57.7631 172.527 57.7534 172.49 57.7534C172.452 57.7534 172.422 57.7631 172.398 57.7826C172.373 57.802 172.356 57.8274 172.344 57.8589C172.332 57.8904 172.327 57.9244 172.327 57.9608C172.327 57.9973 172.332 58.0311 172.344 58.0624C172.356 58.0936 172.373 58.1189 172.398 58.138C172.422 58.1572 172.452 58.1668 172.49 58.1668ZM172.949 57.9026V58.2307H172.865V57.6853H172.946V57.7705H172.953C172.966 57.7428 172.985 57.7205 173.011 57.7037C173.037 57.6867 173.071 57.6782 173.112 57.6782C173.149 57.6782 173.181 57.6857 173.209 57.7009C173.237 57.7158 173.258 57.7385 173.274 57.7691C173.289 57.7994 173.297 57.8377 173.297 57.8841V58.2307H173.213V57.8898C173.213 57.847 173.202 57.8136 173.18 57.7897C173.157 57.7655 173.127 57.7534 173.088 57.7534C173.061 57.7534 173.037 57.7592 173.016 57.7708C172.995 57.7824 172.979 57.7994 172.967 57.8216C172.955 57.8439 172.949 57.8709 172.949 57.9026ZM173.815 57.9026V58.2307H173.731V57.5034H173.815V57.7705H173.822C173.835 57.7423 173.854 57.7199 173.88 57.7034C173.905 57.6866 173.94 57.6782 173.983 57.6782C174.02 57.6782 174.052 57.6856 174.08 57.7005C174.108 57.7152 174.13 57.7378 174.145 57.7684C174.161 57.7987 174.169 57.8372 174.169 57.8841V58.2307H174.085V57.8898C174.085 57.8465 174.074 57.813 174.051 57.7893C174.029 57.7654 173.998 57.7534 173.958 57.7534C173.931 57.7534 173.906 57.7592 173.885 57.7708C173.863 57.7824 173.846 57.7994 173.833 57.8216C173.821 57.8439 173.815 57.8709 173.815 57.9026ZM174.544 58.2421C174.494 58.2421 174.451 58.2304 174.414 58.2069C174.377 58.1835 174.348 58.1507 174.327 58.1086C174.307 58.0664 174.296 58.0172 174.296 57.9608C174.296 57.904 174.307 57.8544 174.327 57.812C174.348 57.7697 174.377 57.7367 174.414 57.7133C174.451 57.6899 174.494 57.6782 174.544 57.6782C174.593 57.6782 174.636 57.6899 174.673 57.7133C174.71 57.7367 174.739 57.7697 174.76 57.812C174.78 57.8544 174.791 57.904 174.791 57.9608C174.791 58.0172 174.78 58.0664 174.76 58.1086C174.739 58.1507 174.71 58.1835 174.673 58.2069C174.636 58.2304 174.593 58.2421 174.544 58.2421ZM174.544 58.1668C174.581 58.1668 174.612 58.1572 174.636 58.138C174.66 58.1189 174.678 58.0936 174.69 58.0624C174.701 58.0311 174.707 57.9973 174.707 57.9608C174.707 57.9244 174.701 57.8904 174.69 57.8589C174.678 57.8274 174.66 57.802 174.636 57.7826C174.612 57.7631 174.581 57.7534 174.544 57.7534C174.506 57.7534 174.475 57.7631 174.451 57.7826C174.427 57.802 174.409 57.8274 174.398 57.8589C174.386 57.8904 174.38 57.9244 174.38 57.9608C174.38 57.9973 174.386 58.0311 174.398 58.0624C174.409 58.0936 174.427 58.1189 174.451 58.138C174.475 58.1572 174.506 58.1668 174.544 58.1668ZM175.024 58.2307L174.858 57.6853H174.946L175.063 58.1029H175.069L175.186 57.6853H175.275L175.39 58.1015H175.396L175.514 57.6853H175.602L175.436 58.2307H175.353L175.234 57.8117H175.225L175.106 58.2307H175.024ZM176.231 57.6853V57.7563H175.948V57.6853H176.231ZM176.031 57.5546H176.115V58.0745C176.115 58.0981 176.118 58.1159 176.125 58.1277C176.132 58.1393 176.141 58.1471 176.152 58.1512C176.163 58.155 176.175 58.1568 176.187 58.1568C176.196 58.1568 176.204 58.1564 176.21 58.1554C176.216 58.1542 176.22 58.1533 176.224 58.1526L176.241 58.2279C176.235 58.23 176.227 58.2321 176.217 58.2343C176.207 58.2366 176.194 58.2378 176.179 58.2378C176.155 58.2378 176.132 58.2327 176.109 58.2225C176.086 58.2124 176.068 58.1969 176.053 58.176C176.038 58.1552 176.031 58.1289 176.031 58.0972V57.5546ZM176.573 58.2421C176.524 58.2421 176.48 58.2304 176.443 58.2069C176.406 58.1835 176.377 58.1507 176.357 58.1086C176.336 58.0664 176.326 58.0172 176.326 57.9608C176.326 57.904 176.336 57.8544 176.357 57.812C176.377 57.7697 176.406 57.7367 176.443 57.7133C176.48 57.6899 176.524 57.6782 176.573 57.6782C176.622 57.6782 176.665 57.6899 176.702 57.7133C176.739 57.7367 176.768 57.7697 176.789 57.812C176.81 57.8544 176.82 57.904 176.82 57.9608C176.82 58.0172 176.81 58.0664 176.789 58.1086C176.768 58.1507 176.739 58.1835 176.702 58.2069C176.665 58.2304 176.622 58.2421 176.573 58.2421ZM176.573 58.1668C176.61 58.1668 176.641 58.1572 176.665 58.138C176.689 58.1189 176.707 58.0936 176.719 58.0624C176.73 58.0311 176.736 57.9973 176.736 57.9608C176.736 57.9244 176.73 57.8904 176.719 57.8589C176.707 57.8274 176.689 57.802 176.665 57.7826C176.641 57.7631 176.61 57.7534 176.573 57.7534C176.535 57.7534 176.505 57.7631 176.481 57.7826C176.456 57.802 176.439 57.8274 176.427 57.8589C176.415 57.8904 176.41 57.9244 176.41 57.9608C176.41 57.9973 176.415 58.0311 176.427 58.0624C176.439 58.0936 176.456 58.1189 176.481 58.138C176.505 58.1572 176.535 58.1668 176.573 58.1668ZM165.638 59.2307V58.6853H165.722V59.2307H165.638ZM165.681 58.5943C165.665 58.5943 165.651 58.5888 165.639 58.5777C165.627 58.5665 165.621 58.5532 165.621 58.5375C165.621 58.5219 165.627 58.5085 165.639 58.4974C165.651 58.4863 165.665 58.4807 165.681 58.4807C165.697 58.4807 165.711 58.4863 165.723 58.4974C165.735 58.5085 165.741 58.5219 165.741 58.5375C165.741 58.5532 165.735 58.5665 165.723 58.5777C165.711 58.5888 165.697 58.5943 165.681 58.5943ZM165.876 59.2307V58.6853H165.957V58.7705H165.964C165.975 58.7414 165.993 58.7188 166.019 58.7027C166.044 58.6863 166.075 58.6782 166.11 58.6782C166.146 58.6782 166.176 58.6863 166.2 58.7027C166.224 58.7188 166.243 58.7414 166.256 58.7705H166.262C166.276 58.7423 166.297 58.7199 166.325 58.7034C166.353 58.6866 166.386 58.6782 166.425 58.6782C166.474 58.6782 166.514 58.6934 166.545 58.724C166.576 58.7543 166.592 58.8015 166.592 58.8657V59.2307H166.508V58.8657C166.508 58.8254 166.497 58.7966 166.475 58.7794C166.453 58.7621 166.427 58.7534 166.397 58.7534C166.359 58.7534 166.329 58.765 166.308 58.7882C166.287 58.8112 166.276 58.8403 166.276 58.8756V59.2307H166.191V58.8571C166.191 58.8261 166.181 58.8011 166.161 58.7822C166.141 58.763 166.115 58.7534 166.083 58.7534C166.061 58.7534 166.041 58.7592 166.022 58.7708C166.003 58.7824 165.988 58.7985 165.977 58.8191C165.965 58.8395 165.96 58.8631 165.96 58.8898V59.2307H165.876ZM166.745 59.4353V58.6853H166.826V58.7719H166.836C166.842 58.7624 166.85 58.7504 166.861 58.7357C166.872 58.7208 166.888 58.7075 166.909 58.6959C166.93 58.6841 166.958 58.6782 166.993 58.6782C167.039 58.6782 167.08 58.6896 167.115 58.7126C167.15 58.7356 167.177 58.7681 167.197 58.8103C167.217 58.8524 167.226 58.9021 167.226 58.9594C167.226 59.0172 167.217 59.0672 167.197 59.1096C167.177 59.1518 167.15 59.1844 167.115 59.2076C167.08 59.2306 167.04 59.2421 166.995 59.2421C166.96 59.2421 166.932 59.2363 166.911 59.2247C166.89 59.2128 166.873 59.1995 166.862 59.1845C166.851 59.1694 166.842 59.1568 166.836 59.1469H166.829V59.4353H166.745ZM166.827 58.958C166.827 58.9992 166.833 59.0355 166.845 59.067C166.857 59.0983 166.875 59.1228 166.898 59.1405C166.921 59.158 166.95 59.1668 166.983 59.1668C167.019 59.1668 167.048 59.1576 167.071 59.1391C167.095 59.1204 167.113 59.0953 167.124 59.0638C167.137 59.0321 167.143 58.9968 167.143 58.958C167.143 58.9196 167.137 58.8851 167.125 58.8543C167.113 58.8233 167.096 58.7988 167.072 58.7808C167.048 58.7626 167.019 58.7534 166.983 58.7534C166.949 58.7534 166.921 58.7621 166.898 58.7794C166.874 58.7964 166.857 58.8203 166.845 58.8511C166.833 58.8816 166.827 58.9173 166.827 58.958ZM167.354 59.2307V58.6853H167.435V58.7676H167.441C167.451 58.7407 167.469 58.7188 167.495 58.7019C167.521 58.6851 167.55 58.6767 167.583 58.6767C167.589 58.6767 167.597 58.6769 167.606 58.6771C167.615 58.6773 167.622 58.6777 167.627 58.6782V58.7634C167.624 58.7627 167.618 58.7616 167.607 58.7602C167.597 58.7585 167.587 58.7577 167.576 58.7577C167.549 58.7577 167.526 58.7633 167.505 58.7744C167.484 58.7853 167.468 58.8004 167.456 58.8198C167.444 58.839 167.438 58.8609 167.438 58.8855V59.2307H167.354ZM167.931 59.2421C167.882 59.2421 167.839 59.2304 167.802 59.2069C167.765 59.1835 167.736 59.1507 167.715 59.1086C167.694 59.0664 167.684 59.0172 167.684 58.9608C167.684 58.904 167.694 58.8544 167.715 58.812C167.736 58.7697 167.765 58.7367 167.802 58.7133C167.839 58.6899 167.882 58.6782 167.931 58.6782C167.981 58.6782 168.024 58.6899 168.061 58.7133C168.098 58.7367 168.127 58.7697 168.147 58.812C168.168 58.8544 168.178 58.904 168.178 58.9608C168.178 59.0172 168.168 59.0664 168.147 59.1086C168.127 59.1507 168.098 59.1835 168.061 59.2069C168.024 59.2304 167.981 59.2421 167.931 59.2421ZM167.931 59.1668C167.969 59.1668 167.999 59.1572 168.024 59.138C168.048 59.1189 168.066 59.0936 168.077 59.0624C168.089 59.0311 168.095 58.9973 168.095 58.9608C168.095 58.9244 168.089 58.8904 168.077 58.8589C168.066 58.8274 168.048 58.802 168.024 58.7826C167.999 58.7631 167.969 58.7534 167.931 58.7534C167.894 58.7534 167.863 58.7631 167.839 58.7826C167.815 58.802 167.797 58.8274 167.785 58.8589C167.774 58.8904 167.768 58.9244 167.768 58.9608C167.768 58.9973 167.774 59.0311 167.785 59.0624C167.797 59.0936 167.815 59.1189 167.839 59.138C167.863 59.1572 167.894 59.1668 167.931 59.1668ZM168.733 58.6853L168.531 59.2307H168.446L168.244 58.6853H168.335L168.486 59.1199H168.491L168.642 58.6853H168.733ZM169.053 59.2421C169 59.2421 168.955 59.2305 168.917 59.2073C168.879 59.1838 168.85 59.1512 168.829 59.1093C168.809 59.0671 168.798 59.0181 168.798 58.9622C168.798 58.9064 168.809 58.8571 168.829 58.8145C168.85 58.7717 168.878 58.7383 168.915 58.7144C168.952 58.6902 168.995 58.6782 169.044 58.6782C169.073 58.6782 169.101 58.6829 169.128 58.6924C169.156 58.7018 169.181 58.7172 169.204 58.7385C169.227 58.7596 169.245 58.7875 169.258 58.8223C169.272 58.8571 169.279 58.9 169.279 58.9509V58.9864H168.858V58.914H169.193C169.193 58.8832 169.187 58.8557 169.175 58.8316C169.163 58.8074 169.145 58.7884 169.123 58.7744C169.101 58.7604 169.074 58.7534 169.044 58.7534C169.011 58.7534 168.982 58.7617 168.957 58.7783C168.933 58.7946 168.915 58.8159 168.902 58.8422C168.889 58.8685 168.882 58.8967 168.882 58.9267V58.975C168.882 59.0162 168.889 59.0511 168.904 59.0798C168.918 59.1082 168.938 59.1299 168.964 59.1448C168.989 59.1595 169.019 59.1668 169.053 59.1668C169.075 59.1668 169.095 59.1637 169.112 59.1576C169.13 59.1512 169.146 59.1417 169.159 59.1292C169.172 59.1164 169.182 59.1005 169.189 59.0816L169.27 59.1043C169.261 59.1318 169.247 59.1559 169.227 59.1767C169.207 59.1973 169.182 59.2134 169.152 59.225C169.123 59.2364 169.09 59.2421 169.053 59.2421ZM169.741 59.4353C169.727 59.4353 169.714 59.4341 169.703 59.4317C169.692 59.4296 169.684 59.4274 169.68 59.4253L169.701 59.3515C169.722 59.3567 169.74 59.3586 169.755 59.3571C169.771 59.3557 169.785 59.3487 169.797 59.3362C169.809 59.3239 169.821 59.3039 169.831 59.2762L169.846 59.2336L169.645 58.6853H169.736L169.886 59.1199H169.892L170.042 58.6853H170.133L169.902 59.3103C169.891 59.3384 169.878 59.3617 169.863 59.3802C169.848 59.3989 169.83 59.4128 169.809 59.4218C169.789 59.4308 169.767 59.4353 169.741 59.4353ZM170.446 59.2421C170.397 59.2421 170.353 59.2304 170.316 59.2069C170.279 59.1835 170.251 59.1507 170.23 59.1086C170.209 59.0664 170.199 59.0172 170.199 58.9608C170.199 58.904 170.209 58.8544 170.23 58.812C170.251 58.7697 170.279 58.7367 170.316 58.7133C170.353 58.6899 170.397 58.6782 170.446 58.6782C170.495 58.6782 170.538 58.6899 170.575 58.7133C170.612 58.7367 170.641 58.7697 170.662 58.812C170.683 58.8544 170.693 58.904 170.693 58.9608C170.693 59.0172 170.683 59.0664 170.662 59.1086C170.641 59.1507 170.612 59.1835 170.575 59.2069C170.538 59.2304 170.495 59.2421 170.446 59.2421ZM170.446 59.1668C170.483 59.1668 170.514 59.1572 170.538 59.138C170.562 59.1189 170.58 59.0936 170.592 59.0624C170.603 59.0311 170.609 58.9973 170.609 58.9608C170.609 58.9244 170.603 58.8904 170.592 58.8589C170.58 58.8274 170.562 58.802 170.538 58.7826C170.514 58.7631 170.483 58.7534 170.446 58.7534C170.409 58.7534 170.378 58.7631 170.354 58.7826C170.329 58.802 170.312 58.8274 170.3 58.8589C170.288 58.8904 170.283 58.9244 170.283 58.9608C170.283 58.9973 170.288 59.0311 170.3 59.0624C170.312 59.0936 170.329 59.1189 170.354 59.138C170.378 59.1572 170.409 59.1668 170.446 59.1668ZM171.165 59.0077V58.6853H171.249V59.2307H171.165V59.1384H171.159C171.146 59.1661 171.126 59.1896 171.099 59.2091C171.072 59.2282 171.038 59.2378 170.997 59.2378C170.963 59.2378 170.933 59.2304 170.906 59.2154C170.88 59.2003 170.859 59.1776 170.844 59.1473C170.829 59.1167 170.821 59.0783 170.821 59.0318V58.6853H170.905V59.0262C170.905 59.0659 170.916 59.0977 170.938 59.1213C170.961 59.145 170.989 59.1568 171.024 59.1568C171.045 59.1568 171.066 59.1515 171.088 59.1409C171.109 59.1302 171.128 59.1139 171.142 59.0919C171.157 59.0698 171.165 59.0418 171.165 59.0077ZM171.402 59.2307V58.6853H171.483V58.7676H171.489C171.499 58.7407 171.517 58.7188 171.543 58.7019C171.569 58.6851 171.598 58.6767 171.631 58.6767C171.637 58.6767 171.645 58.6769 171.654 58.6771C171.663 58.6773 171.67 58.6777 171.675 58.6782V58.7634C171.672 58.7627 171.665 58.7616 171.655 58.7602C171.645 58.7585 171.635 58.7577 171.624 58.7577C171.597 58.7577 171.573 58.7633 171.553 58.7744C171.532 58.7853 171.516 58.8004 171.504 58.8198C171.492 58.839 171.486 58.8609 171.486 58.8855V59.2307H171.402ZM172.442 58.8074L172.366 58.8287C172.362 58.8162 172.355 58.804 172.346 58.7921C172.337 58.7801 172.324 58.7701 172.309 58.7623C172.293 58.7545 172.273 58.7506 172.249 58.7506C172.215 58.7506 172.187 58.7583 172.165 58.7737C172.143 58.7888 172.132 58.8081 172.132 58.8316C172.132 58.8524 172.14 58.8689 172.155 58.8809C172.17 58.893 172.194 58.9031 172.226 58.9111L172.307 58.931C172.356 58.9428 172.392 58.9609 172.416 58.9853C172.44 59.0095 172.452 59.0406 172.452 59.0787C172.452 59.11 172.443 59.1379 172.425 59.1625C172.407 59.1872 172.382 59.2066 172.35 59.2208C172.318 59.235 172.281 59.2421 172.239 59.2421C172.183 59.2421 172.137 59.23 172.101 59.2059C172.064 59.1817 172.041 59.1464 172.031 59.1L172.111 59.0801C172.118 59.1095 172.133 59.1315 172.154 59.1462C172.175 59.1609 172.203 59.1682 172.237 59.1682C172.276 59.1682 172.307 59.1599 172.33 59.1434C172.353 59.1265 172.365 59.1064 172.365 59.083C172.365 59.064 172.358 59.0482 172.345 59.0354C172.332 59.0224 172.312 59.0127 172.284 59.0063L172.193 58.985C172.143 58.9731 172.107 58.9548 172.083 58.9299C172.06 58.9048 172.048 58.8735 172.048 58.8358C172.048 58.805 172.057 58.7778 172.074 58.7542C172.092 58.7305 172.116 58.7119 172.146 58.6984C172.176 58.6849 172.21 58.6782 172.249 58.6782C172.303 58.6782 172.345 58.69 172.376 58.7137C172.407 58.7373 172.429 58.7686 172.442 58.8074ZM172.799 59.2421C172.748 59.2421 172.704 59.23 172.667 59.2059C172.63 59.1817 172.602 59.1484 172.582 59.1061C172.562 59.0637 172.552 59.0153 172.552 58.9608C172.552 58.9054 172.562 58.8565 172.583 58.8142C172.603 58.7716 172.632 58.7383 172.669 58.7144C172.706 58.6902 172.749 58.6782 172.798 58.6782C172.836 58.6782 172.871 58.6853 172.902 58.6995C172.933 58.7137 172.958 58.7336 172.977 58.7591C172.997 58.7847 173.009 58.8145 173.014 58.8486H172.93C172.924 58.8238 172.91 58.8017 172.888 58.7826C172.866 58.7631 172.836 58.7534 172.799 58.7534C172.767 58.7534 172.738 58.762 172.714 58.779C172.689 58.7958 172.67 58.8196 172.656 58.8504C172.643 58.8809 172.636 58.9168 172.636 58.958C172.636 59.0001 172.643 59.0368 172.656 59.0681C172.669 59.0993 172.688 59.1236 172.713 59.1409C172.737 59.1582 172.766 59.1668 172.799 59.1668C172.821 59.1668 172.841 59.163 172.859 59.1554C172.877 59.1479 172.892 59.137 172.904 59.1228C172.916 59.1086 172.925 59.0915 172.93 59.0716H173.014C173.009 59.1038 172.997 59.1328 172.979 59.1586C172.96 59.1842 172.936 59.2046 172.905 59.2197C172.875 59.2346 172.84 59.2421 172.799 59.2421ZM173.358 59.2421C173.309 59.2421 173.266 59.2304 173.228 59.2069C173.192 59.1835 173.163 59.1507 173.142 59.1086C173.121 59.0664 173.111 59.0172 173.111 58.9608C173.111 58.904 173.121 58.8544 173.142 58.812C173.163 58.7697 173.192 58.7367 173.228 58.7133C173.266 58.6899 173.309 58.6782 173.358 58.6782C173.407 58.6782 173.45 58.6899 173.487 58.7133C173.524 58.7367 173.553 58.7697 173.574 58.812C173.595 58.8544 173.605 58.904 173.605 58.9608C173.605 59.0172 173.595 59.0664 173.574 59.1086C173.553 59.1507 173.524 59.1835 173.487 59.2069C173.45 59.2304 173.407 59.2421 173.358 59.2421ZM173.358 59.1668C173.395 59.1668 173.426 59.1572 173.45 59.138C173.475 59.1189 173.492 59.0936 173.504 59.0624C173.516 59.0311 173.521 58.9973 173.521 58.9608C173.521 58.9244 173.516 58.8904 173.504 58.8589C173.492 58.8274 173.475 58.802 173.45 58.7826C173.426 58.7631 173.395 58.7534 173.358 58.7534C173.321 58.7534 173.29 58.7631 173.266 58.7826C173.242 58.802 173.224 58.8274 173.212 58.8589C173.2 58.8904 173.195 58.9244 173.195 58.9608C173.195 58.9973 173.2 59.0311 173.212 59.0624C173.224 59.0936 173.242 59.1189 173.266 59.138C173.29 59.1572 173.321 59.1668 173.358 59.1668ZM173.733 59.2307V58.6853H173.814V58.7676H173.82C173.83 58.7407 173.848 58.7188 173.874 58.7019C173.9 58.6851 173.929 58.6767 173.962 58.6767C173.968 58.6767 173.976 58.6769 173.985 58.6771C173.994 58.6773 174.001 58.6777 174.006 58.6782V58.7634C174.003 58.7627 173.997 58.7616 173.986 58.7602C173.976 58.7585 173.966 58.7577 173.955 58.7577C173.928 58.7577 173.905 58.7633 173.884 58.7744C173.863 58.7853 173.847 58.8004 173.835 58.8198C173.823 58.839 173.817 58.8609 173.817 58.8855V59.2307H173.733ZM174.317 59.2421C174.265 59.2421 174.219 59.2305 174.181 59.2073C174.143 59.1838 174.114 59.1512 174.094 59.1093C174.073 59.0671 174.063 59.0181 174.063 58.9622C174.063 58.9064 174.073 58.8571 174.094 58.8145C174.114 58.7717 174.143 58.7383 174.18 58.7144C174.216 58.6902 174.26 58.6782 174.309 58.6782C174.337 58.6782 174.365 58.6829 174.393 58.6924C174.421 58.7018 174.446 58.7172 174.469 58.7385C174.491 58.7596 174.509 58.7875 174.523 58.8223C174.536 58.8571 174.543 58.9 174.543 58.9509V58.9864H174.123V58.914H174.458C174.458 58.8832 174.452 58.8557 174.439 58.8316C174.427 58.8074 174.41 58.7884 174.388 58.7744C174.365 58.7604 174.339 58.7534 174.309 58.7534C174.275 58.7534 174.247 58.7617 174.222 58.7783C174.198 58.7946 174.179 58.8159 174.166 58.8422C174.153 58.8685 174.147 58.8967 174.147 58.9267V58.975C174.147 59.0162 174.154 59.0511 174.168 59.0798C174.183 59.1082 174.203 59.1299 174.228 59.1448C174.254 59.1595 174.283 59.1668 174.317 59.1668C174.339 59.1668 174.359 59.1637 174.377 59.1576C174.395 59.1512 174.41 59.1417 174.423 59.1292C174.436 59.1164 174.447 59.1005 174.454 59.0816L174.535 59.1043C174.526 59.1318 174.512 59.1559 174.492 59.1767C174.472 59.1973 174.447 59.2134 174.417 59.225C174.387 59.2364 174.354 59.2421 174.317 59.2421Z" fill="black"/>
<path d="M182.621 49.4758C181.911 46.7833 180.237 44.3902 177.87 42.6825C175.504 40.9748 172.582 40.0522 169.578 40.0636C166.573 40.0749 163.659 41.0196 161.308 42.7451C158.957 44.4706 157.305 46.8763 156.618 49.574L161.857 50.7078C162.267 49.0961 163.254 47.6588 164.659 46.6279C166.064 45.597 167.804 45.0326 169.6 45.0258C171.395 45.0191 173.14 45.5703 174.554 46.5905C175.968 47.6108 176.968 49.0406 177.392 50.6492L182.621 49.4758Z" fill="#E9ECF1"/>
<path d="M165.716 40.7755C163.513 41.3868 161.525 42.5031 159.949 44.0145C158.373 45.5259 157.263 47.3801 156.728 49.3942L161.923 50.5065C162.242 49.3032 162.906 48.1954 163.847 47.2924C164.789 46.3894 165.976 45.7225 167.293 45.3573L165.716 40.7755Z" fill="url(#paint24_linear_73_1808)"/>
<path d="M165.176 40.0635L166.959 45.4566" stroke="#D4D5E0" stroke-width="0.5" stroke-linecap="round"/>
<path d="M167.34 49.7877C167.239 49.7877 167.15 49.7692 167.071 49.7323C166.993 49.6954 166.931 49.6445 166.885 49.5796C166.839 49.5147 166.815 49.4404 166.814 49.3566H167.112C167.115 49.4129 167.139 49.4586 167.183 49.4937C167.227 49.5287 167.279 49.5462 167.34 49.5462C167.388 49.5462 167.431 49.5356 167.468 49.5143C167.505 49.4925 167.534 49.4624 167.555 49.4241C167.576 49.3852 167.587 49.3407 167.587 49.2905C167.587 49.2394 167.576 49.1944 167.554 49.1556C167.533 49.1168 167.503 49.0865 167.466 49.0647C167.428 49.0429 167.384 49.0318 167.336 49.0313C167.293 49.0313 167.252 49.0401 167.211 49.0576C167.171 49.0751 167.14 49.099 167.118 49.1293L166.845 49.0803L166.914 48.3133H167.803V48.5647H167.167L167.13 48.929H167.138C167.164 48.8931 167.202 48.8632 167.254 48.8396C167.305 48.8159 167.363 48.804 167.427 48.804C167.515 48.804 167.593 48.8246 167.662 48.8658C167.73 48.907 167.784 48.9636 167.824 49.0356C167.864 49.1071 167.884 49.1895 167.883 49.2827C167.884 49.3807 167.861 49.4679 167.815 49.5441C167.77 49.6199 167.706 49.6795 167.624 49.7231C167.542 49.7662 167.448 49.7877 167.34 49.7877ZM168.64 49.7877C168.531 49.7877 168.434 49.77 168.348 49.7344C168.264 49.6985 168.197 49.6495 168.149 49.5874C168.1 49.5254 168.076 49.4551 168.076 49.3765C168.076 49.3159 168.09 49.2602 168.118 49.2096C168.145 49.1584 168.183 49.1161 168.231 49.0825C168.279 49.0484 168.332 49.0266 168.392 49.0171V49.0072C168.314 48.9915 168.251 48.9539 168.203 48.8942C168.154 48.8341 168.13 48.7643 168.13 48.6847C168.13 48.6094 168.152 48.5424 168.196 48.4837C168.24 48.4245 168.301 48.3781 168.377 48.3445C168.455 48.3104 168.542 48.2934 168.64 48.2934C168.738 48.2934 168.826 48.3104 168.902 48.3445C168.979 48.3786 169.04 48.4253 169.084 48.4844C169.128 48.5432 169.15 48.6099 169.151 48.6847C169.15 48.7647 169.126 48.8346 169.077 48.8942C169.028 48.9539 168.966 48.9915 168.89 49.0072V49.0171C168.948 49.0266 169.001 49.0484 169.048 49.0825C169.096 49.1161 169.134 49.1584 169.162 49.2096C169.19 49.2602 169.204 49.3159 169.205 49.3765C169.204 49.4551 169.18 49.5254 169.132 49.5874C169.083 49.6495 169.017 49.6985 168.931 49.7344C168.847 49.77 168.75 49.7877 168.64 49.7877ZM168.64 49.5619C168.689 49.5619 168.732 49.5531 168.768 49.5356C168.805 49.5176 168.833 49.493 168.853 49.4617C168.874 49.43 168.885 49.3935 168.885 49.3523C168.885 49.3102 168.874 49.273 168.853 49.2408C168.831 49.2082 168.802 49.1826 168.766 49.1641C168.729 49.1452 168.688 49.1357 168.64 49.1357C168.593 49.1357 168.551 49.1452 168.515 49.1641C168.478 49.1826 168.448 49.2082 168.427 49.2408C168.406 49.273 168.396 49.3102 168.396 49.3523C168.396 49.3935 168.406 49.43 168.426 49.4617C168.447 49.493 168.475 49.5176 168.512 49.5356C168.549 49.5531 168.592 49.5619 168.64 49.5619ZM168.64 48.912C168.681 48.912 168.717 48.9037 168.749 48.8871C168.781 48.8706 168.805 48.8476 168.823 48.8182C168.841 48.7889 168.85 48.755 168.85 48.7167C168.85 48.6788 168.841 48.6457 168.823 48.6173C168.805 48.5884 168.781 48.5659 168.75 48.5498C168.718 48.5332 168.682 48.5249 168.64 48.5249C168.599 48.5249 168.563 48.5332 168.531 48.5498C168.499 48.5659 168.474 48.5884 168.456 48.6173C168.439 48.6457 168.43 48.6788 168.43 48.7167C168.43 48.755 168.439 48.7889 168.457 48.8182C168.475 48.8476 168.5 48.8706 168.532 48.8871C168.563 48.9037 168.6 48.912 168.64 48.912Z" fill="#D3C1C1"/>
<rect x="32.926" y="37.0491" width="101.657" height="32.7411" rx="8" fill="#F9F4F4"/>
<path d="M35.4321 52.3159L34.9619 53.355C33.8532 55.805 33.2798 58.4632 33.2798 61.1523C33.2798 66.1002 37.2908 70.1112 42.2386 70.1112H121.03C127.692 70.1112 133.093 64.7101 133.093 58.0475C131.129 58.9208 129.23 58.3923 127.614 57.3186C124.581 55.3034 120.993 53.4819 117.512 54.5501C114.732 55.4033 111.708 54.6255 109.684 52.5367L109.016 51.847C106.816 49.5752 103.612 48.5768 100.51 49.1964L95.7432 50.1485C94.0302 50.4907 92.2511 50.191 90.7448 49.3064L90.3886 49.0973C87.2613 47.261 83.2405 48.2491 81.3205 51.3257L78.4769 55.8827C77.4394 57.5451 75.0743 57.693 73.8379 56.1727C73.1937 55.3806 72.1757 54.9926 71.1677 55.155L69.3527 55.4475C67.4322 55.7569 65.4802 55.1221 64.109 53.7423L62.9786 52.6048C61.356 50.9719 58.8457 50.617 56.834 51.7361C54.923 52.7991 52.5487 52.5367 50.916 51.0819L49.0573 49.4258C44.7035 45.5465 37.8362 47.0032 35.4321 52.3159Z" fill="url(#paint25_linear_73_1808)"/>
<rect x="125.613" y="134.411" width="133.549" height="29.2947" rx="8" fill="#F9F4F4"/>
<rect x="220.431" y="140.993" width="16.0415" height="22.3431" fill="#F2F2F3"/>
<rect x="131.311" y="140.993" width="16.9327" height="22.3431" fill="url(#paint26_linear_73_1808)"/>
<rect x="149.135" y="140.993" width="16.9327" height="22.3431" fill="url(#paint27_linear_73_1808)"/>
<rect x="166.959" y="140.993" width="16.9327" height="22.3431" fill="url(#paint28_linear_73_1808)"/>
<rect x="185.674" y="140.993" width="16.0415" height="22.3431" fill="url(#paint29_linear_73_1808)"/>
<rect x="202.607" y="140.993" width="16.9327" height="22.3431" fill="url(#paint30_linear_73_1808)"/>
<rect x="238.254" y="140.993" width="16.0415" height="22.3431" fill="url(#paint31_linear_73_1808)"/>
<path d="M138.441 157.172C138.91 154.117 141.114 148.179 146.294 146.028C147.813 145.397 149.538 145.397 151.107 145.891C151.681 146.072 152.274 146.317 152.879 146.669C156.264 148.641 158.742 151.732 162.525 150.711V150.711C163.749 150.381 165.809 149.818 167.051 150.079C168.738 150.433 171.041 151.394 175.621 153.822C178.002 155.084 180.587 156.37 183.252 155.973C183.892 155.877 184.551 155.698 185.229 155.397C186.009 154.974 187.643 153.511 189.297 151.926C191.689 149.635 195.024 148.565 198.273 149.209V149.209C200.486 149.649 202.782 149.306 204.77 148.24L206.003 147.579C209.882 145.499 214.666 146.211 217.772 149.33V149.33C220.034 151.602 223.251 152.647 226.416 152.137L226.875 152.063C230.127 151.54 233.444 152.575 236.417 153.991C238.92 155.183 242.276 156.32 246.275 156.743" stroke="#D3D8FB" stroke-width="0.5" stroke-linecap="round"/>
<defs>
<filter id="filter0_d_73_1808" x="0" y="0" width="278.358" height="182.531" filterUnits="userSpaceOnUse" color-interpolation-filters="sRGB">
<feFlood flood-opacity="0" result="BackgroundImageFix"/>
<feColorMatrix in="SourceAlpha" type="matrix" values="0 0 0 0 0 0 0 0 0 0 0 0 0 0 0 0 0 0 127 0" result="hardAlpha"/>
<feOffset dx="-7" dy="4"/>
<feGaussianBlur stdDeviation="2"/>
<feComposite in2="hardAlpha" operator="out"/>
<feColorMatrix type="matrix" values="0 0 0 0 0 0 0 0 0 0 0 0 0 0 0 0 0 0 0.25 0"/>
<feBlend mode="normal" in2="BackgroundImageFix" result="effect1_dropShadow_73_1808"/>
<feBlend mode="normal" in="SourceGraphic" in2="effect1_dropShadow_73_1808" result="shape"/>
</filter>
<linearGradient id="paint0_linear_73_1808" x1="217.61" y1="51.2964" x2="217.61" y2="59.9076" gradientUnits="userSpaceOnUse">
<stop stop-color="#EED5DB"/>
<stop offset="1" stop-color="#F1D1E6"/>
</linearGradient>
<linearGradient id="paint1_linear_73_1808" x1="217.61" y1="48.8364" x2="217.61" y2="50.6817" gradientUnits="userSpaceOnUse">
<stop stop-color="#F6E5EB"/>
<stop offset="1" stop-color="#D6CED0"/>
</linearGradient>
<linearGradient id="paint2_linear_73_1808" x1="220.315" y1="56.2173" x2="220.315" y2="59.9078" gradientUnits="userSpaceOnUse">
<stop stop-color="#EED5DB"/>
<stop offset="1" stop-color="#F1D1E6"/>
</linearGradient>
<linearGradient id="paint3_linear_73_1808" x1="220.315" y1="46.376" x2="220.315" y2="55.6023" gradientUnits="userSpaceOnUse">
<stop stop-color="#F6E5EB"/>
<stop offset="1" stop-color="#D6CED0"/>
</linearGradient>
<linearGradient id="paint4_linear_73_1808" x1="223.156" y1="52.5271" x2="223.156" y2="59.9082" gradientUnits="userSpaceOnUse">
<stop stop-color="#EED5DB"/>
<stop offset="1" stop-color="#F1D1E6"/>
</linearGradient>
<linearGradient id="paint5_linear_73_1808" x1="223.156" y1="46.991" x2="223.156" y2="51.9117" gradientUnits="userSpaceOnUse">
<stop stop-color="#F6E5EB"/>
<stop offset="1" stop-color="#D6CED0"/>
</linearGradient>
<linearGradient id="paint6_linear_73_1808" x1="225.997" y1="52.5271" x2="225.997" y2="59.9082" gradientUnits="userSpaceOnUse">
<stop stop-color="#EED5DB"/>
<stop offset="1" stop-color="#F1D1E6"/>
</linearGradient>
<linearGradient id="paint7_linear_73_1808" x1="225.997" y1="50.6816" x2="225.997" y2="51.9118" gradientUnits="userSpaceOnUse">
<stop stop-color="#F6E5EB"/>
<stop offset="1" stop-color="#D6CED0"/>
</linearGradient>
<linearGradient id="paint8_linear_73_1808" x1="228.838" y1="51.2964" x2="228.838" y2="59.9076" gradientUnits="userSpaceOnUse">
<stop stop-color="#EED5DB"/>
<stop offset="1" stop-color="#F1D1E6"/>
</linearGradient>
<linearGradient id="paint9_linear_73_1808" x1="228.838" y1="45.7607" x2="228.838" y2="50.6815" gradientUnits="userSpaceOnUse">
<stop stop-color="#F6E5EB"/>
<stop offset="1" stop-color="#D6CED0"/>
</linearGradient>
<linearGradient id="paint10_linear_73_1808" x1="231.679" y1="53.1418" x2="231.679" y2="59.9078" gradientUnits="userSpaceOnUse">
<stop stop-color="#EED5DB"/>
<stop offset="1" stop-color="#F1D1E6"/>
</linearGradient>
<linearGradient id="paint11_linear_73_1808" x1="231.679" y1="48.8364" x2="231.679" y2="52.527" gradientUnits="userSpaceOnUse">
<stop stop-color="#F6E5EB"/>
<stop offset="1" stop-color="#D6CED0"/>
</linearGradient>
<linearGradient id="paint12_linear_73_1808" x1="234.52" y1="49.4514" x2="234.52" y2="59.9079" gradientUnits="userSpaceOnUse">
<stop stop-color="#EED5DB"/>
<stop offset="1" stop-color="#F1D1E6"/>
</linearGradient>
<linearGradient id="paint13_linear_73_1808" x1="234.52" y1="46.376" x2="234.52" y2="48.8363" gradientUnits="userSpaceOnUse">
<stop stop-color="#F6E5EB"/>
<stop offset="1" stop-color="#D6CED0"/>
</linearGradient>
<linearGradient id="paint14_linear_73_1808" x1="237.225" y1="52.5271" x2="237.225" y2="59.9082" gradientUnits="userSpaceOnUse">
<stop stop-color="#EED5DB"/>
<stop offset="1" stop-color="#F1D1E6"/>
</linearGradient>
<linearGradient id="paint15_linear_73_1808" x1="237.225" y1="49.4514" x2="237.225" y2="51.9118" gradientUnits="userSpaceOnUse">
<stop stop-color="#F6E5EB"/>
<stop offset="1" stop-color="#D6CED0"/>
</linearGradient>
<linearGradient id="paint16_linear_73_1808" x1="240.066" y1="58.0627" x2="240.066" y2="59.908" gradientUnits="userSpaceOnUse">
<stop stop-color="#EED5DB"/>
<stop offset="1" stop-color="#F1D1E6"/>
</linearGradient>
<linearGradient id="paint17_linear_73_1808" x1="240.066" y1="48.2212" x2="240.066" y2="57.4475" gradientUnits="userSpaceOnUse">
<stop stop-color="#F6E5EB"/>
<stop offset="1" stop-color="#D6CED0"/>
</linearGradient>
<linearGradient id="paint18_linear_73_1808" x1="242.772" y1="53.7568" x2="242.772" y2="59.9077" gradientUnits="userSpaceOnUse">
<stop stop-color="#EED5DB"/>
<stop offset="1" stop-color="#F1D1E6"/>
</linearGradient>
<linearGradient id="paint19_linear_73_1808" x1="242.772" y1="46.991" x2="242.772" y2="53.1419" gradientUnits="userSpaceOnUse">
<stop stop-color="#F6E5EB"/>
<stop offset="1" stop-color="#D6CED0"/>
</linearGradient>
<linearGradient id="paint20_linear_73_1808" x1="245.207" y1="54.9875" x2="245.207" y2="59.9083" gradientUnits="userSpaceOnUse">
<stop stop-color="#EED5DB"/>
<stop offset="1" stop-color="#F1D1E6"/>
</linearGradient>
<linearGradient id="paint21_linear_73_1808" x1="245.207" y1="49.4514" x2="245.207" y2="54.3721" gradientUnits="userSpaceOnUse">
<stop stop-color="#F6E5EB"/>
<stop offset="1" stop-color="#D6CED0"/>
</linearGradient>
<linearGradient id="paint22_linear_73_1808" x1="247.777" y1="54.9875" x2="247.777" y2="59.9083" gradientUnits="userSpaceOnUse">
<stop stop-color="#EED5DB"/>
<stop offset="1" stop-color="#F1D1E6"/>
</linearGradient>
<linearGradient id="paint23_linear_73_1808" x1="247.777" y1="44.5308" x2="247.777" y2="54.3722" gradientUnits="userSpaceOnUse">
<stop stop-color="#F6E5EB"/>
<stop offset="1" stop-color="#D6CED0"/>
</linearGradient>
<linearGradient id="paint24_linear_73_1808" x1="158.782" y1="49.5561" x2="174.154" y2="40.6844" gradientUnits="userSpaceOnUse">
<stop offset="0.158001" stop-color="#EBEBEB"/>
<stop offset="0.895779" stop-color="#B8B8BA"/>
</linearGradient>
<linearGradient id="paint25_linear_73_1808" x1="83.1866" y1="41.6045" x2="83.1866" y2="70.1112" gradientUnits="userSpaceOnUse">
<stop stop-color="#D5D9FF"/>
<stop offset="1" stop-color="#D9D9D9" stop-opacity="0"/>
</linearGradient>
<linearGradient id="paint26_linear_73_1808" x1="139.778" y1="140.993" x2="139.778" y2="163.336" gradientUnits="userSpaceOnUse">
<stop stop-color="#FFF4F4"/>
<stop offset="1" stop-color="#EBEDFC" stop-opacity="0.74"/>
</linearGradient>
<linearGradient id="paint27_linear_73_1808" x1="157.601" y1="140.993" x2="157.601" y2="163.336" gradientUnits="userSpaceOnUse">
<stop stop-color="#FFF4F4"/>
<stop offset="1" stop-color="#EBEDFC" stop-opacity="0.74"/>
</linearGradient>
<linearGradient id="paint28_linear_73_1808" x1="175.425" y1="140.993" x2="175.425" y2="163.336" gradientUnits="userSpaceOnUse">
<stop stop-color="#FFF4F4"/>
<stop offset="1" stop-color="#EBEDFC" stop-opacity="0.74"/>
</linearGradient>
<linearGradient id="paint29_linear_73_1808" x1="193.695" y1="140.993" x2="193.695" y2="163.336" gradientUnits="userSpaceOnUse">
<stop stop-color="#FFF4F4"/>
<stop offset="1" stop-color="#EBEDFC" stop-opacity="0.74"/>
</linearGradient>
<linearGradient id="paint30_linear_73_1808" x1="211.073" y1="140.993" x2="211.073" y2="163.336" gradientUnits="userSpaceOnUse">
<stop stop-color="#FFF4F4"/>
<stop offset="1" stop-color="#EBEDFC" stop-opacity="0.74"/>
</linearGradient>
<linearGradient id="paint31_linear_73_1808" x1="246.275" y1="140.993" x2="246.275" y2="163.336" gradientUnits="userSpaceOnUse">
<stop stop-color="#FFF4F4"/>
<stop offset="1" stop-color="#EBEDFC" stop-opacity="0.74"/>
</linearGradient>
</defs>
</svg>
