<svg width="22" height="19" viewBox="0 0 22 19" fill="none" xmlns="http://www.w3.org/2000/svg">
<path d="M19.7227 4.78125C19.7227 4.99609 19.7227 5.16797 19.7227 5.38281C19.7227 11.3555 15.2109 18.1875 6.91797 18.1875C4.33984 18.1875 1.97656 17.457 0 16.168C0.34375 16.2109 0.6875 16.2539 1.07422 16.2539C3.17969 16.2539 5.11328 15.5234 6.66016 14.3203C4.68359 14.2773 3.00781 12.9883 2.44922 11.1836C2.75 11.2266 3.00781 11.2695 3.30859 11.2695C3.69531 11.2695 4.125 11.1836 4.46875 11.0977C2.40625 10.668 0.859375 8.86328 0.859375 6.67188V6.62891C1.46094 6.97266 2.19141 7.14453 2.92188 7.1875C1.67578 6.37109 0.902344 4.99609 0.902344 3.44922C0.902344 2.58984 1.11719 1.81641 1.50391 1.17188C3.73828 3.87891 7.08984 5.68359 10.8281 5.89844C10.7422 5.55469 10.6992 5.21094 10.6992 4.86719C10.6992 2.375 12.7188 0.355469 15.2109 0.355469C16.5 0.355469 17.6602 0.871094 18.5195 1.77344C19.5078 1.55859 20.4961 1.17188 21.3555 0.65625C21.0117 1.73047 20.3242 2.58984 19.3789 3.14844C20.2812 3.0625 21.1836 2.80469 21.957 2.46094C21.3555 3.36328 20.582 4.13672 19.7227 4.78125Z" fill="black"/>
</svg>
